<?xml version="1.0" standalone="no"?>
<!DOCTYPE svg PUBLIC "-//W3C//DTD SVG 20010904//EN"
 "http://www.w3.org/TR/2001/REC-SVG-20010904/DTD/svg10.dtd">
<svg version="1.0" xmlns="http://www.w3.org/2000/svg"
 width="554.000000pt" height="554.000000pt" viewBox="0 0 554.000000 554.000000"
 preserveAspectRatio="xMidYMid meet">

<g transform="translate(0.000000,554.000000) scale(0.100000,-0.100000)"
fill="#000000" stroke="none">
<path d="M0 2770 l0 -2770 2770 0 2770 0 0 2770 0 2770 -2770 0 -2770 0 0
-2770z m2838 2128 c7 -13 20 -36 30 -53 83 -142 202 -354 202 -361 0 -12 -40
53 -149 244 -84 145 -111 183 -111 152 0 -5 -4 -10 -10 -10 -6 0 -5 10 2 25
14 31 22 31 36 3z m-64 -72 c-3 -9 -10 -16 -15 -16 -5 0 -4 9 3 20 14 22 21
20 12 -4z m79 -51 c28 -47 34 -75 17 -75 -14 0 -42 58 -35 73 4 7 -5 -1 -19
-18 -14 -16 -32 -38 -41 -47 -8 -10 -15 -24 -15 -30 0 -7 -16 -39 -35 -71 -19
-31 -48 -81 -64 -110 -59 -106 -66 -117 -78 -117 -6 0 -11 -8 -10 -17 0 -10
-26 -62 -59 -116 -32 -55 -69 -119 -81 -143 -21 -41 -43 -58 -43 -33 0 16 53
109 63 109 4 0 7 5 7 11 0 10 46 92 215 385 17 28 55 95 85 148 30 53 57 96
60 96 3 0 17 -20 33 -45z m-180 -132 c-38 -65 -121 -207 -184 -315 -63 -108
-116 -195 -118 -193 -4 5 37 79 197 355 160 276 163 282 169 276 3 -2 -26 -58
-64 -123z m320 -110 c43 -70 43 -73 18 -66 -15 4 -99 137 -124 196 -17 44 8
34 37 -15 18 -29 49 -81 69 -115z m-95 36 c35 -61 61 -113 58 -116 -4 -4 -37
50 -107 174 -13 24 -26 43 -29 43 -3 0 -66 -107 -140 -237 -74 -130 -143 -245
-153 -257 -24 -27 0 18 127 239 129 223 156 265 170 265 6 0 39 -50 74 -111z
m-2344 -25 c4 -10 1 -14 -6 -12 -15 5 -23 28 -10 28 5 0 13 -7 16 -16z m4451
4 c-7 -16 -120 -90 -131 -86 -5 2 -10 -1 -11 -6 -1 -5 -11 -14 -22 -20 -11 -6
-55 -33 -98 -60 -44 -28 -79 -44 -81 -37 -6 18 -23 13 -20 -6 2 -11 -5 -19
-17 -21 -11 -2 -23 -10 -27 -17 -13 -23 -76 -55 -82 -42 -3 8 -5 6 -5 -3 -1
-8 -71 -58 -157 -111 -129 -79 -160 -95 -186 -91 l-31 5 24 18 c13 10 35 24
49 31 14 7 43 24 65 39 22 14 85 53 140 86 55 33 161 97 235 142 74 44 140 81
147 81 6 0 16 6 20 14 8 14 160 95 180 96 7 0 10 -6 8 -12z m-4294 -84 c62
-36 130 -75 149 -88 19 -13 88 -54 153 -92 91 -54 116 -73 113 -87 -4 -14 -2
-16 9 -7 16 13 27 8 192 -91 125 -75 271 -179 272 -192 1 -5 -9 -1 -21 7 -12
9 -30 16 -40 16 -10 0 -18 5 -18 10 0 6 -8 10 -18 10 -9 0 -33 11 -52 24 -39
26 -227 138 -250 149 -8 4 -46 27 -85 52 -38 25 -84 52 -102 61 -18 9 -43 26
-56 38 -14 13 -31 23 -38 23 -15 0 -225 126 -302 181 -41 29 -53 52 -28 52 4
0 59 -30 122 -66z m1827 33 c-14 -12 -31 -39 -38 -59 -13 -44 -19 -49 -90 -72
-30 -10 -77 -29 -104 -42 -43 -20 -51 -21 -64 -7 -8 8 -17 30 -19 48 -3 26 1
37 17 45 16 9 22 8 26 -5 10 -25 21 -17 28 20 4 20 11 33 16 30 5 -3 11 -1 15
5 7 12 136 52 143 45 3 -3 -2 -19 -11 -34 -21 -35 -22 -53 -2 -27 9 12 15 15
15 7 0 -22 28 7 32 32 2 12 14 27 28 34 34 17 39 6 8 -20z m661 -23 c52 -15
58 -29 16 -36 -20 -3 -44 -26 -45 -42 0 -5 7 -3 15 4 8 6 18 10 22 7 14 -8 53
12 53 28 0 20 6 19 81 -11 99 -39 149 -65 149 -75 0 -6 5 -7 10 -4 6 3 10 -4
10 -16 0 -18 2 -19 15 -9 13 10 29 1 98 -54 71 -58 205 -207 207 -228 0 -5 10
-19 22 -33 11 -13 32 -42 45 -65 24 -39 24 -40 4 -40 -12 0 -21 -4 -21 -8 0
-17 13 -21 31 -11 16 8 23 3 45 -33 15 -24 30 -45 35 -48 4 -3 15 -24 24 -48
18 -45 30 -53 37 -24 4 14 135 102 153 102 3 0 15 10 27 22 19 19 22 20 33 5
15 -20 29 -22 22 -3 -5 13 50 63 59 53 3 -3 17 6 32 20 24 22 136 93 148 93 2
0 -1 -10 -7 -22 -7 -13 -15 -30 -19 -38 -4 -8 -29 -32 -56 -52 -48 -37 -49
-37 -54 -15 -5 20 -7 20 -13 3 -5 -12 -13 -16 -25 -11 -14 5 -15 4 -4 -6 15
-16 16 -39 1 -39 -10 0 -110 -63 -211 -131 -15 -11 -32 -19 -38 -19 -5 0 -10
-4 -10 -10 0 -5 -9 -10 -21 -10 -15 0 -19 -5 -15 -17 45 -148 54 -207 62 -382
3 -63 0 -90 -11 -107 -17 -27 -20 -64 -4 -64 5 0 7 -5 3 -12 -4 -6 -9 -35 -10
-65 -2 -30 -9 -73 -14 -95 -10 -34 -13 -38 -27 -27 -8 7 -19 24 -24 36 -5 13
-19 27 -32 32 l-23 9 12 93 c7 52 13 117 13 146 1 41 4 51 15 47 9 -3 12 -12
9 -21 -4 -11 -2 -14 5 -9 7 4 12 18 12 32 0 21 -9 29 -32 25 -5 0 -8 2 -8 7 0
4 -7 52 -15 107 -22 158 -74 306 -157 448 -30 52 -38 75 -34 95 5 20 4 23 -3
12 -9 -13 -13 -11 -27 10 -65 96 -318 291 -461 354 -37 16 -41 21 -30 35 11
14 10 14 -5 2 -27 -20 -104 14 -118 53 -5 15 -7 32 -4 37 3 5 0 8 -7 7 -7 -2
-15 5 -17 15 -4 21 9 21 77 1z m1161 -26 c0 -20 -94 -80 -113 -72 -12 4 -16 2
-12 -7 5 -15 -111 -89 -140 -89 -8 0 -32 -16 -51 -36 -35 -34 -63 -41 -71 -17
-6 16 187 141 312 202 68 34 75 36 75 19z m-3068 -50 c38 -22 65 -45 61 -51
-3 -6 -1 -7 5 -3 11 7 58 -16 141 -68 22 -14 43 -26 46 -26 10 0 141 -89 175
-119 l35 -31 -30 6 c-30 7 -51 17 -115 56 -19 12 -56 33 -81 47 -150 85 -311
187 -335 213 l-29 31 30 -7 c17 -4 60 -25 97 -48z m1789 -20 c18 -35 32 -65
30 -67 -1 -2 2 -7 7 -10 21 -13 83 -133 77 -149 -4 -12 -11 -7 -30 24 -13 21
-22 47 -19 57 3 11 0 17 -9 17 -15 0 -107 152 -107 176 0 29 19 11 51 -48z
m-91 31 c0 -6 -4 -7 -10 -4 -5 3 -10 11 -10 16 0 6 5 7 10 4 6 -3 10 -11 10
-16z m130 1 c0 -5 -4 -10 -10 -10 -5 0 -10 5 -10 10 0 6 5 10 10 10 6 0 10 -4
10 -10z m-75 -96 c20 -37 34 -68 32 -71 -3 -2 -22 27 -43 64 -47 82 -49 88
-36 79 6 -3 27 -36 47 -72z m-853 14 c-3 -43 -1 -51 9 -40 16 15 29 16 29 2 0
-5 -5 -10 -11 -10 -25 0 -180 -120 -264 -204 -49 -49 -93 -89 -96 -89 -3 1 -6
-3 -6 -10 0 -7 -21 -43 -47 -82 -26 -38 -57 -91 -69 -117 -12 -25 -31 -49 -42
-52 -15 -4 -17 -8 -7 -14 10 -7 7 -23 -12 -74 -32 -83 -67 -265 -68 -343 0
-40 -5 -66 -15 -77 -15 -16 -15 -18 0 -18 11 0 17 -8 16 -22 -1 -15 -3 -17 -6
-7 -2 11 -14 16 -33 15 -36 -1 -39 -11 -7 -21 19 -6 19 -8 5 -12 -23 -6 -22
-9 1 -32 13 -13 22 -16 29 -9 12 12 13 8 32 -104 l12 -67 -30 -28 c-16 -15
-33 -38 -37 -50 -10 -35 -23 -27 -35 20 -6 23 -15 58 -21 77 -5 19 -12 112
-15 206 l-7 171 23 6 c24 6 24 6 5 24 -15 13 -19 28 -17 56 3 36 22 54 22 20
0 -12 3 -14 10 -7 13 13 2 46 -12 38 -13 -8 -3 65 18 137 14 46 17 50 40 45
19 -5 24 -3 24 13 0 15 -5 18 -21 14 -19 -5 -20 -3 -14 18 15 48 46 99 60 99
8 0 15 -5 15 -11 0 -12 59 -3 74 11 10 10 -32 25 -61 21 -28 -3 -29 9 -3 59
14 28 27 40 43 41 17 1 18 2 5 6 -16 4 -15 9 11 47 34 49 151 180 163 182 4 1
13 2 19 3 5 0 8 5 5 9 -3 5 7 21 22 35 43 40 176 137 190 137 6 0 21 9 32 20
34 34 45 26 42 -32z m976 -1 c12 -23 38 -70 58 -104 20 -35 32 -63 27 -63 -4
0 -27 35 -50 78 -24 42 -52 92 -64 110 -14 22 -17 30 -7 27 8 -3 24 -25 36
-48z m51 -317 c30 -46 81 -143 78 -147 -6 -6 -207 342 -207 358 0 8 27 -33 60
-91 33 -58 64 -112 69 -120z m737 196 c12 -12 9 -17 -18 -34 -18 -12 -36 -18
-40 -16 -13 8 -9 31 7 44 10 9 15 9 15 1 0 -6 5 -11 11 -11 6 0 9 7 5 15 -7
19 1 19 20 1z m-82 -51 c4 -11 -3 -19 -20 -25 -35 -14 -49 -3 -28 21 21 23 40
24 48 4z m-530 -244 c-2 -2 -9 -1 -17 2 -14 5 -114 172 -117 197 -7 48 7 33
69 -75 38 -66 67 -122 65 -124z m-44 188 c0 -4 18 -37 41 -74 22 -37 38 -69
36 -72 -6 -5 -117 180 -117 194 0 9 39 -38 40 -48z m-816 -4 c-9 -14 -19 -24
-21 -21 -6 6 20 46 30 46 4 0 0 -11 -9 -25z m-157 -47 c-42 -74 -246 -428
-315 -546 -36 -62 -67 -110 -69 -108 -3 2 39 80 93 173 53 92 118 204 143 249
25 44 71 124 101 177 30 53 59 97 63 97 4 0 -3 -19 -16 -42z m56 -131 c-36
-62 -104 -178 -150 -260 -47 -81 -90 -150 -95 -153 -13 -8 -8 1 145 266 72
124 135 235 141 247 6 12 14 19 18 17 4 -3 -23 -55 -59 -117z m1766 114 c11
-7 7 -13 -17 -25 -18 -9 -35 -16 -38 -15 -4 0 -10 -3 -13 -8 -10 -13 -121 -64
-121 -55 0 21 130 112 159 112 9 0 22 -4 30 -9z m-1779 -30 c0 -11 -4 -22 -10
-26 -5 -3 -26 -38 -47 -78 -38 -71 -237 -417 -318 -552 -23 -38 -55 -94 -70
-123 -23 -42 -31 -50 -37 -37 -7 11 5 39 40 98 27 45 86 147 132 226 45 79 90
158 100 175 10 17 44 76 75 131 123 215 135 232 135 186z m-1230 -69 c41 -20
77 -40 80 -43 3 -3 20 -14 38 -24 17 -11 32 -23 32 -27 0 -11 -33 4 -47 21
-17 22 -16 5 2 -22 8 -14 11 -28 6 -36 -11 -17 -32 -5 -25 14 6 15 -24 35 -43
28 -6 -2 -14 1 -18 6 -3 6 -1 11 5 11 6 0 8 5 5 10 -3 6 -16 10 -29 10 -26 0
-138 54 -155 74 -9 11 -4 14 31 14 29 1 65 -10 118 -36z m2285 -53 c21 -33 35
-63 32 -65 -3 -3 -11 5 -18 18 -6 12 -23 42 -36 66 -38 65 -19 50 22 -19z
m-40 -26 c11 -21 19 -42 20 -48 0 -5 5 -14 12 -20 9 -8 86 -136 173 -290 9
-16 43 -75 75 -130 32 -55 67 -116 78 -135 10 -19 23 -39 27 -45 12 -15 70
-123 70 -129 0 -43 -117 144 -378 608 -13 22 -33 57 -44 76 -81 137 -87 150
-69 150 10 0 25 -16 36 -37z m28 -176 c54 -94 116 -203 138 -242 23 -38 51
-88 64 -110 37 -67 61 -107 100 -173 20 -35 35 -66 32 -68 -3 -3 -34 46 -70
108 -35 62 -124 217 -197 343 -186 322 -183 315 -173 315 4 0 52 -78 106 -173z
m-2017 112 c82 -50 134 -96 127 -115 -3 -9 -10 -11 -21 -5 -10 5 -31 11 -48
14 -17 3 -49 16 -72 30 -32 21 -39 30 -35 48 4 15 3 20 -5 15 -7 -4 -12 -14
-12 -22 0 -8 -5 -12 -10 -9 -6 4 -8 15 -5 25 3 10 1 21 -5 25 -14 9 -12 35 3
35 7 0 44 -19 83 -41z m2171 -154 c45 -77 90 -156 101 -175 11 -19 54 -95 97
-168 42 -74 74 -136 72 -138 -5 -5 -15 12 -204 341 -63 110 -128 221 -144 246
-16 25 -29 50 -29 55 0 19 31 -27 107 -161z m-1472 -216 c-20 -35 -40 -71 -45
-79 -5 -8 -41 -69 -80 -135 -38 -66 -70 -115 -70 -108 0 15 221 395 227 390 2
-3 -12 -33 -32 -68z m598 34 c-7 -2 -19 -2 -25 0 -7 3 -2 5 12 5 14 0 19 -2
13 -5z m380 -33 c32 -7 57 -14 54 -16 -7 -8 -147 20 -147 29 0 4 8 6 18 3 9
-2 43 -10 75 -16z m-1147 -66 c-4 -9 -9 -15 -11 -12 -3 3 -3 13 1 22 4 9 9 15
11 12 3 -3 3 -13 -1 -22z m988 10 c18 -18 18 -17 10 -38 -7 -17 -34 -22 -34
-6 0 5 -7 7 -15 4 -18 -7 -21 26 -3 44 16 16 23 15 42 -4z m386 -3 c0 -5 -9
-7 -20 -4 -11 3 -20 7 -20 9 0 2 9 4 20 4 11 0 20 -4 20 -9z m111 -17 c5 -3 7
-9 4 -14 -3 -4 4 -6 15 -3 14 4 37 -12 86 -61 36 -36 63 -70 60 -75 -8 -13
-68 -11 -85 3 -12 9 -13 8 -8 -6 5 -14 -4 -19 -47 -28 -29 -6 -81 -24 -115
-40 -35 -17 -69 -30 -77 -30 -7 0 -28 -9 -46 -20 -41 -25 -48 -25 -48 -1 0 21
-25 51 -42 51 -6 0 -4 -8 4 -17 35 -40 31 -58 -19 -86 -27 -15 -41 -27 -33
-27 9 0 6 -6 -9 -14 -43 -24 -115 9 -120 56 -1 7 102 58 118 58 6 0 11 6 11
14 0 8 16 35 35 60 19 26 35 57 35 71 0 14 5 25 10 25 6 0 10 14 10 31 l0 31
48 -7 c26 -4 50 -9 55 -12 4 -2 5 -24 3 -48 -5 -52 15 -80 33 -46 7 13 8 22 1
26 -18 11 -12 55 8 55 41 0 111 -32 118 -53 6 -18 8 -19 13 -6 5 15 9 16 44 2
20 -8 37 -21 37 -27 0 -8 13 -13 32 -13 l32 0 -45 39 c-24 21 -79 56 -121 77
-43 21 -75 40 -73 43 7 6 63 1 76 -8z m-361 -4 c0 -5 -2 -10 -4 -10 -3 0 -8 5
-11 10 -3 6 -1 10 4 10 6 0 11 -4 11 -10z m-1170 -67 c-13 -21 -34 -58 -48
-83 -32 -58 -52 -87 -52 -75 0 14 112 206 118 201 2 -3 -6 -22 -18 -43z m550
17 c0 -5 9 -10 20 -10 17 0 19 -5 13 -32 -5 -26 -4 -30 10 -25 12 4 17 1 17
-11 1 -9 9 -35 20 -57 23 -47 25 -72 8 -78 -7 -2 -10 -8 -6 -12 11 -12 28 5
28 27 l0 22 19 -21 c11 -12 46 -34 77 -49 51 -25 67 -28 151 -27 52 1 100 6
107 12 16 13 26 4 26 -22 0 -15 -5 -18 -21 -14 -12 3 -22 0 -26 -9 -4 -12 -24
-13 -103 -9 -54 3 -111 10 -126 15 -15 6 -33 9 -41 6 -7 -3 -12 0 -10 7 1 7
-16 14 -43 18 -25 4 -56 10 -70 13 -14 3 -59 8 -100 11 -75 5 -237 54 -233 72
0 4 4 23 6 41 3 19 7 35 9 36 54 37 104 66 114 66 7 0 18 -8 23 -17 7 -13 10
-14 11 -4 0 12 36 51 47 51 2 0 -1 -9 -7 -20 -9 -17 -8 -20 11 -20 15 0 19 -5
15 -15 -3 -8 0 -15 7 -15 7 0 18 -9 25 -20 7 -12 17 -18 22 -15 10 6 -22 66
-47 87 -14 11 -13 13 8 19 35 10 39 10 39 -1z m630 -18 c0 -19 -60 -101 -96
-130 -59 -49 -62 -38 -5 17 28 27 51 54 51 60 0 24 21 61 35 61 8 0 15 -4 15
-8z m-1211 -180 c-22 -37 -49 -86 -61 -110 -14 -27 -27 -41 -36 -37 -9 3 -12
-1 -8 -13 6 -17 -125 -252 -175 -316 -29 -36 -40 -16 -12 22 10 15 32 53 48
84 17 32 36 58 43 58 6 0 12 9 12 21 0 18 26 68 89 169 22 35 67 117 93 167
16 31 25 40 34 32 10 -8 3 -26 -27 -77z m287 47 c3 -6 1 -15 -6 -19 -16 -10
-52 -1 -44 11 3 5 10 7 15 4 5 -4 9 -1 9 4 0 14 17 14 26 0z m1808 -158 c36
-63 64 -116 62 -118 -2 -3 -11 6 -19 19 -24 38 -113 191 -126 218 -34 65 21
-13 83 -119z m-1819 109 c3 -5 -4 -6 -15 -3 -11 3 -22 9 -25 13 -3 5 4 6 15 3
11 -3 22 -9 25 -13z m-376 -45 c-13 -25 -28 -45 -32 -45 -5 0 4 22 20 49 34
62 45 58 12 -4z m65 -114 c-36 -62 -68 -110 -71 -108 -2 3 26 58 63 122 38 65
70 113 71 108 2 -5 -26 -60 -63 -122z m2010 31 c27 -48 65 -113 84 -145 19
-31 33 -60 30 -63 -3 -3 -36 48 -73 113 -37 65 -76 133 -87 151 -11 17 -16 32
-11 32 4 0 30 -39 57 -88z m42 42 c5 -19 12 -34 16 -32 9 4 107 -161 108 -179
0 -33 -24 -4 -84 100 -77 133 -83 147 -64 147 8 0 19 -16 24 -36z m-2203 -109
c-21 -36 -39 -62 -41 -57 -3 11 69 135 75 128 3 -2 -13 -34 -34 -71z m2427
-171 c0 -3 -4 -3 -9 0 -10 6 -51 82 -51 94 0 8 60 -85 60 -94z m-2375 36 c-9
-18 -19 -30 -22 -27 -3 3 3 19 13 36 23 39 30 32 9 -9z m-143 -17 c-13 -32
-64 -114 -69 -110 -5 6 63 127 72 127 2 0 1 -8 -3 -17z m2471 -33 c9 -15 17
-38 17 -50 0 -11 4 -19 9 -16 5 4 20 -13 33 -36 14 -24 61 -107 106 -185 45
-78 82 -145 82 -148 0 -3 -50 -4 -110 -3 -61 2 -110 7 -110 12 0 5 37 8 82 8
45 -1 85 1 90 4 5 3 1 15 -7 27 -8 12 -15 29 -15 39 0 9 -6 21 -14 25 -18 11
-48 71 -41 83 3 6 -1 10 -10 10 -8 0 -19 8 -22 18 -4 9 -29 53 -55 97 -26 44
-48 90 -48 103 0 13 -4 21 -9 17 -6 -3 -15 3 -20 14 -18 32 23 15 42 -19z
m-37 -64 c14 -26 21 -45 15 -42 -12 8 -61 95 -61 110 0 14 14 -6 46 -68z
m-2334 42 c-7 -7 -12 -8 -12 -2 0 14 12 26 19 19 2 -3 -1 -11 -7 -17z m2433
12 c3 -5 1 -10 -4 -10 -6 0 -11 5 -11 10 0 6 2 10 4 10 3 0 8 -4 11 -10z m115
-200 c46 -80 92 -157 102 -172 11 -16 15 -28 10 -28 -6 0 -30 35 -55 78 -82
141 -91 157 -107 187 -9 17 -26 46 -38 65 -24 38 -31 67 -8 35 7 -11 51 -85
96 -165z m-2596 105 c-36 -62 -41 -52 -6 13 15 28 28 47 30 42 2 -5 -9 -30
-24 -55z m-156 -44 c-13 -22 -26 -41 -30 -41 -4 0 5 20 19 45 34 55 43 52 11
-4z m2577 19 c3 -5 1 -10 -4 -10 -6 0 -11 5 -11 10 0 6 2 10 4 10 3 0 8 -4 11
-10z m-2501 -8 c7 -11 -31 -58 -40 -49 -4 4 -2 18 4 32 11 25 26 32 36 17z
m46 -32 c0 -5 -2 -10 -4 -10 -3 0 -8 5 -11 10 -3 6 -1 10 4 10 6 0 11 -4 11
-10z m2529 -91 c33 -56 58 -106 55 -110 -3 -5 -87 -8 -187 -7 l-182 3 178 2
c97 2 177 7 177 11 0 4 -12 27 -26 52 -14 25 -39 69 -56 98 -16 28 -27 52 -24
52 3 0 32 -46 65 -101z m-2575 18 c-14 -26 -31 -50 -37 -54 -6 -4 2 16 17 43
16 27 31 53 33 57 3 5 7 6 9 4 2 -2 -7 -25 -22 -50z m-44 32 c0 -16 -20 -51
-43 -76 -11 -13 -17 -23 -13 -23 4 0 -4 -20 -18 -44 -14 -25 -26 -49 -26 -54
0 -5 82 -10 197 -10 112 -1 201 -6 206 -11 6 -6 -72 -10 -222 -11 -127 0 -231
3 -231 7 0 5 11 25 25 45 14 20 25 39 25 42 0 2 18 36 41 75 37 65 59 87 59
60z m-144 -135 l-75 -129 367 -5 367 -5 -368 -5 c-203 -3 -373 -3 -378 0 -4 3
9 35 30 70 20 36 57 98 80 138 24 41 45 72 47 69 3 -2 -29 -62 -70 -133z m134
-24 c12 -8 9 -10 -13 -10 -16 0 -26 4 -22 10 8 12 16 12 35 0z m47 -6 c-3 -3
-12 -4 -19 -1 -8 3 -5 6 6 6 11 1 17 -2 13 -5z m66 -1 c-7 -2 -19 -2 -25 0 -7
3 -2 5 12 5 14 0 19 -2 13 -5z m50 0 c-7 -2 -19 -2 -25 0 -7 3 -2 5 12 5 14 0
19 -2 13 -5z m105 0 c-15 -2 -42 -2 -60 0 -18 2 -6 4 27 4 33 0 48 -2 33 -4z
m445 0 c-72 -2 -194 -2 -270 0 -76 1 -16 3 132 3 149 0 211 -2 138 -3z m180 0
c-7 -2 -21 -2 -30 0 -10 3 -4 5 12 5 17 0 24 -2 18 -5z m640 0 c-111 -2 -295
-2 -410 0 -114 1 -23 2 202 2 226 0 319 -1 208 -2z m650 0 c-73 -2 -193 -2
-265 0 -73 1 -14 3 132 3 146 0 205 -2 133 -3z m-1782 -61 c-7 -2 -19 -1 -29
3 -14 5 -14 7 -2 15 9 5 20 4 28 -3 10 -8 11 -12 3 -15z m113 13 c4 -11 -2
-15 -24 -15 -46 0 -38 20 11 29 4 0 9 -6 13 -14z m279 6 c20 -1 37 -5 37 -11
0 -6 -42 -10 -107 -10 -67 0 -103 4 -97 9 9 9 82 18 114 14 8 -1 32 -2 53 -2z
m857 -8 c0 -9 -99 -12 -400 -12 -352 -1 -414 2 -396 20 2 2 182 4 400 4 298 0
396 -3 396 -12z m784 6 c58 0 108 -5 111 -9 3 -5 -176 -9 -400 -9 -237 0 -405
3 -405 9 0 5 120 9 282 10 155 0 284 2 286 5 3 2 8 2 12 0 4 -3 55 -5 114 -6z
m-2084 -9 c0 -5 -4 -10 -10 -10 -5 0 -10 5 -10 10 0 6 5 10 10 10 6 0 10 -4
10 -10z m200 0 c0 -5 -4 -10 -10 -10 -5 0 -10 5 -10 10 0 6 5 10 10 10 6 0 10
-4 10 -10z m1175 0 c4 -6 -6 -10 -24 -10 -16 0 -33 5 -36 10 -4 6 6 10 24 10
16 0 33 -4 36 -10z m-1128 -6 c-3 -3 -12 -4 -19 -1 -8 3 -5 6 6 6 11 1 17 -2
13 -5z m2278 -24 l16 -30 -148 2 -148 2 137 6 c119 4 136 7 128 20 -5 8 -10
18 -10 23 0 15 10 6 25 -23z m-2208 -27 c-20 -2 -52 -2 -70 0 -17 2 0 4 38 4
39 0 53 -2 32 -4z m176 0 c-18 -2 -48 -2 -65 0 -18 2 -4 4 32 4 36 0 50 -2 33
-4z m134 1 c-3 -3 -12 -4 -19 -1 -8 3 -5 6 6 6 11 1 17 -2 13 -5z m191 -1
c-26 -2 -71 -2 -100 0 -29 2 -8 3 47 3 55 0 79 -1 53 -3z m130 0 c-16 -2 -40
-2 -55 0 -16 2 -3 4 27 4 30 0 43 -2 28 -4z m295 0 c-40 -2 -107 -2 -150 0
-43 1 -10 3 72 3 83 0 118 -2 78 -3z m135 0 c-10 -2 -26 -2 -35 0 -10 3 -2 5
17 5 19 0 27 -2 18 -5z m105 0 c-7 -2 -21 -2 -30 0 -10 3 -4 5 12 5 17 0 24
-2 18 -5z m75 0 c-10 -2 -26 -2 -35 0 -10 3 -2 5 17 5 19 0 27 -2 18 -5z m264
-4 c-51 -5 -118 -4 -150 0 -45 7 -26 9 93 8 147 0 148 0 57 -8z m131 4 c-7 -2
-19 -2 -25 0 -7 3 -2 5 12 5 14 0 19 -2 13 -5z m215 0 c-38 -2 -98 -2 -135 0
-38 2 -7 3 67 3 74 0 105 -1 68 -3z m-1725 -89 c42 -4 74 -11 71 -16 -3 -4
-10 -5 -16 -2 -7 5 -9 2 -6 -7 20 -53 20 -59 -7 -69 -21 -8 -40 -2 -121 38
-87 43 -93 48 -67 53 41 9 61 10 146 3z m1167 -8 c0 -18 -14 -34 -26 -29 -8 3
-14 -1 -14 -11 0 -23 -181 -108 -197 -92 -3 2 -23 -5 -46 -17 -26 -13 -60 -21
-94 -22 -29 0 -53 -3 -53 -6 0 -4 -9 -9 -20 -12 -11 -3 -20 -1 -20 4 0 5 -12
9 -26 9 -14 0 -23 -4 -19 -10 4 -6 -42 -10 -129 -10 -81 0 -136 4 -136 10 0 5
-7 7 -15 4 -8 -4 -15 -1 -15 5 0 6 -11 8 -30 5 -17 -4 -36 -2 -43 5 -8 6 -18
7 -22 3 -5 -4 -5 -2 -1 5 4 7 14 9 24 6 14 -5 15 -3 5 7 -10 11 -9 18 9 37 16
17 18 23 7 23 -8 0 -20 -5 -27 -12 -9 -9 -12 -8 -12 4 0 16 -28 33 -38 23 -3
-3 3 -15 14 -26 19 -21 19 -22 -2 -15 -18 6 -20 3 -16 -23 l4 -30 -87 24 c-88
25 -113 35 -81 35 9 0 21 11 28 25 8 18 15 22 27 15 13 -6 21 -3 30 12 9 14
16 17 23 10 6 -6 16 -8 24 -5 7 2 48 -3 91 -12 43 -9 125 -19 183 -22 73 -4
110 -10 123 -21 15 -14 21 -10 18 10 -1 8 9 11 116 28 40 6 76 9 82 6 5 -3 11
-1 13 6 2 6 20 11 39 11 19 0 37 5 41 11 14 22 76 34 171 35 53 1 97 -1 97 -3z
m45 -6 c-3 -5 -11 -10 -16 -10 -6 0 -7 5 -4 10 3 6 11 10 16 10 6 0 7 -4 4
-10z m-1075 -20 c12 -8 9 -10 -12 -10 -16 0 -28 5 -28 10 0 13 20 13 40 0z
m115 -199 c-3 -11 1 -25 10 -34 17 -17 22 -102 5 -92 -5 3 -10 -1 -10 -9 0 -8
7 -19 16 -24 25 -14 13 -47 -16 -47 -16 0 -26 -7 -28 -19 -3 -15 -1 -16 16 -7
28 15 29 15 36 -16 5 -17 3 -29 -6 -34 -45 -29 -70 30 -67 156 2 124 7 145 31
145 14 0 18 -5 13 -19z m493 -248 c0 -112 3 -207 7 -213 3 -5 2 -10 -3 -10 -5
0 -7 -12 -4 -26 3 -16 -1 -30 -9 -36 -11 -7 -11 -11 -1 -15 17 -7 16 -79 -2
-86 -29 -11 -36 87 -8 110 16 14 16 14 0 9 -16 -5 -18 4 -18 89 0 52 4 95 9
95 20 0 24 43 6 56 -15 12 -17 26 -13 126 3 62 9 122 14 133 8 19 8 19 14 -5
4 -14 7 -116 8 -227z m-371 200 c-3 -10 -5 -4 -5 12 0 17 2 24 5 18 2 -7 2
-21 0 -30z m131 -170 c4 -145 4 -153 -14 -153 -18 -1 -18 -1 -1 -14 15 -12 17
-35 17 -221 l0 -208 -20 18 c-19 17 -21 30 -20 174 0 86 -1 195 -3 244 -3 48
0 90 4 93 5 3 5 13 0 22 -10 20 -4 123 9 136 5 5 7 32 4 60 -4 44 -3 48 7 26
6 -14 14 -94 17 -177z m-278 -93 c0 -5 -5 -10 -11 -10 -5 0 -7 5 -4 10 3 6 8
10 11 10 2 0 4 -4 4 -10z m43 -61 c-6 -6 -7 -29 -1 -60 5 -27 8 -75 6 -107
l-3 -57 -21 34 c-22 33 -22 33 -2 53 16 16 17 22 8 28 -7 5 -19 6 -26 3 -15
-5 -24 93 -9 108 5 6 5 9 -3 9 -7 0 -12 5 -12 10 0 6 11 10 25 10 14 0 24 3
24 8 -4 23 4 23 13 -1 7 -19 7 -32 1 -38z m235 -640 c-2 -163 -4 -188 -18
-192 -14 -4 -16 12 -18 121 -2 92 1 128 10 134 10 6 10 8 1 8 -9 0 -13 18 -13
58 0 51 2 58 20 58 19 0 20 -7 18 -187z m-13 -257 c-5 -14 -8 -14 -15 -2 -5 8
-4 22 3 34 10 19 11 20 15 3 2 -10 1 -26 -3 -35z"/>
<path d="M2240 4349 c0 -5 5 -7 10 -4 6 3 10 8 10 11 0 2 -4 4 -10 4 -5 0 -10
-5 -10 -11z"/>
<path d="M3400 4290 c0 -5 5 -10 10 -10 6 0 10 5 10 10 0 6 -4 10 -10 10 -5 0
-10 -4 -10 -10z"/>
<path d="M3502 4265 c0 -16 2 -22 5 -12 2 9 2 23 0 30 -3 6 -5 -1 -5 -18z"/>
<path d="M3580 4241 c0 -6 4 -13 10 -16 5 -3 8 -22 5 -41 -2 -18 0 -34 5 -34
4 0 16 -3 25 -7 15 -5 16 -3 5 17 -7 12 -10 38 -7 56 5 31 3 34 -19 34 -13 0
-24 -4 -24 -9z"/>
<path d="M3692 4140 c0 -14 2 -19 5 -12 2 6 2 18 0 25 -3 6 -5 1 -5 -13z"/>
<path d="M3800 3991 c0 -6 5 -13 10 -16 6 -3 10 1 10 9 0 9 -4 16 -10 16 -5 0
-10 -4 -10 -9z"/>
<path d="M3804 3929 c-3 -6 -1 -16 5 -22 8 -8 11 -5 11 11 0 24 -5 28 -16 11z"/>
<path d="M4010 3411 c0 -5 5 -13 10 -16 6 -3 10 -2 10 4 0 5 -4 13 -10 16 -5
3 -10 2 -10 -4z"/>
<path d="M2147 4333 c-12 -11 -8 -23 7 -23 8 0 16 7 20 15 5 15 -14 21 -27 8z"/>
<path d="M1815 4060 c-8 -13 4 -32 16 -25 12 8 12 35 0 35 -6 0 -13 -4 -16
-10z"/>
<path d="M1580 3340 c0 -5 5 -10 10 -10 6 0 10 5 10 10 0 6 -4 10 -10 10 -5 0
-10 -4 -10 -10z"/>
<path d="M1545 3260 c3 -5 8 -10 11 -10 2 0 4 5 4 10 0 6 -5 10 -11 10 -5 0
-7 -4 -4 -10z"/>
<path d="M1532 3080 c3 -16 0 -30 -5 -30 -6 0 -8 -2 -5 -5 3 -3 13 -3 22 1 21
8 21 50 0 58 -13 5 -15 1 -12 -24z"/>
<path d="M3305 3270 c3 -5 8 -10 11 -10 2 0 4 5 4 10 0 6 -5 10 -11 10 -5 0
-7 -4 -4 -10z"/>
<path d="M3196 3181 c-4 -7 -5 -15 -2 -18 9 -9 19 4 14 18 -4 11 -6 11 -12 0z"/>
<path d="M3298 3173 c6 -2 18 -2 25 0 6 3 1 5 -13 5 -14 0 -19 -2 -12 -5z"/>
<path d="M3255 3150 c-4 -6 -2 -17 4 -23 15 -15 25 -2 13 19 -7 12 -11 13 -17
4z"/>
<path d="M3040 3030 c0 -5 5 -10 11 -10 5 0 7 5 4 10 -3 6 -8 10 -11 10 -2 0
-4 -4 -4 -10z"/>
<path d="M2330 3171 c0 -14 5 -18 20 -14 16 4 18 8 9 19 -16 20 -29 17 -29 -5z"/>
<path d="M2480 3100 c0 -5 5 -10 10 -10 6 0 10 5 10 10 0 6 -4 10 -10 10 -5 0
-10 -4 -10 -10z"/>
<path d="M2250 2095 c0 -8 2 -15 4 -15 2 0 6 7 10 15 3 8 1 15 -4 15 -6 0 -10
-7 -10 -15z"/>
<path d="M2930 2015 c-14 -37 -13 -44 9 -38 12 3 19 14 19 29 0 35 -16 40 -28
9z"/>
<path d="M2808 2023 c7 -3 16 -2 19 1 4 3 -2 6 -13 5 -11 0 -14 -3 -6 -6z"/>
<path d="M2987 2023 c-4 -3 -7 -11 -7 -17 0 -6 5 -5 12 2 6 6 9 14 7 17 -3 3
-9 2 -12 -2z"/>
<path d="M2765 2010 c4 -6 11 -8 16 -5 14 9 11 15 -7 15 -8 0 -12 -5 -9 -10z"/>
<path d="M2978 1968 c9 -9 15 -9 24 0 9 9 7 12 -12 12 -19 0 -21 -3 -12 -12z"/>
<path d="M2765 1330 c3 -5 8 -10 11 -10 2 0 4 5 4 10 0 6 -5 10 -11 10 -5 0
-7 -4 -4 -10z"/>
<path d="M2767 1199 c4 -13 8 -18 11 -10 2 7 -1 18 -6 23 -8 8 -9 4 -5 -13z"/>
<path d="M2535 1551 c-3 -5 -1 -12 5 -16 5 -3 10 1 10 9 0 18 -6 21 -15 7z"/>
</g>
</svg>
