<?xml version="1.0" encoding="UTF-8" standalone="no"?>
<svg
   width="348.137"
   height="85.417"
   viewBox="0 0 348.137 85.417"
   version="1.1"
   id="svg1056"
   sodipodi:docname="kjssclogo.svg"
   inkscape:version="1.1.1 (3bf5ae0d25, 2021-09-20, custom)"
   xmlns:inkscape="http://www.inkscape.org/namespaces/inkscape"
   xmlns:sodipodi="http://sodipodi.sourceforge.net/DTD/sodipodi-0.dtd"
   xmlns="http://www.w3.org/2000/svg"
   xmlns:svg="http://www.w3.org/2000/svg">
  <sodipodi:namedview
     id="namedview1058"
     pagecolor="#ffffff"
     bordercolor="#666666"
     borderopacity="1.0"
     inkscape:pageshadow="2"
     inkscape:pageopacity="0.0"
     inkscape:pagecheckerboard="0"
     showgrid="false"
     inkscape:zoom="3.9179979"
     inkscape:cx="174.57896"
     inkscape:cy="51.812177"
     inkscape:window-width="1920"
     inkscape:window-height="1046"
     inkscape:window-x="0"
     inkscape:window-y="34"
     inkscape:window-maximized="1"
     inkscape:current-layer="svg1056" />
  <defs
     id="defs967">
    <style
       id="style965">
            .prefix__cls-1{fill:#fff}.prefix__cls-2{fill:#a50c22}
        </style>
    <filter
       inkscape:collect="always"
       style="color-interpolation-filters:sRGB"
       id="filter1438"
       x="-1.0937778"
       y="-1.3290728"
       width="3.1875555"
       height="3.6581456">
      <feGaussianBlur
         inkscape:collect="always"
         stdDeviation="2.1796828"
         id="feGaussianBlur1440" />
    </filter>
  </defs>
  <g
     id="prefix__Group_8161"
     data-name="Group 8161"
     transform="matrix(0.97147739,0,0,0.9951243,-25.62817,-1371.0918)">
    <path
       id="prefix__Path_11793"
       d="M 3.8,42.738 C 3.753,42.568 3.706,42.404 3.654,42.238 L 3.742,42.174 A 0.908,0.908 0 0 0 4.328,41.149 2.074,2.074 0 0 0 4.135,40.405 0.791,0.791 0 0 0 3.719,40.005 0.586,0.586 0 0 0 2.946,40.398 5.589,5.589 0 0 0 2.864,41.165 6.126,6.126 0 0 1 2.817,42.091 2.15,2.15 0 0 1 2.741,42.478 1.207,1.207 0 0 1 0.9,43.143 1.576,1.576 0 0 1 0.314,42.393 2.607,2.607 0 0 1 0.138,40.829 a 1.465,1.465 0 0 1 1,-1.131 h 0.1 c 0.053,0.17 0.1,0.334 0.152,0.5 a 0.551,0.551 0 0 1 -0.1,0.064 1.031,1.031 0 0 0 -0.662,0.914 1.758,1.758 0 0 0 0.357,1.342 0.7,0.7 0 0 0 0.586,0.275 0.586,0.586 0 0 0 0.539,-0.375 1.857,1.857 0 0 0 0.117,-0.5 6.361,6.361 0 0 1 0.047,-0.926 3.744,3.744 0 0 1 0.111,-0.721 1.043,1.043 0 0 1 0.99,-0.849 1.172,1.172 0 0 1 1.1,0.545 2.291,2.291 0 0 1 0.357,0.931 2.115,2.115 0 0 1 0,0.814 1.283,1.283 0 0 1 -1.008,1.031"
       class="prefix__cls-1"
       data-name="Path 11793"
       transform="translate(30.914,1420.678)"
       style="opacity:0;filter:url(#filter1438)" />
    <path
       id="prefix__Path_11807"
       d="m 3.536,49.564 a 1.283,1.283 0 0 1 -0.838,-0.316 1.681,1.681 0 0 1 -0.586,-1.172 1.365,1.365 0 0 1 0.516,-1.248 2.437,2.437 0 0 1 1.33,-0.586 1.312,1.312 0 0 1 0.885,0.205 1.693,1.693 0 0 1 0.715,1.676 1.383,1.383 0 0 1 -0.369,0.738 2.507,2.507 0 0 1 -1.664,0.7 M 4.07,46.808 a 1.992,1.992 0 0 0 -1.26,0.586 0.9,0.9 0 0 0 -0.182,1.043 0.885,0.885 0 0 0 0.9,0.586 1.857,1.857 0 0 0 1.312,-0.586 0.9,0.9 0 0 0 0.193,-1.055 0.943,0.943 0 0 0 -0.949,-0.586"
       class="prefix__cls-1"
       data-name="Path 11807"
       transform="translate(30.08,1417.853)" />
    <path
       id="prefix__Path_11815"
       d="m 3.588,22.137 c 0.082,0.187 0.141,0.352 0.223,0.5 a 0.381,0.381 0 0 0 0.164,0.117 c 0.176,0.082 0.357,0.152 0.586,0.234 C 4.497,23.14 4.444,23.281 4.379,23.439 3.565,23.111 2.791,22.806 2,22.484 l 0.182,-0.445 0.99,0.4 0.035,-0.041 -0.088,-0.2 -0.469,-1.016 a 0.3,0.3 0 0 1 0,-0.281 C 2.714,20.766 2.767,20.62 2.837,20.45 l 0.123,0.246 c 0.123,0.269 0.24,0.539 0.357,0.808 0.082,0.182 0.088,0.182 0.287,0.141 L 4.928,21.358 H 5.21 c -0.082,0.2 -0.141,0.363 -0.211,0.516 A 0.228,0.228 0 0 1 4.841,21.956 L 3.758,22.1 3.6,22.135"
       class="prefix__cls-1"
       data-name="Path 11815"
       transform="translate(30.121,1428.531)" />
    <path
       id="prefix__Path_11824"
       d="m 8.511,14.54 a 1.008,1.008 0 0 1 0.984,0.978 1,1 0 0 1 -0.949,0.955 1.025,1.025 0 0 1 -1,-0.967 0.984,0.984 0 0 1 0.961,-0.967 m -0.111,0.439 a 0.439,0.439 0 0 0 -0.428,0.586 0.779,0.779 0 0 0 0.65,0.463 0.434,0.434 0 0 0 0.41,-0.586 0.779,0.779 0 0 0 -0.633,-0.463"
       class="prefix__cls-1"
       data-name="Path 11824"
       transform="translate(27.822,1430.979)" />
    <path
       id="prefix__Path_11830"
       d="M 7.179,18.906 6.529,18.531 C 6.406,18.461 6.277,18.385 6.148,18.32 a 0.358,0.358 0 0 0 -0.434,0.07 0.381,0.381 0 0 0 0,0.5 A 1.277,1.277 0 0 0 6,19.076 c 0.211,0.129 0.422,0.246 0.639,0.369 L 6.803,19.556 6.58,19.949 5,19.035 5.193,18.678 5.416,18.76 v -0.223 a 0.715,0.715 0 0 1 0.082,-0.422 0.539,0.539 0 0 1 0.791,-0.264 c 0.387,0.2 0.756,0.422 1.172,0.65 l -0.234,0.4"
       class="prefix__cls-1"
       data-name="Path 11830"
       transform="translate(28.879,1429.642)" />
    <g
       id="prefix__Group_8159"
       data-name="Group 8159"
       transform="translate(-173.943,1020.79)">
      <g
         id="prefix__Group_8158"
         data-name="Group 8158">
        <path
           id="prefix__Path_16982"
           d="m 290.337,405.942 -2.964,-8.021 -0.9,-0.1 v -1.339 h 4.245 v 1.339 l -0.845,0.13 1.7,5.316 0.091,0.37 h 0.039 l 0.085,-0.351 1.644,-5.335 -1.014,-0.13 v -1.339 h 3.965 v 1.339 l -0.923,0.1 -2.652,8.021 z"
           class="prefix__cls-2"
           data-name="Path 16982" />
        <path
           id="prefix__Path_16983"
           d="m 305.936,405.942 v -1.332 l 0.982,-0.208 v -6.376 l -0.982,-0.208 v -1.339 h 4.239 v 1.339 l -0.982,0.208 v 6.374 l 0.982,0.208 v 1.332 z"
           class="prefix__cls-2"
           data-name="Path 16983" />
        <path
           id="prefix__Path_16984"
           d="m 319.906,405.942 v -1.332 l 0.994,-0.241 v -6.3 l -0.994,-0.247 v -1.339 h 4.433 a 4.308,4.308 0 0 1 2.268,0.6 4.162,4.162 0 0 1 1.547,1.644 5.067,5.067 0 0 1 0.559,2.421 v 0.149 a 5.067,5.067 0 0 1 -0.559,2.421 4.15,4.15 0 0 1 -1.547,1.642 4.343,4.343 0 0 1 -2.268,0.591 z m 3.275,-1.729 h 1.04 a 1.96,1.96 0 0 0 1.209,-0.364 2.214,2.214 0 0 0 0.739,-1.024 4.338,4.338 0 0 0 0.25,-1.537 v -0.156 a 4.317,4.317 0 0 0 -0.25,-1.534 2.226,2.226 0 0 0 -0.739,-1.021 1.966,1.966 0 0 0 -1.209,-0.363 h -1.04 z"
           class="prefix__cls-2"
           data-name="Path 16984" />
        <path
           id="prefix__Path_16985"
           d="m 341.109,405.942 v -1.332 l 0.982,-0.208 v -1.579 l -2.744,-4.87 -0.987,-0.135 v -1.339 h 4.1 v 1.339 l -0.585,0.1 1.3,2.594 0.149,0.331 h 0.059 l 0.155,-0.312 1.522,-2.613 -0.989,-0.1 v -1.339 h 4.017 v 1.339 l -1,0.135 -2.717,4.687 v 1.76 l 0.988,0.208 v 1.332 z"
           class="prefix__cls-2"
           data-name="Path 16985" />
        <path
           id="prefix__Path_16986"
           d="m 355.93,405.942 v -1.332 l 0.663,-0.1 2.821,-8.033 h 2.47 l 2.827,8.033 0.663,0.1 v 1.332 h -3.536 v -1.332 l 0.618,-0.118 -0.286,-1.027 h -3.042 l -0.274,1.027 0.618,0.118 v 1.332 z m 3.678,-4.075 h 2.074 l -0.923,-2.867 -0.1,-0.331 h -0.039 l -0.11,0.364 z"
           class="prefix__cls-2"
           data-name="Path 16986" />
        <path
           id="prefix__Path_16987"
           d="m 377.692,405.942 -2.964,-8.021 -0.9,-0.1 v -1.339 h 4.244 v 1.339 l -0.846,0.13 1.7,5.316 0.09,0.37 h 0.039 l 0.084,-0.351 1.645,-5.335 -1.014,-0.13 v -1.339 h 3.965 v 1.339 l -0.923,0.1 -2.652,8.021 z"
           class="prefix__cls-2"
           data-name="Path 16987" />
        <path
           id="prefix__Path_16988"
           d="m 393.293,405.942 v -1.332 l 0.981,-0.208 v -6.376 l -0.981,-0.208 v -1.339 h 4.237 v 1.339 l -0.981,0.208 v 6.374 l 0.981,0.208 v 1.332 z"
           class="prefix__cls-2"
           data-name="Path 16988" />
        <path
           id="prefix__Path_16989"
           d="m 407.262,405.942 v -1.332 l 0.981,-0.208 v -6.376 l -0.981,-0.208 v -1.339 h 4.245 v 1.339 l -0.982,0.208 v 2.391 h 3.445 v -2.391 l -0.982,-0.208 v -1.339 h 4.238 v 1.339 l -0.981,0.208 v 6.374 l 0.981,0.208 v 1.332 h -4.238 v -1.33 l 0.982,-0.208 v -2.237 h -3.445 v 2.235 l 0.982,0.208 v 1.332 z"
           class="prefix__cls-2"
           data-name="Path 16989" />
        <path
           id="prefix__Path_16990"
           d="m 425.839,405.942 v -1.332 l 0.663,-0.1 2.821,-8.033 h 2.47 l 2.827,8.033 0.663,0.1 v 1.332 h -3.536 v -1.332 l 0.618,-0.118 -0.286,-1.027 h -3.042 l -0.274,1.027 0.619,0.118 v 1.332 z m 3.678,-4.075 h 2.075 l -0.924,-2.867 -0.1,-0.331 h -0.039 l -0.11,0.364 z"
           class="prefix__cls-2"
           data-name="Path 16990" />
        <path
           id="prefix__Path_16991"
           d="m 444.9,405.942 v -1.332 l 0.982,-0.208 v -6.376 l -0.982,-0.208 v -1.346 h 4.653 a 4.889,4.889 0 0 1 1.951,0.357 2.887,2.887 0 0 1 1.274,1.018 2.71,2.71 0 0 1 0.448,1.562 2.833,2.833 0 0 1 -0.452,1.547 3.32,3.32 0 0 1 -1.238,1.148 3.62,3.62 0 0 1 -1.794,0.426 l -1.579,-0.02 v 1.89 l 0.981,0.208 v 1.332 z m 3.263,-5.18 h 1.417 a 1.518,1.518 0 0 0 1.02,-0.309 1.114,1.114 0 0 0 0.358,-0.894 1.318,1.318 0 0 0 -0.365,-0.972 1.4,1.4 0 0 0 -1.04,-0.367 h -1.39 z m 2.729,5.18 -1.273,-3.692 1.982,-0.675 1.151,2.814 0.9,0.227 v 1.326 z"
           class="prefix__cls-2"
           data-name="Path 16991" />
      </g>
      <path
         id="prefix__Line_1145"
         fill="none"
         stroke="#464749"
         stroke-miterlimit="10"
         stroke-width="0.754px"
         d="M 0,0 H 167.174"
         data-name="Line 1145"
         transform="translate(286.475,415.202)" />
      <path
         id="prefix__Path_16992"
         d="m 295.812,390.5 a 17.666,17.666 0 0 1 -4.917,-0.656 14.637,14.637 0 0 1 -4.42,-2.185 v -5.945 h 3.462 l 0.567,3.85 a 7.678,7.678 0 0 0 2.316,1.083 10.455,10.455 0 0 0 2.992,0.41 6.848,6.848 0 0 0 2.652,-0.453 3.673,3.673 0 0 0 1.643,-1.271 3.3,3.3 0 0 0 0.569,-1.933 3.394,3.394 0 0 0 -0.5,-1.829 4.3,4.3 0 0 0 -1.651,-1.429 14.677,14.677 0 0 0 -3.124,-1.163 22.08,22.08 0 0 1 -4.836,-1.846 8.039,8.039 0 0 1 -2.929,-2.556 6.648,6.648 0 0 1 0.142,-7.189 7.633,7.633 0 0 1 3.133,-2.52 11.157,11.157 0 0 1 4.632,-0.941 14.683,14.683 0 0 1 5.086,0.746 12.151,12.151 0 0 1 3.737,2.041 v 5.557 h -3.391 l -0.639,-3.622 a 6.756,6.756 0 0 0 -1.89,-0.879 9.239,9.239 0 0 0 -2.743,-0.364 5.973,5.973 0 0 0 -2.378,0.444 3.805,3.805 0 0 0 -1.616,1.252 3.186,3.186 0 0 0 -0.586,1.925 2.867,2.867 0 0 0 0.516,1.7 4.466,4.466 0 0 0 1.721,1.322 20.784,20.784 0 0 0 3.266,1.2 15.167,15.167 0 0 1 6.372,3.09 6.486,6.486 0 0 1 2.166,5.023 6.239,6.239 0 0 1 -1.161,3.754 7.534,7.534 0 0 1 -3.267,2.493 12.6,12.6 0 0 1 -4.926,0.889"
         class="prefix__cls-2"
         data-name="Path 16992" />
      <path
         id="prefix__Path_16993"
         d="m 318.922,390.5 a 10.858,10.858 0 0 1 -4.649,-0.968 10.277,10.277 0 0 1 -3.56,-2.724 12.493,12.493 0 0 1 -2.28,-4.154 16.546,16.546 0 0 1 -0.8,-5.254 v -0.391 a 16.482,16.482 0 0 1 0.8,-5.236 12.582,12.582 0 0 1 2.28,-4.162 10.21,10.21 0 0 1 3.56,-2.734 10.83,10.83 0 0 1 4.632,-0.967 11.171,11.171 0 0 1 4.739,0.967 10.107,10.107 0 0 1 3.569,2.734 12.46,12.46 0 0 1 2.254,4.162 16.832,16.832 0 0 1 0.781,5.236 v 0.391 a 16.9,16.9 0 0 1 -0.781,5.254 12.373,12.373 0 0 1 -2.254,4.154 10.173,10.173 0 0 1 -3.569,2.724 11.112,11.112 0 0 1 -4.722,0.968 m 0,-3.551 a 6.043,6.043 0 0 0 3.862,-1.2 7.03,7.03 0 0 0 2.254,-3.346 15.428,15.428 0 0 0 0.737,-5.005 v -0.427 a 14.979,14.979 0 0 0 -0.746,-4.951 7.156,7.156 0 0 0 -2.263,-3.338 6.009,6.009 0 0 0 -3.861,-1.207 5.808,5.808 0 0 0 -3.746,1.207 7.312,7.312 0 0 0 -2.272,3.338 14.683,14.683 0 0 0 -0.762,4.951 v 0.427 a 14.992,14.992 0 0 0 0.762,5 7.2,7.2 0 0 0 2.282,3.354 5.868,5.868 0 0 0 3.753,1.2"
         class="prefix__cls-2"
         data-name="Path 16993" />
      <path
         id="prefix__Path_16994"
         d="m 332.679,390.124 v -2.734 l 2.8,-0.532 v -19.295 l -2.8,-0.532 v -2.752 h 9.213 l 7.579,18.692 h 0.107 l 7.349,-18.692 h 9.318 v 2.752 l -2.822,0.532 v 19.294 l 2.822,0.532 v 2.734 h -10.1 v -2.733 l 2.964,-0.532 v -6.017 l 0.035,-11.308 -0.089,-0.016 -8.006,20.022 H 347.8 l -8.237,-19.916 -0.087,0.019 0.231,10.9 v 6.319 l 3.07,0.532 v 2.734 z"
         class="prefix__cls-2"
         data-name="Path 16994" />
      <path
         id="prefix__Path_16995"
         d="m 367.417,390.124 v -2.734 l 1.882,-0.265 8.555,-22.846 h 4.346 l 8.45,22.846 1.881,0.265 v 2.734 h -8.219 v -2.734 l 1.846,-0.337 -1.367,-4.065 h -9.621 l -1.4,4.065 1.863,0.337 v 2.734 z m 8.928,-10.562 h 7.3 l -3.354,-9.567 -0.23,-0.692 h -0.108 l -0.248,0.727 z"
         class="prefix__cls-2"
         data-name="Path 16995" />
      <path
         id="prefix__Path_16996"
         d="m 394.647,390.124 v -2.734 l 2.822,-0.532 v -19.295 l -2.822,-0.532 v -2.752 h 10.1 v 2.752 l -2.8,0.532 v 19.294 l 2.8,0.532 v 2.734 z"
         class="prefix__cls-2"
         data-name="Path 16996" />
      <path
         id="prefix__Path_16997"
         d="m 413.888,390.124 v -2.734 l 2.8,-0.532 v -5.822 l -7.775,-13.651 -2.343,-0.354 v -2.752 h 9.73 v 2.752 l -2.467,0.319 4.794,9.053 0.39,0.781 0.07,-0.035 0.372,-0.729 5.184,-9.071 -2.929,-0.319 v -2.752 h 9.532 v 2.752 l -2.432,0.354 -7.667,13.3 v 6.177 l 2.822,0.532 v 2.734 z"
         class="prefix__cls-2"
         data-name="Path 16997" />
      <path
         id="prefix__Path_16998"
         d="m 428.532,390.124 v -2.734 l 1.882,-0.265 8.555,-22.846 h 4.349 l 8.45,22.846 1.88,0.265 v 2.734 h -8.218 v -2.734 l 1.846,-0.337 -1.367,-4.065 h -9.621 l -1.4,4.065 1.863,0.337 v 2.734 z m 8.928,-10.562 h 7.3 l -3.354,-9.567 -0.23,-0.692 h -0.108 l -0.248,0.727 z"
         class="prefix__cls-2"
         data-name="Path 16998" />
      <path
         id="prefix__Path_17064"
         fill="#464749"
         d="M 2.555,-2.25 1.782,-3.141 5.906,-7.523 5.924,-7.546 5.168,-7.622 V -8.53 H 8.35 v 0.908 l -0.8,0.158 z M 0.387,0 V -0.9 L 1.319,-1.076 V -7.447 L 0.387,-7.623 V -8.531 H 3.7 v 0.908 l -0.9,0.176 v 6.369 L 3.7,-0.9 V 0 Z M 5.355,0 V -0.9 L 6.111,-0.976 V -0.984 L 3.861,-4.09 4.787,-5.127 7.84,-1.049 8.654,-0.9 V 0 Z m 9.668,0.123 a 3.389,3.389 0 0 1 -1.444,-0.293 2.3,2.3 0 0 1 -1,-0.894 3.05,3.05 0 0 1 -0.407,-1.509 l 0.012,-0.035 h 1.4 a 1.834,1.834 0 0 0 0.381,1.21 1.261,1.261 0 0 0 0.955,0.36 1.3,1.3 0 0 0 0.691,-0.176 1.133,1.133 0 0 0 0.439,-0.5 1.852,1.852 0 0 0 0.15,-0.786 v -4.947 l -1.143,-0.17 v -0.914 h 3.551 v 0.908 l -0.937,0.176 V -2.5 a 3,3 0 0 1 -0.3,1.389 2.135,2.135 0 0 1 -0.894,0.914 2.987,2.987 0 0 1 -1.454,0.32 z m 10.5,0 A 5.823,5.823 0 0 1 23.9,-0.094 4.835,4.835 0 0 1 22.441,-0.815 v -1.962 h 1.143 l 0.188,1.271 a 2.547,2.547 0 0 0 0.765,0.357 3.457,3.457 0 0 0 0.987,0.135 2.26,2.26 0 0 0 0.876,-0.149 1.213,1.213 0 0 0 0.542,-0.419 1.09,1.09 0 0 0 0.188,-0.639 1.119,1.119 0 0 0 -0.164,-0.6 1.424,1.424 0 0 0 -0.546,-0.479 4.831,4.831 0 0 0 -1.031,-0.384 7.308,7.308 0 0 1 -1.6,-0.609 2.653,2.653 0 0 1 -0.967,-0.844 2.056,2.056 0 0 1 -0.325,-1.16 2.051,2.051 0 0 1 0.372,-1.213 2.521,2.521 0 0 1 1.034,-0.832 3.684,3.684 0 0 1 1.529,-0.311 4.845,4.845 0 0 1 1.679,0.246 4.022,4.022 0 0 1 1.233,0.674 v 1.834 h -1.115 l -0.211,-1.2 a 2.24,2.24 0 0 0 -0.624,-0.29 3.044,3.044 0 0 0 -0.905,-0.12 1.969,1.969 0 0 0 -0.785,0.146 1.254,1.254 0 0 0 -0.533,0.413 1.054,1.054 0 0 0 -0.193,0.636 0.949,0.949 0 0 0 0.17,0.563 1.481,1.481 0 0 0 0.568,0.437 6.925,6.925 0 0 0 1.078,0.4 5.011,5.011 0 0 1 2.1,1.02 2.143,2.143 0 0 1 0.715,1.658 2.058,2.058 0 0 1 -0.384,1.239 2.484,2.484 0 0 1 -1.078,0.823 4.16,4.16 0 0 1 -1.624,0.297 z m 6.861,0 a 2.9,2.9 0 0 1 -1.57,-0.41 2.686,2.686 0 0 1 -1.008,-1.14 3.822,3.822 0 0 1 -0.352,-1.679 v -0.123 a 3.789,3.789 0 0 1 0.352,-1.67 2.729,2.729 0 0 1 1.008,-1.143 2.849,2.849 0 0 1 1.559,-0.416 2.887,2.887 0 0 1 1.57,0.413 2.709,2.709 0 0 1 1.008,1.145 3.8,3.8 0 0 1 0.349,1.671 v 0.123 a 3.822,3.822 0 0 1 -0.352,1.679 2.692,2.692 0 0 1 -1,1.14 2.877,2.877 0 0 1 -1.563,0.41 z m 0,-1.137 a 1.223,1.223 0 0 0 0.816,-0.266 1.594,1.594 0 0 0 0.478,-0.738 3.416,3.416 0 0 0 0.158,-1.087 v -0.123 a 3.368,3.368 0 0 0 -0.158,-1.078 1.6,1.6 0 0 0 -0.48,-0.738 1.235,1.235 0 0 0 -0.82,-0.27 1.218,1.218 0 0 0 -0.809,0.27 1.584,1.584 0 0 0 -0.478,0.738 3.427,3.427 0 0 0 -0.155,1.078 v 0.123 a 3.475,3.475 0 0 0 0.155,1.087 1.555,1.555 0 0 0 0.48,0.738 1.247,1.247 0 0 0 0.814,0.266 z M 36.082,0 v -0.9 l 0.885,-0.176 v -4.18 L 36.035,-5.432 V -6.34 h 2.285 l 0.07,0.832 a 2.182,2.182 0 0 1 0.776,-0.7 2.259,2.259 0 0 1 1.081,-0.249 1.957,1.957 0 0 1 1.063,0.278 1.72,1.72 0 0 1 0.671,0.841 2.242,2.242 0 0 1 0.771,-0.82 2.071,2.071 0 0 1 1.122,-0.3 1.86,1.86 0 0 1 1.5,0.65 3,3 0 0 1 0.548,1.969 v 2.76 l 0.885,0.176 V 0 h -3.19 v -0.9 l 0.832,-0.176 v -2.768 a 1.784,1.784 0 0 0 -0.27,-1.125 0.973,0.973 0 0 0 -0.791,-0.322 1.089,1.089 0 0 0 -0.8,0.311 1.482,1.482 0 0 0 -0.407,0.791 v 3.111 l 0.8,0.176 V 0 h -3.073 v -0.9 l 0.8,-0.176 v -2.768 a 1.763,1.763 0 0 0 -0.275,-1.11 0.97,0.97 0 0 0 -0.8,-0.337 1.406,1.406 0 0 0 -0.729,0.176 1.275,1.275 0 0 0 -0.472,0.5 v 3.539 L 39.258,-0.9 V 0 Z m 13.512,0.123 a 2.136,2.136 0 0 1 -1.506,-0.5 1.774,1.774 0 0 1 -0.539,-1.371 1.736,1.736 0 0 1 0.328,-1.049 2.136,2.136 0 0 1 0.961,-0.706 4.112,4.112 0 0 1 1.535,-0.255 h 0.967 v -0.533 a 1.079,1.079 0 0 0 -0.3,-0.8 1.193,1.193 0 0 0 -0.876,-0.3 1.938,1.938 0 0 0 -0.58,0.079 1.527,1.527 0 0 0 -0.451,0.226 L 49,-4.23 H 47.912 L 47.9,-5.795 a 4.183,4.183 0 0 1 1.043,-0.483 4.286,4.286 0 0 1 1.277,-0.179 2.927,2.927 0 0 1 1.9,0.565 1.969,1.969 0 0 1 0.694,1.62 v 3.047 q 0,0.123 0.015,0.24 l 0.645,0.082 V 0 h -1.923 q -0.059,-0.205 -0.108,-0.4 a 2.993,2.993 0 0 1 -0.073,-0.387 2.621,2.621 0 0 1 -0.765,0.653 2.008,2.008 0 0 1 -1.011,0.257 z m 0.334,-1.143 a 1.73,1.73 0 0 0 0.832,-0.208 1.479,1.479 0 0 0 0.58,-0.524 v -1.06 h -0.984 a 1.436,1.436 0 0 0 -1,0.308 0.945,0.945 0 0 0 -0.337,0.718 0.7,0.7 0 0 0 0.234,0.568 1.013,1.013 0 0 0 0.675,0.198 z M 54.158,0 v -0.9 l 0.879,-0.176 v -4.18 L 54.105,-5.432 V -6.34 h 2.408 v 5.262 l 0.873,0.176 V 0 Z m 0.82,-7.775 v -1.366 h 1.535 v 1.365 z m 4.67,10.336 A 2.9,2.9 0 0 1 59.229,2.526 2.964,2.964 0 0 1 58.816,2.438 L 58.98,1.33 q 0.105,0.018 0.255,0.029 0.15,0.011 0.237,0.012 A 0.884,0.884 0 0 0 60.093,1.14 1.669,1.669 0 0 0 60.5,0.5 l 0.193,-0.51 -2.164,-5.316 -0.738,-0.105 V -6.34 h 3.07 v 0.908 l -0.779,0.117 1.1,2.953 0.193,0.551 h 0.035 l 1.3,-3.51 -0.779,-0.111 V -6.34 h 2.912 v 0.908 l -0.686,0.1 -2.452,6.287 a 3.794,3.794 0 0 1 -0.437,0.812 1.911,1.911 0 0 1 -0.656,0.58 2,2 0 0 1 -0.964,0.214 z m 7.711,-2.438 a 2.136,2.136 0 0 1 -1.506,-0.5 1.774,1.774 0 0 1 -0.539,-1.371 1.736,1.736 0 0 1 0.328,-1.049 2.136,2.136 0 0 1 0.958,-0.703 4.112,4.112 0 0 1 1.535,-0.255 h 0.967 v -0.533 a 1.079,1.079 0 0 0 -0.3,-0.8 1.193,1.193 0 0 0 -0.876,-0.3 1.938,1.938 0 0 0 -0.58,0.079 1.527,1.527 0 0 0 -0.451,0.226 l -0.135,0.855 h -1.082 l -0.012,-1.564 a 4.183,4.183 0 0 1 1.043,-0.483 4.286,4.286 0 0 1 1.277,-0.179 2.927,2.927 0 0 1 1.9,0.565 1.969,1.969 0 0 1 0.694,1.62 v 3.047 q 0,0.123 0.015,0.24 L 71.24,-0.9 V 0 h -1.924 q -0.059,-0.205 -0.108,-0.4 a 2.993,2.993 0 0 1 -0.073,-0.387 2.621,2.621 0 0 1 -0.765,0.653 2.008,2.008 0 0 1 -1.011,0.257 z m 0.334,-1.143 a 1.73,1.73 0 0 0 0.832,-0.208 1.479,1.479 0 0 0 0.58,-0.524 v -1.06 h -0.984 a 1.436,1.436 0 0 0 -1,0.308 0.945,0.945 0 0 0 -0.337,0.718 0.7,0.7 0 0 0 0.234,0.568 1.013,1.013 0 0 0 0.675,0.198 z M 78.9,0.123 a 4.111,4.111 0 0 1 -2.153,-0.536 3.5,3.5 0 0 1 -1.365,-1.5 5.041,5.041 0 0 1 -0.472,-2.241 v -0.217 a 5,5 0 0 1 0.469,-2.212 3.642,3.642 0 0 1 1.338,-1.517 3.813,3.813 0 0 1 2.083,-0.554 4.78,4.78 0 0 1 1.576,0.252 3.921,3.921 0 0 1 1.266,0.709 v 1.969 H 80.52 L 80.368,-7.042 A 2.161,2.161 0 0 0 79.94,-7.282 2.5,2.5 0 0 0 79.427,-7.434 3.262,3.262 0 0 0 78.821,-7.487 2.222,2.222 0 0 0 77.5,-7.1 a 2.411,2.411 0 0 0 -0.835,1.084 4.274,4.274 0 0 0 -0.287,1.635 v 0.229 a 4.175,4.175 0 0 0 0.3,1.673 2.383,2.383 0 0 0 0.876,1.075 2.437,2.437 0 0 0 1.368,0.375 3.261,3.261 0 0 0 0.765,-0.091 3.009,3.009 0 0 0 0.665,-0.237 l 0.158,-1.2 h 1.113 V -0.6 a 4.31,4.31 0 0 1 -1.2,0.521 5.666,5.666 0 0 1 -1.523,0.202 z m 6.65,0 a 2.9,2.9 0 0 1 -1.57,-0.41 2.686,2.686 0 0 1 -1.008,-1.14 3.822,3.822 0 0 1 -0.352,-1.679 v -0.123 a 3.789,3.789 0 0 1 0.352,-1.67 2.729,2.729 0 0 1 1.008,-1.143 2.849,2.849 0 0 1 1.559,-0.416 2.887,2.887 0 0 1 1.57,0.413 2.709,2.709 0 0 1 1.004,1.145 3.8,3.8 0 0 1 0.352,1.676 v 0.123 a 3.822,3.822 0 0 1 -0.352,1.679 2.692,2.692 0 0 1 -1,1.14 2.877,2.877 0 0 1 -1.566,0.405 z m 0,-1.137 a 1.223,1.223 0 0 0 0.812,-0.267 1.594,1.594 0 0 0 0.478,-0.738 3.416,3.416 0 0 0 0.158,-1.087 v -0.123 a 3.368,3.368 0 0 0 -0.158,-1.078 1.6,1.6 0 0 0 -0.48,-0.738 1.235,1.235 0 0 0 -0.82,-0.27 1.218,1.218 0 0 0 -0.809,0.27 1.584,1.584 0 0 0 -0.478,0.738 3.427,3.427 0 0 0 -0.155,1.078 v 0.123 a 3.475,3.475 0 0 0 0.155,1.087 1.555,1.555 0 0 0 0.48,0.738 1.247,1.247 0 0 0 0.814,0.267 z M 89.086,0 v -0.9 l 0.885,-0.176 v -6.981 l -0.937,-0.176 v -0.908 h 2.408 v 8.063 l 0.885,0.176 V 0 Z m 3.826,0 v -0.9 l 0.885,-0.176 V -8.057 L 92.86,-8.233 v -0.908 h 2.408 v 8.063 l 0.885,0.176 V 0 Z m 6.762,0.123 a 2.964,2.964 0 0 1 -1.562,-0.4 2.734,2.734 0 0 1 -1.031,-1.11 3.486,3.486 0 0 1 -0.366,-1.623 v -0.246 a 3.651,3.651 0 0 1 0.36,-1.649 2.832,2.832 0 0 1 0.993,-1.137 2.578,2.578 0 0 1 1.441,-0.413 2.789,2.789 0 0 1 1.444,0.346 2.2,2.2 0 0 1 0.882,0.981 3.564,3.564 0 0 1 0.3,1.526 v 0.844 h -3.891 l -0.012,0.029 a 2.285,2.285 0 0 0 0.208,0.885 1.459,1.459 0 0 0 0.527,0.609 1.5,1.5 0 0 0 0.835,0.223 2.952,2.952 0 0 0 0.938,-0.141 2.882,2.882 0 0 0 0.779,-0.4 l 0.463,0.926 a 3.212,3.212 0 0 1 -0.955,0.533 3.858,3.858 0 0 1 -1.353,0.217 z M 98.268,-3.8 h 2.455 v -0.152 a 1.947,1.947 0 0 0 -0.126,-0.729 1.029,1.029 0 0 0 -0.393,-0.489 1.206,1.206 0 0 0 -0.677,-0.176 1.026,1.026 0 0 0 -0.627,0.2 1.4,1.4 0 0 0 -0.431,0.542 2.65,2.65 0 0 0 -0.22,0.776 z m 7.594,6.357 a 4.867,4.867 0 0 1 -1.04,-0.126 4.153,4.153 0 0 1 -1,-0.349 l 0.3,-1.078 a 4.456,4.456 0 0 0 0.826,0.275 3.762,3.762 0 0 0 0.855,0.105 1.312,1.312 0 0 0 1.063,-0.4 1.715,1.715 0 0 0 0.334,-1.13 v -0.5 a 1.971,1.971 0 0 1 -0.7,0.571 2.094,2.094 0 0 1 -0.926,0.2 2.286,2.286 0 0 1 -1.333,-0.387 2.435,2.435 0 0 1 -0.855,-1.084 4.112,4.112 0 0 1 -0.3,-1.617 v -0.123 a 4.84,4.84 0 0 1 0.3,-1.77 2.653,2.653 0 0 1 0.85,-1.178 2.117,2.117 0 0 1 1.321,-0.422 2.045,2.045 0 0 1 1.008,0.237 2.119,2.119 0 0 1 0.727,0.677 l 0.111,-0.8 h 1.271 v 6.2 a 2.925,2.925 0 0 1 -0.334,1.433 2.286,2.286 0 0 1 -0.967,0.938 3.236,3.236 0 0 1 -1.512,0.332 z m 0.117,-3.6 a 1.389,1.389 0 0 0 0.729,-0.182 1.39,1.39 0 0 0 0.5,-0.527 v -2.824 a 1.478,1.478 0 0 0 -0.5,-0.524 1.332,1.332 0 0 0 -0.721,-0.19 1.16,1.16 0 0 0 -0.8,0.278 1.638,1.638 0 0 0 -0.463,0.773 4,4 0 0 0 -0.149,1.151 v 0.123 a 2.553,2.553 0 0 0 0.337,1.4 1.18,1.18 0 0 0 1.067,0.522 z m 2.5,-4.184 -0.621,-1.113 h 1.582 v 0.908 z m 4.43,5.35 a 2.964,2.964 0 0 1 -1.562,-0.4 2.734,2.734 0 0 1 -1.031,-1.11 3.486,3.486 0 0 1 -0.366,-1.623 v -0.246 a 3.651,3.651 0 0 1 0.36,-1.649 2.832,2.832 0 0 1 0.993,-1.137 2.578,2.578 0 0 1 1.441,-0.413 2.789,2.789 0 0 1 1.444,0.346 2.2,2.2 0 0 1 0.882,0.981 3.564,3.564 0 0 1 0.3,1.526 v 0.844 h -3.89 l -0.012,0.029 a 2.285,2.285 0 0 0 0.208,0.885 1.459,1.459 0 0 0 0.527,0.609 1.5,1.5 0 0 0 0.835,0.223 2.952,2.952 0 0 0 0.938,-0.141 2.882,2.882 0 0 0 0.779,-0.4 l 0.463,0.926 a 3.212,3.212 0 0 1 -0.955,0.533 3.858,3.858 0 0 1 -1.353,0.217 z M 111.5,-3.8 h 2.455 v -0.152 a 1.947,1.947 0 0 0 -0.126,-0.729 1.029,1.029 0 0 0 -0.393,-0.489 1.206,1.206 0 0 0 -0.677,-0.176 1.026,1.026 0 0 0 -0.627,0.2 1.4,1.4 0 0 0 -0.431,0.542 2.65,2.65 0 0 0 -0.22,0.776 z m 10.621,3.923 a 2.9,2.9 0 0 1 -1.57,-0.41 2.686,2.686 0 0 1 -1.008,-1.14 3.822,3.822 0 0 1 -0.352,-1.679 v -0.123 a 3.789,3.789 0 0 1 0.352,-1.67 2.729,2.729 0 0 1 1.008,-1.143 2.849,2.849 0 0 1 1.559,-0.416 2.887,2.887 0 0 1 1.57,0.413 2.709,2.709 0 0 1 1.008,1.14 3.8,3.8 0 0 1 0.352,1.676 v 0.123 a 3.822,3.822 0 0 1 -0.352,1.679 2.692,2.692 0 0 1 -1,1.14 2.877,2.877 0 0 1 -1.567,0.41 z m 0,-1.137 a 1.223,1.223 0 0 0 0.812,-0.267 1.594,1.594 0 0 0 0.478,-0.738 3.416,3.416 0 0 0 0.158,-1.087 v -0.123 a 3.368,3.368 0 0 0 -0.158,-1.078 1.6,1.6 0 0 0 -0.48,-0.738 1.235,1.235 0 0 0 -0.82,-0.27 1.218,1.218 0 0 0 -0.809,0.27 1.584,1.584 0 0 0 -0.478,0.738 3.427,3.427 0 0 0 -0.155,1.078 v 0.123 a 3.475,3.475 0 0 0 0.155,1.087 1.555,1.555 0 0 0 0.48,0.738 1.247,1.247 0 0 0 0.817,0.267 z M 125.9,0 v -0.9 l 0.885,-0.176 v -4.209 h -0.967 V -6.34 h 0.967 v -0.744 a 2.16,2.16 0 0 1 0.577,-1.611 2.2,2.2 0 0 1 1.614,-0.568 3.776,3.776 0 0 1 0.516,0.038 4.539,4.539 0 0 1 0.5,0.1 l -0.146,1.107 a 2.61,2.61 0 0 0 -0.3,-0.05 3.184,3.184 0 0 0 -0.357,-0.021 0.894,0.894 0 0 0 -0.7,0.258 1.088,1.088 0 0 0 -0.231,0.75 v 0.744 h 1.418 v 1.055 h -1.418 v 4.207 l 1.107,0.176 V 0 Z m 10.717,0.123 a 5.823,5.823 0 0 1 -1.623,-0.217 4.835,4.835 0 0 1 -1.459,-0.721 v -1.962 h 1.143 l 0.188,1.271 a 2.547,2.547 0 0 0 0.765,0.357 3.457,3.457 0 0 0 0.987,0.135 2.26,2.26 0 0 0 0.876,-0.149 1.213,1.213 0 0 0 0.542,-0.419 1.09,1.09 0 0 0 0.188,-0.639 1.119,1.119 0 0 0 -0.164,-0.6 1.424,1.424 0 0 0 -0.545,-0.472 4.831,4.831 0 0 0 -1.031,-0.384 7.308,7.308 0 0 1 -1.6,-0.609 2.653,2.653 0 0 1 -0.967,-0.844 2.056,2.056 0 0 1 -0.325,-1.16 2.051,2.051 0 0 1 0.372,-1.213 2.521,2.521 0 0 1 1.036,-0.835 3.684,3.684 0 0 1 1.529,-0.311 4.845,4.845 0 0 1 1.679,0.246 4.022,4.022 0 0 1 1.233,0.674 v 1.834 h -1.119 l -0.211,-1.2 a 2.24,2.24 0 0 0 -0.624,-0.29 3.044,3.044 0 0 0 -0.905,-0.12 1.969,1.969 0 0 0 -0.785,0.146 1.254,1.254 0 0 0 -0.533,0.413 1.054,1.054 0 0 0 -0.193,0.636 0.949,0.949 0 0 0 0.17,0.563 1.481,1.481 0 0 0 0.568,0.437 6.925,6.925 0 0 0 1.078,0.4 5.011,5.011 0 0 1 2.1,1.02 2.143,2.143 0 0 1 0.715,1.658 2.058,2.058 0 0 1 -0.384,1.239 2.484,2.484 0 0 1 -1.078,0.823 4.16,4.16 0 0 1 -1.623,0.293 z m 6.838,0 a 2.859,2.859 0 0 1 -1.544,-0.407 2.707,2.707 0 0 1 -1.011,-1.125 3.692,3.692 0 0 1 -0.354,-1.655 V -3.27 a 3.7,3.7 0 0 1 0.354,-1.64 2.723,2.723 0 0 1 1,-1.134 2.828,2.828 0 0 1 1.544,-0.413 3.554,3.554 0 0 1 1.418,0.261 3.144,3.144 0 0 1 0.99,0.647 l 0.006,1.693 h -1.125 l -0.217,-1.119 a 1.2,1.2 0 0 0 -0.416,-0.272 1.448,1.448 0 0 0 -0.551,-0.1 1.319,1.319 0 0 0 -0.829,0.264 1.631,1.631 0 0 0 -0.521,0.729 3.026,3.026 0 0 0 -0.179,1.087 v 0.205 a 3.057,3.057 0 0 0 0.182,1.125 1.512,1.512 0 0 0 0.507,0.691 1.245,1.245 0 0 0 0.747,0.234 1.224,1.224 0 0 0 0.829,-0.275 1.319,1.319 0 0 0 0.419,-0.762 h 1.277 l 0.018,0.035 a 2.66,2.66 0 0 1 -0.366,1.1 2.048,2.048 0 0 1 -0.832,0.759 2.942,2.942 0 0 1 -1.346,0.278 z M 146.783,0 v -0.9 l 0.879,-0.176 v -4.18 L 146.73,-5.432 V -6.34 h 2.408 v 5.262 l 0.873,0.176 V 0 Z m 0.82,-7.775 v -1.366 h 1.535 v 1.365 z m 6.047,7.9 a 2.964,2.964 0 0 1 -1.562,-0.4 2.734,2.734 0 0 1 -1.031,-1.11 3.486,3.486 0 0 1 -0.366,-1.623 v -0.246 a 3.651,3.651 0 0 1 0.36,-1.649 2.832,2.832 0 0 1 0.993,-1.137 2.578,2.578 0 0 1 1.441,-0.413 2.789,2.789 0 0 1 1.444,0.346 2.2,2.2 0 0 1 0.882,0.981 3.564,3.564 0 0 1 0.3,1.526 v 0.844 h -3.891 l -0.012,0.029 a 2.285,2.285 0 0 0 0.208,0.885 1.459,1.459 0 0 0 0.527,0.609 1.5,1.5 0 0 0 0.835,0.223 2.952,2.952 0 0 0 0.938,-0.141 2.882,2.882 0 0 0 0.779,-0.4 l 0.463,0.926 A 3.212,3.212 0 0 1 155,-0.094 3.858,3.858 0 0 1 153.65,0.123 Z M 152.244,-3.8 h 2.456 v -0.152 a 1.947,1.947 0 0 0 -0.126,-0.729 1.029,1.029 0 0 0 -0.393,-0.489 1.206,1.206 0 0 0 -0.677,-0.176 1.026,1.026 0 0 0 -0.627,0.2 1.4,1.4 0 0 0 -0.431,0.542 2.65,2.65 0 0 0 -0.22,0.776 z m 4.664,3.8 v -0.9 l 0.879,-0.176 v -4.18 l -0.926,-0.176 V -6.34 h 2.285 l 0.076,0.92 a 2.3,2.3 0 0 1 0.788,-0.765 2.1,2.1 0 0 1 1.069,-0.272 1.952,1.952 0 0 1 1.523,0.6 2.734,2.734 0 0 1 0.545,1.878 v 2.9 l 0.879,0.176 V 0 h -3.182 v -0.9 l 0.826,-0.176 v -2.891 a 1.464,1.464 0 0 0 -0.287,-1.022 1.127,1.127 0 0 0 -0.855,-0.3 1.431,1.431 0 0 0 -0.747,0.19 1.468,1.468 0 0 0 -0.519,0.53 v 3.492 l 0.8,0.176 V 0 Z m 10.652,0.123 a 2.859,2.859 0 0 1 -1.544,-0.407 2.707,2.707 0 0 1 -1.008,-1.125 3.692,3.692 0 0 1 -0.354,-1.655 V -3.27 a 3.7,3.7 0 0 1 0.352,-1.641 2.723,2.723 0 0 1 1,-1.134 2.828,2.828 0 0 1 1.544,-0.413 3.554,3.554 0 0 1 1.418,0.261 3.144,3.144 0 0 1 0.99,0.647 l 0.006,1.693 h -1.125 l -0.217,-1.119 a 1.2,1.2 0 0 0 -0.416,-0.272 1.448,1.448 0 0 0 -0.551,-0.1 1.319,1.319 0 0 0 -0.829,0.264 1.631,1.631 0 0 0 -0.521,0.729 3.026,3.026 0 0 0 -0.179,1.087 v 0.205 a 3.057,3.057 0 0 0 0.182,1.125 1.512,1.512 0 0 0 0.507,0.691 1.245,1.245 0 0 0 0.747,0.234 1.224,1.224 0 0 0 0.829,-0.275 1.319,1.319 0 0 0 0.419,-0.762 h 1.277 l 0.018,0.035 a 2.66,2.66 0 0 1 -0.366,1.1 2.048,2.048 0 0 1 -0.832,0.759 2.942,2.942 0 0 1 -1.346,0.279 z m 6.4,0 a 2.964,2.964 0 0 1 -1.562,-0.4 2.734,2.734 0 0 1 -1.031,-1.11 3.486,3.486 0 0 1 -0.366,-1.623 v -0.246 a 3.651,3.651 0 0 1 0.36,-1.649 2.832,2.832 0 0 1 0.993,-1.137 2.578,2.578 0 0 1 1.441,-0.413 2.789,2.789 0 0 1 1.444,0.346 2.2,2.2 0 0 1 0.882,0.981 3.564,3.564 0 0 1 0.3,1.526 v 0.844 h -3.891 l -0.012,0.029 a 2.285,2.285 0 0 0 0.208,0.885 1.459,1.459 0 0 0 0.527,0.609 1.5,1.5 0 0 0 0.835,0.223 2.952,2.952 0 0 0 0.938,-0.141 2.882,2.882 0 0 0 0.779,-0.4 l 0.463,0.926 a 3.212,3.212 0 0 1 -0.955,0.533 3.858,3.858 0 0 1 -1.348,0.217 z M 172.559,-3.8 h 2.455 v -0.152 a 1.947,1.947 0 0 0 -0.126,-0.729 1.029,1.029 0 0 0 -0.393,-0.489 1.206,1.206 0 0 0 -0.677,-0.176 1.026,1.026 0 0 0 -0.627,0.2 1.4,1.4 0 0 0 -0.431,0.542 2.65,2.65 0 0 0 -0.22,0.776 z m 7.576,3.8 v -0.9 l 0.621,-0.088 2.824,-7.541 h 1.436 l 2.784,7.539 0.621,0.088 V 0 h -2.713 v -0.9 l 0.609,-0.111 -0.451,-1.342 H 182.7 l -0.463,1.342 0.615,0.111 V 0 Z m 2.947,-3.486 h 2.408 l -1.107,-3.158 -0.076,-0.229 h -0.035 l -0.082,0.24 z M 189.023,0 v -0.9 l 0.879,-0.176 v -4.18 l -0.926,-0.176 V -6.34 h 2.285 l 0.076,0.92 a 2.3,2.3 0 0 1 0.788,-0.765 2.1,2.1 0 0 1 1.069,-0.272 1.952,1.952 0 0 1 1.523,0.6 2.734,2.734 0 0 1 0.545,1.878 v 2.9 l 0.879,0.176 V 0 h -3.182 v -0.9 l 0.826,-0.176 v -2.891 a 1.464,1.464 0 0 0 -0.287,-1.022 1.127,1.127 0 0 0 -0.855,-0.3 1.431,1.431 0 0 0 -0.747,0.19 1.468,1.468 0 0 0 -0.519,0.53 v 3.492 l 0.8,0.176 V 0 Z m 10.184,0.123 a 2.209,2.209 0 0 1 -1.312,-0.387 2.44,2.44 0 0 1 -0.835,-1.081 4.18,4.18 0 0 1 -0.29,-1.62 v -0.123 a 4.928,4.928 0 0 1 0.29,-1.77 2.634,2.634 0 0 1 0.838,-1.178 2.074,2.074 0 0 1 1.3,-0.422 2.067,2.067 0 0 1 0.952,0.208 2.034,2.034 0 0 1 0.7,0.595 v -2.4 l -0.932,-0.176 v -0.908 h 2.408 v 8.063 l 0.879,0.176 V 0 h -2.156 l -0.117,-0.768 a 2,2 0 0 1 -0.729,0.665 2.123,2.123 0 0 1 -0.996,0.226 z m 0.416,-1.166 a 1.376,1.376 0 0 0 0.727,-0.185 1.438,1.438 0 0 0 0.5,-0.536 v -2.795 a 1.505,1.505 0 0 0 -0.5,-0.536 1.305,1.305 0 0 0 -0.718,-0.2 1.13,1.13 0 0 0 -0.788,0.278 1.643,1.643 0 0 0 -0.454,0.773 4.072,4.072 0 0 0 -0.146,1.151 v 0.123 a 2.626,2.626 0 0 0 0.325,1.4 1.145,1.145 0 0 0 1.054,0.527 z m 11.162,1.166 a 4.111,4.111 0 0 1 -2.153,-0.536 3.5,3.5 0 0 1 -1.365,-1.5 5.041,5.041 0 0 1 -0.472,-2.241 v -0.217 a 5,5 0 0 1 0.469,-2.212 3.642,3.642 0 0 1 1.341,-1.517 3.813,3.813 0 0 1 2.086,-0.554 4.78,4.78 0 0 1 1.576,0.252 3.921,3.921 0 0 1 1.266,0.709 v 1.969 h -1.125 l -0.152,-1.318 a 2.161,2.161 0 0 0 -0.428,-0.24 2.5,2.5 0 0 0 -0.513,-0.152 3.262,3.262 0 0 0 -0.606,-0.053 2.222,2.222 0 0 0 -1.315,0.387 2.411,2.411 0 0 0 -0.835,1.084 4.274,4.274 0 0 0 -0.287,1.635 v 0.229 a 4.175,4.175 0 0 0 0.3,1.673 2.383,2.383 0 0 0 0.876,1.075 2.437,2.437 0 0 0 1.368,0.375 3.261,3.261 0 0 0 0.765,-0.091 3.009,3.009 0 0 0 0.665,-0.237 l 0.158,-1.2 h 1.113 V -0.6 a 4.31,4.31 0 0 1 -1.2,0.521 5.666,5.666 0 0 1 -1.532,0.202 z m 6.65,0 a 2.9,2.9 0 0 1 -1.57,-0.41 2.686,2.686 0 0 1 -1.008,-1.14 3.822,3.822 0 0 1 -0.352,-1.679 v -0.123 a 3.789,3.789 0 0 1 0.352,-1.67 2.729,2.729 0 0 1 1.008,-1.143 2.849,2.849 0 0 1 1.559,-0.416 2.887,2.887 0 0 1 1.57,0.413 2.709,2.709 0 0 1 1.006,1.145 3.8,3.8 0 0 1 0.352,1.676 v 0.123 a 3.822,3.822 0 0 1 -0.352,1.674 2.692,2.692 0 0 1 -1,1.14 2.877,2.877 0 0 1 -1.564,0.41 z m 0,-1.137 a 1.223,1.223 0 0 0 0.812,-0.267 1.594,1.594 0 0 0 0.478,-0.738 3.416,3.416 0 0 0 0.158,-1.087 v -0.123 a 3.368,3.368 0 0 0 -0.158,-1.078 1.6,1.6 0 0 0 -0.48,-0.738 1.235,1.235 0 0 0 -0.82,-0.27 1.218,1.218 0 0 0 -0.809,0.27 1.584,1.584 0 0 0 -0.478,0.738 3.427,3.427 0 0 0 -0.155,1.078 v 0.123 a 3.475,3.475 0 0 0 0.155,1.087 1.555,1.555 0 0 0 0.48,0.738 1.247,1.247 0 0 0 0.818,0.267 z M 221.133,0 v -0.9 l 0.885,-0.176 v -4.18 l -0.932,-0.176 V -6.34 h 2.285 l 0.07,0.832 a 2.182,2.182 0 0 1 0.776,-0.7 2.259,2.259 0 0 1 1.081,-0.249 1.957,1.957 0 0 1 1.063,0.278 1.72,1.72 0 0 1 0.671,0.841 2.242,2.242 0 0 1 0.771,-0.82 2.071,2.071 0 0 1 1.122,-0.3 1.86,1.86 0 0 1 1.5,0.65 3,3 0 0 1 0.548,1.969 v 2.76 l 0.885,0.176 V 0 h -3.193 v -0.9 l 0.832,-0.176 v -2.768 a 1.784,1.784 0 0 0 -0.27,-1.125 0.973,0.973 0 0 0 -0.791,-0.322 1.089,1.089 0 0 0 -0.8,0.311 1.482,1.482 0 0 0 -0.407,0.791 v 3.111 l 0.8,0.176 V 0 h -3.076 v -0.9 l 0.8,-0.176 v -2.768 a 1.763,1.763 0 0 0 -0.275,-1.11 0.97,0.97 0 0 0 -0.8,-0.337 1.406,1.406 0 0 0 -0.729,0.176 1.275,1.275 0 0 0 -0.472,0.5 v 3.539 l 0.826,0.176 V 0 Z m 11.379,0 v -0.9 l 0.885,-0.176 v -4.18 l -0.932,-0.176 V -6.34 h 2.285 l 0.07,0.832 a 2.182,2.182 0 0 1 0.776,-0.7 2.259,2.259 0 0 1 1.081,-0.249 1.957,1.957 0 0 1 1.063,0.278 1.72,1.72 0 0 1 0.671,0.841 2.242,2.242 0 0 1 0.771,-0.82 2.071,2.071 0 0 1 1.122,-0.3 1.86,1.86 0 0 1 1.5,0.65 3,3 0 0 1 0.548,1.969 v 2.76 l 0.885,0.176 V 0 h -3.193 v -0.9 l 0.832,-0.176 v -2.768 a 1.784,1.784 0 0 0 -0.27,-1.125 0.973,0.973 0 0 0 -0.791,-0.322 1.089,1.089 0 0 0 -0.8,0.311 1.482,1.482 0 0 0 -0.407,0.791 v 3.111 l 0.8,0.176 V 0 h -3.076 v -0.9 l 0.8,-0.176 v -2.768 a 1.763,1.763 0 0 0 -0.275,-1.11 0.97,0.97 0 0 0 -0.8,-0.337 1.406,1.406 0 0 0 -0.729,0.176 1.275,1.275 0 0 0 -0.472,0.5 v 3.539 l 0.826,0.176 V 0 Z m 14.32,0.123 a 2.964,2.964 0 0 1 -1.562,-0.4 2.734,2.734 0 0 1 -1.031,-1.11 3.486,3.486 0 0 1 -0.366,-1.623 v -0.246 a 3.651,3.651 0 0 1 0.36,-1.649 2.832,2.832 0 0 1 0.993,-1.137 2.578,2.578 0 0 1 1.441,-0.413 2.789,2.789 0 0 1 1.444,0.346 2.2,2.2 0 0 1 0.882,0.981 3.564,3.564 0 0 1 0.3,1.526 v 0.844 H 245.4 l -0.012,0.029 a 2.285,2.285 0 0 0 0.208,0.885 1.459,1.459 0 0 0 0.527,0.609 1.5,1.5 0 0 0 0.835,0.223 2.952,2.952 0 0 0 0.938,-0.141 2.882,2.882 0 0 0 0.779,-0.4 l 0.463,0.926 a 3.212,3.212 0 0 1 -0.955,0.533 3.858,3.858 0 0 1 -1.351,0.217 z M 245.426,-3.8 h 2.455 v -0.152 a 1.947,1.947 0 0 0 -0.126,-0.729 1.029,1.029 0 0 0 -0.393,-0.489 1.206,1.206 0 0 0 -0.677,-0.176 1.026,1.026 0 0 0 -0.627,0.2 1.4,1.4 0 0 0 -0.431,0.542 2.65,2.65 0 0 0 -0.22,0.776 z M 250.2,0 v -0.9 l 0.879,-0.176 v -4.18 l -0.926,-0.176 V -6.34 h 2.285 l 0.076,0.8 0.012,0.129 a 2.1,2.1 0 0 1 0.618,-0.773 1.409,1.409 0 0 1 0.858,-0.27 2.228,2.228 0 0 1 0.349,0.029 2.38,2.38 0 0 1 0.3,0.064 L 254.479,-5 253.653,-5.047 a 1.029,1.029 0 0 0 -0.665,0.158 1.439,1.439 0 0 0 -0.437,0.5 v 3.3 l 0.879,0.176 V 0 Z m 7.869,0.123 a 2.859,2.859 0 0 1 -1.544,-0.407 2.707,2.707 0 0 1 -1.008,-1.125 3.692,3.692 0 0 1 -0.354,-1.655 V -3.27 a 3.7,3.7 0 0 1 0.352,-1.641 2.723,2.723 0 0 1 1,-1.134 2.828,2.828 0 0 1 1.544,-0.413 3.554,3.554 0 0 1 1.418,0.261 3.144,3.144 0 0 1 0.99,0.647 l 0.006,1.693 h -1.125 l -0.217,-1.119 a 1.2,1.2 0 0 0 -0.416,-0.272 1.448,1.448 0 0 0 -0.551,-0.1 1.319,1.319 0 0 0 -0.829,0.264 1.631,1.631 0 0 0 -0.521,0.729 3.026,3.026 0 0 0 -0.179,1.087 v 0.205 a 3.057,3.057 0 0 0 0.182,1.125 1.512,1.512 0 0 0 0.507,0.691 1.245,1.245 0 0 0 0.747,0.234 1.224,1.224 0 0 0 0.829,-0.275 1.319,1.319 0 0 0 0.419,-0.762 h 1.281 l 0.018,0.035 a 2.66,2.66 0 0 1 -0.366,1.1 2.048,2.048 0 0 1 -0.832,0.759 2.942,2.942 0 0 1 -1.356,0.279 z m 6.4,0 a 2.964,2.964 0 0 1 -1.562,-0.4 2.734,2.734 0 0 1 -1.031,-1.11 3.486,3.486 0 0 1 -0.366,-1.623 v -0.246 a 3.651,3.651 0 0 1 0.36,-1.649 2.832,2.832 0 0 1 0.993,-1.137 2.578,2.578 0 0 1 1.441,-0.413 2.789,2.789 0 0 1 1.444,0.346 2.2,2.2 0 0 1 0.882,0.981 3.564,3.564 0 0 1 0.3,1.526 v 0.844 h -3.891 l -0.012,0.029 a 2.285,2.285 0 0 0 0.208,0.885 1.459,1.459 0 0 0 0.527,0.609 1.5,1.5 0 0 0 0.835,0.223 2.952,2.952 0 0 0 0.938,-0.141 2.882,2.882 0 0 0 0.779,-0.4 l 0.463,0.926 a 3.212,3.212 0 0 1 -0.955,0.533 3.858,3.858 0 0 1 -1.353,0.217 z M 263.063,-3.8 h 2.455 v -0.152 a 1.947,1.947 0 0 0 -0.126,-0.729 1.029,1.029 0 0 0 -0.392,-0.487 1.206,1.206 0 0 0 -0.677,-0.176 1.026,1.026 0 0 0 -0.627,0.2 1.4,1.4 0 0 0 -0.431,0.542 2.65,2.65 0 0 0 -0.22,0.776 z"
         data-name="Path 17064"
         transform="translate(286.15,431.676)" />
      <path
         id="prefix__Path_16999"
         d="m 240.8,365.481 a 1.441,1.441 0 0 1 -0.157,0.052 c -0.708,0.086 -0.708,0.086 -1.009,-0.557 -0.175,-0.372 -0.175,-0.371 -0.6,-0.337 -0.345,0.027 -0.691,0.057 -1.035,0.07 a 0.378,0.378 0 0 0 -0.419,0.341 7.168,7.168 0 0 1 -0.205,0.7 l -0.858,0.066 c 0.042,-0.159 0.068,-0.272 0.1,-0.382 q 0.582,-1.883 1.167,-3.764 c 0.094,-0.309 0.1,-0.317 0.416,-0.326 0.705,-0.02 0.522,-0.154 0.845,0.5 0.522,1.06 1.029,2.129 1.543,3.193 0.066,0.139 0.129,0.278 0.206,0.444 m -2.356,-3.074 -0.1,0.009 c -0.146,0.514 -0.294,1.027 -0.46,1.606 l 1.253,-0.084 c -0.247,-0.555 -0.457,-1.05 -0.7,-1.531"
         class="prefix__cls-2"
         data-name="Path 16999" />
      <path
         id="prefix__Path_17000"
         d="m 242.929,364.132 a 1.614,1.614 0 1 1 1.64,1.587 1.518,1.518 0 0 1 -1.64,-1.587 m 2.43,-0.092 -0.034,-0.006 a 1.913,1.913 0 0 0 0,-0.214 0.772,0.772 0 0 0 -1.515,-0.158 1.39,1.39 0 0 0 -0.026,0.844 0.763,0.763 0 0 0 0.695,0.573 0.742,0.742 0 0 0 0.754,-0.487 3.75,3.75 0 0 0 0.127,-0.552"
         class="prefix__cls-2"
         data-name="Path 17000" />
      <path
         id="prefix__Path_17001"
         d="m 247.5,366.1 c -0.258,-0.059 -0.486,-0.109 -0.754,-0.169 0.236,-1.023 0.466,-2.013 0.7,-3.038 l 0.682,0.138 -0.026,0.415 c 0.123,-0.057 0.22,-0.108 0.322,-0.149 a 1.254,1.254 0 0 1 1.257,0.125 0.745,0.745 0 0 1 0.349,0.666 2.758,2.758 0 0 1 -0.054,0.5 c -0.125,0.582 -0.262,1.162 -0.4,1.743 -0.016,0.068 -0.047,0.132 -0.083,0.237 l -0.742,-0.173 c 0.11,-0.485 0.216,-0.936 0.315,-1.387 a 6.021,6.021 0 0 0 0.121,-0.632 c 0.036,-0.353 -0.073,-0.533 -0.343,-0.624 a 0.64,0.64 0 0 0 -0.755,0.249 1.324,1.324 0 0 0 -0.163,0.394 c -0.124,0.485 -0.236,0.973 -0.354,1.46 -0.016,0.067 -0.042,0.134 -0.078,0.248"
         class="prefix__cls-2"
         data-name="Path 17001" />
      <path
         id="prefix__Path_17002"
         d="m 241.375,361.21 h 0.759 c 0.053,0.716 0,1.426 0,2.135 0,0.709 -0.021,1.427 -0.032,2.167 h -0.788 c -0.016,-1.431 0.071,-2.843 0.062,-4.3"
         class="prefix__cls-2"
         data-name="Path 17002" />
      <path
         id="prefix__Path_17003"
         d="m 267.138,398.73 a 25.939,25.939 0 0 1 -51.7,0.128 13.048,13.048 0 0 0 12.918,10.8 12.915,12.915 0 0 0 12.168,-8.64 c -0.16,-0.1 -0.328,-0.207 -0.5,-0.311 a 9.271,9.271 0 0 1 -3.4,-3.518 6.6,6.6 0 0 1 -0.827,-2.978 6.007,6.007 0 0 1 0.881,-3.351 12.347,12.347 0 0 1 1.142,-1.557 15.718,15.718 0 0 0 2.184,-3.1 7.521,7.521 0 0 0 0.835,-3.053 9.484,9.484 0 0 0 -0.228,-2.24 c -0.1,-0.5 -0.176,-1.011 -0.259,-1.518 a 2.334,2.334 0 0 1 0,-0.318 2.334,2.334 0 0 1 0.284,0.146 16.77,16.77 0 0 1 5.6,6.365 11.831,11.831 0 0 1 -0.469,11.2 10.853,10.853 0 0 1 -2.439,2.655 q -0.474,0.384 -0.94,0.776 c -0.1,0.084 -0.186,0.185 -0.283,0.274 a 0.428,0.428 0 0 0 -0.1,0.517 13.077,13.077 0 0 0 1.088,2.3 12.759,12.759 0 0 0 8.889,6.145 12.967,12.967 0 0 0 14.2,-7.556 14.394,14.394 0 0 0 0.957,-3.169"
         class="prefix__cls-2"
         data-name="Path 17003" />
      <path
         id="prefix__Path_17004"
         d="m 212.375,406.3 -0.247,-0.853 a 0.941,0.941 0 0 1 0.143,-0.1 1.547,1.547 0 0 0 0.992,-1.756 3.448,3.448 0 0 0 -0.349,-1.271 1.334,1.334 0 0 0 -0.712,-0.674 0.949,0.949 0 0 0 -1.315,0.666 9.124,9.124 0 0 0 -0.144,1.314 c -0.037,0.524 -0.041,1.05 -0.08,1.574 a 3.427,3.427 0 0 1 -0.133,0.664 2.063,2.063 0 0 1 -3.151,1.132 2.679,2.679 0 0 1 -1.045,-1.287 4.486,4.486 0 0 1 -0.3,-2.665 2.488,2.488 0 0 1 1.779,-1.929 1.035,1.035 0 0 1 0.172,-0.021 c 0.088,0.286 0.174,0.565 0.264,0.852 a 1.563,1.563 0 0 1 -0.176,0.105 1.783,1.783 0 0 0 -1.168,1.581 3.047,3.047 0 0 0 0.617,2.288 1.171,1.171 0 0 0 1.034,0.47 0.99,0.99 0 0 0 0.922,-0.633 3.286,3.286 0 0 0 0.2,-0.865 c 0.048,-0.523 0.041,-1.051 0.082,-1.575 a 7.1,7.1 0 0 1 0.164,-1.238 1.789,1.789 0 0 1 1.7,-1.449 1.982,1.982 0 0 1 1.862,0.929 3.886,3.886 0 0 1 0.615,1.59 3.771,3.771 0 0 1 0,1.389 2.178,2.178 0 0 1 -1.722,1.763"
         class="prefix__cls-2"
         data-name="Path 17004" />
      <path
         id="prefix__Path_17005"
         d="m 215.119,412.505 c -0.2,0.165 -0.366,0.307 -0.533,0.447 l 0.012,0.074 a 2.1,2.1 0 0 1 1.72,0.8 1.632,1.632 0 0 1 0.235,1.885 c 0.155,0.019 0.277,0.038 0.4,0.046 a 2.011,2.011 0 0 1 1.661,1.037 1.5,1.5 0 0 1 -0.183,1.912 2.947,2.947 0 0 1 -0.364,0.343 q -1.494,1.175 -2.993,2.341 c -0.047,0.036 -0.1,0.066 -0.187,0.127 l -0.558,-0.7 c 0.11,-0.093 0.2,-0.173 0.29,-0.245 0.809,-0.634 1.62,-1.264 2.427,-1.9 a 5.645,5.645 0 0 0 0.592,-0.52 0.867,0.867 0 0 0 0.158,-1.086 1.339,1.339 0 0 0 -1.756,-0.657 3.205,3.205 0 0 0 -0.611,0.367 c -0.779,0.6 -1.547,1.2 -2.32,1.8 -0.1,0.079 -0.206,0.153 -0.33,0.246 l -0.555,-0.713 c 0.112,-0.1 0.2,-0.176 0.289,-0.247 0.837,-0.657 1.678,-1.306 2.51,-1.968 a 3.707,3.707 0 0 0 0.589,-0.572 0.848,0.848 0 0 0 0.023,-1.064 1.336,1.336 0 0 0 -1.72,-0.528 4.842,4.842 0 0 0 -0.878,0.547 c -0.687,0.517 -1.36,1.055 -2.038,1.584 -0.1,0.08 -0.207,0.154 -0.333,0.248 -0.191,-0.242 -0.367,-0.463 -0.573,-0.721 l 4.513,-3.529 0.514,0.636"
         class="prefix__cls-2"
         data-name="Path 17005" />
      <path
         id="prefix__Path_17006"
         d="m 226.717,375.363 0.536,0.69 -0.6,0.517 2.968,3.81 a 1.733,1.733 0 0 1 -0.259,0.073 c -0.142,0.015 -0.288,0 -0.429,0.027 a 0.7,0.7 0 0 1 -0.749,-0.338 c -0.666,-0.89 -1.36,-1.758 -2.045,-2.634 -0.079,-0.1 -0.164,-0.2 -0.263,-0.324 a 4.412,4.412 0 0 0 -1.126,0.951 c 1.112,1.152 2.218,2.3 3.383,3.51 -0.4,0.069 -0.736,0.139 -1.073,0.174 -0.081,0.009 -0.189,-0.082 -0.26,-0.154 -0.388,-0.39 -0.766,-0.788 -1.148,-1.182 -0.083,-0.084 -0.169,-0.162 -0.291,-0.277 l -1.007,1.113 0.8,0.745 a 0.39,0.39 0 0 1 -0.389,0.193 c -0.43,0 -0.86,-0.01 -1.29,-0.018 a 0.464,0.464 0 0 1 -0.491,-0.286 0.532,0.532 0 0 1 0.129,-0.591 c 0.461,-0.5 0.912,-1.011 1.366,-1.518 0.08,-0.089 0.154,-0.18 0.26,-0.3 l -0.711,-0.734 c -0.855,0.734 -1.5,1.613 -2.292,2.409 l -0.663,-0.587 1.726,-1.919 0.267,0.185 0.022,-0.027 -0.159,-0.233 a 25.315,25.315 0 0 1 3.79,-3.271"
         class="prefix__cls-2"
         data-name="Path 17006" />
      <path
         id="prefix__Path_17007"
         d="m 248.88,373.157 0.08,0.761 c -0.284,0.028 -0.531,0.05 -0.776,0.08 a 1.491,1.491 0 0 0 -0.312,0.073 0.372,0.372 0 0 0 -0.3,0.43 0.39,0.39 0 0 0 0.348,0.395 3.619,3.619 0 0 0 0.742,-0.025 2.577,2.577 0 0 0 0.413,-0.116 l -0.034,0.395 a 9.846,9.846 0 0 0 0.8,-2.173 l -2.69,-0.752 0.234,-0.837 c 0.107,0.016 0.187,0.019 0.263,0.039 0.563,0.16 1.125,0.323 1.687,0.483 l 1.385,0.393 a 4.481,4.481 0 0 0 -0.321,-0.41 5.512,5.512 0 0 0 -1.825,-1.3 0.448,0.448 0 0 1 -0.33,-0.478 c 0,-0.236 -0.035,-0.471 -0.06,-0.785 a 7.8,7.8 0 0 1 1.045,0.5 7.693,7.693 0 0 1 0.856,0.774 1.354,1.354 0 0 0 -0.024,-0.223 c -0.1,-0.3 -0.208,-0.61 -0.321,-0.912 a 0.724,0.724 0 0 0 -0.416,-0.508 0.266,0.266 0 0 1 -0.131,-0.187 c -0.038,-0.307 -0.056,-0.615 -0.088,-0.995 a 8,8 0 0 1 1,0.475 0.984,0.984 0 0 1 0.321,0.5 c 0.173,0.534 0.332,1.073 0.459,1.618 0.138,0.592 0.25,1.192 0.34,1.794 0.043,0.282 0.126,0.476 0.428,0.523 a 1.012,1.012 0 0 1 0.2,0.1 c -0.093,0.268 -0.186,0.53 -0.285,0.817 l -0.752,-0.239 c -0.316,0.749 -0.56,1.518 -0.843,2.273 -0.283,0.755 -0.547,1.5 -0.846,2.318 -0.237,-0.328 -0.44,-0.588 -0.615,-0.868 a 0.428,0.428 0 0 1 0.009,-0.3 c 0.094,-0.3 0.205,-0.605 0.327,-0.957 H 248.4 a 1.413,1.413 0 0 1 -1.465,-1.364 1.039,1.039 0 0 1 0.474,-0.981 2.165,2.165 0 0 1 1.458,-0.321"
         class="prefix__cls-2"
         data-name="Path 17007" />
      <path
         id="prefix__Path_17008"
         d="m 238.876,371.644 a 2.884,2.884 0 0 1 -0.061,-0.3 c -0.015,-0.177 -0.018,-0.355 -0.028,-0.563 0.391,-0.034 0.757,-0.066 1.122,-0.1 0.3,-0.023 0.6,-0.048 0.894,-0.065 a 0.669,0.669 0 0 1 0.541,0.1 c 0.057,0.05 0.185,0.025 0.278,0.025 h 2.053 a 1.934,1.934 0 0 1 0.03,0.883 l -0.748,0.035 c -0.01,0.144 -0.024,0.27 -0.024,0.4 0,1.338 0,2.678 -0.006,4.016 a 0.536,0.536 0 0 0 0.249,0.5 1.267,1.267 0 0 1 0.4,1.453 1.136,1.136 0 0 1 -1.138,0.814 1.824,1.824 0 0 1 -1.237,-0.394 3.94,3.94 0 0 1 -0.52,-0.489 11.658,11.658 0 0 1 -1.081,-1.534 0.513,0.513 0 0 1 0.66,0.245 4.3,4.3 0 0 0 0.98,1.135 1.377,1.377 0 0 0 1.331,0.325 0.6,0.6 0 0 0 0.47,-0.564 0.463,0.463 0 0 0 -0.656,-0.493 1.765,1.765 0 0 0 -0.414,0.275 2.245,2.245 0 0 0 -0.237,0.258 l -0.46,-0.667 a 1.158,1.158 0 0 1 1.169,-0.61 c -0.029,-0.178 -0.164,-0.225 -0.265,-0.283 a 0.442,0.442 0 0 1 -0.227,-0.446 c 0.011,-0.573 0,-1.147 0,-1.72 0,-0.128 -0.01,-0.257 -0.019,-0.431 -0.562,0.046 -1.1,0.074 -1.623,0.139 a 0.464,0.464 0 0 0 -0.377,0.564 1.935,1.935 0 0 0 0.167,0.507 4.175,4.175 0 0 0 0.869,1.176 c 0.077,0.074 0.163,0.138 0.281,0.238 l -0.35,0.26 a 1.352,1.352 0 0 1 -0.2,-0.157 c -0.341,-0.4 -0.7,-0.787 -1.009,-1.209 a 2.36,2.36 0 0 1 -0.477,-1.474 0.919,0.919 0 0 1 0.26,-0.685 0.706,0.706 0 0 1 0.363,-0.2 c 0.64,-0.069 1.282,-0.11 1.961,-0.164 l 0.082,0.58 a 3.613,3.613 0 0 0 0.015,-1.359 l -0.341,-0.02 c -0.07,-0.005 -0.164,0.016 -0.21,-0.021 -0.214,-0.174 -0.452,-0.1 -0.685,-0.086 -0.5,0.032 -1,0.072 -1.5,0.106 -0.093,0.007 -0.185,0 -0.288,0"
         class="prefix__cls-2"
         data-name="Path 17008" />
      <path
         id="prefix__Path_17009"
         d="m 252.285,425.925 -0.91,-2.677 c 0.3,-0.1 0.568,-0.195 0.868,-0.3 l 2.584,7.5 -0.792,0.273 c -0.088,-0.209 -0.159,-0.381 -0.253,-0.6 -0.06,0.106 -0.1,0.169 -0.133,0.236 a 2.057,2.057 0 0 1 -2.041,1.163 2.536,2.536 0 0 1 -1.939,-1.2 4.138,4.138 0 0 1 -0.7,-2.615 2.187,2.187 0 0 1 3.065,-1.872 c 0.05,0.028 0.109,0.041 0.249,0.1 m -2.407,2.1 a 3.949,3.949 0 0 0 0.724,2 1.591,1.591 0 0 0 1.167,0.689 1.451,1.451 0 0 0 1.56,-1.567 3.73,3.73 0 0 0 -0.824,-2.213 1.489,1.489 0 0 0 -1.67,-0.5 1.533,1.533 0 0 0 -0.957,1.592"
         class="prefix__cls-2"
         data-name="Path 17009" />
      <path
         id="prefix__Path_17010"
         d="m 247.113,424.428 0.2,1.046 -0.854,0.174 c -0.045,-0.065 -0.09,-0.126 -0.163,-0.229 a 1.07,1.07 0 0 0 -0.059,0.112 l -1.146,3.242 -1.356,3.853 c -0.117,0.333 -0.119,0.333 -0.48,0.344 -0.18,0.006 -0.358,0.01 -0.537,0.013 -0.036,0 -0.071,-0.008 -0.155,-0.017 -1.1,-2.566 -2.205,-5.153 -3.339,-7.8 l 1.088,-0.05 2.746,6.925 a 1.474,1.474 0 0 0 0.11,-0.208 l 2.163,-6.605 c 0.092,-0.284 0.1,-0.288 0.4,-0.3 0.151,-0.009 0.3,-0.013 0.468,-0.021 l 0.064,-0.317 0.85,-0.156"
         class="prefix__cls-2"
         data-name="Path 17010" />
      <path
         id="prefix__Path_17011"
         d="m 265.536,423.829 c -0.114,0.1 -0.191,0.172 -0.271,0.239 -0.147,0.122 -0.3,0.238 -0.457,0.37 l -0.561,-0.364 c -0.146,0.1 -0.124,0.277 -0.164,0.414 a 2.992,2.992 0 0 1 -1.489,1.845 1.639,1.639 0 0 1 -1,0.227 1.606,1.606 0 0 1 -1.333,-2.139 2.741,2.741 0 0 1 0.589,-0.933 q 0.6,-0.663 1.2,-1.333 c 0.092,-0.105 0.164,-0.23 0.272,-0.384 -0.159,-0.17 -0.3,-0.342 -0.464,-0.493 a 0.779,0.779 0 0 0 -0.77,-0.173 2.31,2.31 0 0 0 -1.371,1.082 0.987,0.987 0 0 0 -0.066,0.734 c 0.028,0.126 0.074,0.25 0.128,0.427 -0.241,0.144 -0.488,0.3 -0.755,0.456 a 1.725,1.725 0 0 1 -0.179,-1.574 3.651,3.651 0 0 1 2.3,-2.055 1.257,1.257 0 0 1 1.317,0.351 7,7 0 0 1 0.57,0.642 c 0.32,0.386 0.623,0.786 0.949,1.167 a 5.156,5.156 0 0 0 1.553,1.494 m -2.747,-1.457 c -0.243,0.317 -0.447,0.6 -0.666,0.86 -0.219,0.26 -0.472,0.539 -0.7,0.808 a 1.7,1.7 0 0 0 -0.166,0.233 0.862,0.862 0 0 0 0.028,1.035 0.9,0.9 0 0 0 1.03,0.289 2,2 0 0 0 1.24,-1.7 2.315,2.315 0 0 0 -0.761,-1.529"
         class="prefix__cls-2"
         data-name="Path 17011" />
      <path
         id="prefix__Path_17012"
         d="m 230.81,427.2 -0.8,-0.358 a 1.8,1.8 0 0 1 1.646,-1.125 3.974,3.974 0 0 1 2.319,0.613 1.361,1.361 0 0 1 0.658,1.632 c -0.195,0.786 -0.435,1.564 -0.645,2.348 -0.1,0.38 -0.2,0.762 -0.262,1.15 a 4.785,4.785 0 0 0 -0.007,0.743 c -0.208,-0.057 -0.378,-0.1 -0.547,-0.149 -0.395,-0.113 -0.409,-0.134 -0.386,-0.547 0,-0.069 0.011,-0.138 0.018,-0.223 -0.165,-0.064 -0.289,0.041 -0.413,0.086 a 2.972,2.972 0 0 1 -2.492,-0.2 1.545,1.545 0 0 1 -0.714,-2.078 1.561,1.561 0 0 1 1.448,-0.945 8.808,8.808 0 0 1 1.21,0.089 c 0.463,0.044 0.924,0.106 1.387,0.145 0.307,0.025 0.332,0 0.416,-0.312 a 0.977,0.977 0 0 0 -0.569,-1.3 4.121,4.121 0 0 0 -0.988,-0.294 1.039,1.039 0 0 0 -1.018,0.4 c -0.084,0.1 -0.164,0.2 -0.265,0.323 m 2.523,1.94 a 1.259,1.259 0 0 0 -0.166,-0.04 c -0.534,-0.043 -1.069,-0.088 -1.605,-0.126 a 5.184,5.184 0 0 0 -0.715,-0.022 0.821,0.821 0 0 0 -0.777,0.631 0.832,0.832 0 0 0 0.331,0.948 2.032,2.032 0 0 0 0.716,0.3 1.659,1.659 0 0 0 1.774,-0.564 3,3 0 0 0 0.442,-1.131"
         class="prefix__cls-2"
         data-name="Path 17012" />
      <path
         id="prefix__Path_17013"
         d="m 219.935,425.995 -0.713,-0.625 c 0.088,-0.216 0.17,-0.42 0.271,-0.665 l -0.444,-0.044 a 2.9,2.9 0 0 1 -2.218,-1.344 1.569,1.569 0 0 1 0.934,-2.395 1.748,1.748 0 0 1 1.253,0.15 c 0.287,0.144 0.555,0.324 0.831,0.49 0.419,0.253 0.83,0.517 1.256,0.757 0.279,0.157 0.31,0.138 0.509,-0.1 a 0.986,0.986 0 0 0 0.016,-1.448 4.055,4.055 0 0 0 -0.691,-0.616 1.09,1.09 0 0 0 -1.247,-0.068 c -0.083,0.045 -0.166,0.087 -0.275,0.143 -0.191,-0.221 -0.377,-0.432 -0.581,-0.666 a 1.753,1.753 0 0 1 1.614,-0.43 3.725,3.725 0 0 1 2.261,1.754 1.33,1.33 0 0 1 -0.145,1.633 c -0.472,0.585 -0.972,1.148 -1.461,1.72 -0.038,0.045 -0.079,0.088 -0.117,0.135 a 4.77,4.77 0 0 0 -1.053,1.623 m 0.968,-2.957 c -0.089,-0.06 -0.125,-0.087 -0.164,-0.108 -0.477,-0.269 -0.954,-0.538 -1.432,-0.8 a 4.592,4.592 0 0 0 -0.569,-0.3 0.864,0.864 0 0 0 -1.155,0.476 0.927,0.927 0 0 0 0.158,0.943 2.033,2.033 0 0 0 0.966,0.706 1.518,1.518 0 0 0 1.654,-0.341 c 0.178,-0.174 0.341,-0.362 0.542,-0.577"
         class="prefix__cls-2"
         data-name="Path 17013" />
      <path
         id="prefix__Path_17014"
         d="m 271.678,408.239 c -0.128,0.262 -0.25,0.517 -0.382,0.786 a 1.82,1.82 0 0 1 -1.071,-1.755 4.087,4.087 0 0 1 0.614,-2.107 1.418,1.418 0 0 1 1.8,-0.7 c 0.687,0.2 1.364,0.434 2.049,0.643 a 5.354,5.354 0 0 0 2.089,0.407 c -0.087,0.273 -0.162,0.509 -0.235,0.747 a 0.22,0.22 0 0 1 -0.247,0.162 c -0.153,-0.006 -0.306,-0.015 -0.511,-0.026 0.044,0.165 0.077,0.309 0.122,0.45 a 2.952,2.952 0 0 1 -0.241,2.355 1.556,1.556 0 0 1 -1.753,0.872 1.578,1.578 0 0 1 -1.283,-1.557 8,8 0 0 1 0.107,-1.173 c 0.062,-0.5 0.147,-0.993 0.206,-1.489 0.036,-0.3 0.008,-0.323 -0.266,-0.413 a 1,1 0 0 0 -1.367,0.558 4.3,4.3 0 0 0 -0.316,1.055 0.946,0.946 0 0 0 0.327,0.87 l 0.356,0.318 m 2,-2.419 c -0.047,0.46 -0.088,0.9 -0.139,1.335 -0.037,0.319 -0.1,0.636 -0.125,0.956 a 0.882,0.882 0 0 0 0.671,0.969 0.9,0.9 0 0 0 1.024,-0.47 2.044,2.044 0 0 0 0.219,-1.553 1.77,1.77 0 0 0 -1.65,-1.237"
         class="prefix__cls-2"
         data-name="Path 17014" />
      <path
         id="prefix__Path_17015"
         d="m 272.677,415.233 c -0.148,0.272 -0.281,0.511 -0.438,0.8 -2.327,-1.278 -4.622,-2.56 -6.945,-3.847 0.159,-0.283 0.3,-0.529 0.455,-0.811 l 2.472,1.365 c -0.027,-0.182 -0.038,-0.286 -0.058,-0.389 a 2.364,2.364 0 0 1 1.009,-2.364 1.439,1.439 0 0 1 1.235,-0.18 4.108,4.108 0 0 1 0.792,0.325 c 1.039,0.564 2.071,1.143 3.1,1.715 0.051,0.029 0.1,0.065 0.18,0.119 l -0.432,0.79 c -0.134,-0.067 -0.239,-0.116 -0.342,-0.172 -0.929,-0.514 -1.857,-1.033 -2.79,-1.542 a 2.955,2.955 0 0 0 -0.589,-0.257 1.034,1.034 0 0 0 -1.154,0.364 1.471,1.471 0 0 0 0.225,2.183 c 0.546,0.381 1.144,0.689 1.724,1.021 0.444,0.255 0.9,0.5 1.346,0.748 0.061,0.033 0.117,0.077 0.206,0.137"
         class="prefix__cls-2"
         data-name="Path 17015" />
      <path
         id="prefix__Path_17016"
         d="m 261.791,386.75 c -0.157,0.078 -0.272,0.14 -0.391,0.191 -0.261,0.115 -0.449,-0.005 -0.459,-0.291 a 0.63,0.63 0 0 1 0.019,-0.213 c 0.111,-0.366 0.223,-0.732 0.349,-1.091 a 0.667,0.667 0 0 1 0.183,-0.258 c 0.25,-0.227 0.411,-0.2 0.591,0.086 0.037,0.058 0.082,0.112 0.147,0.2 l 1.21,-0.667 a 9.2,9.2 0 0 0 -0.745,-1.268 l -4.13,2.577 a 1.787,1.787 0 0 1 -0.033,-0.272 c 0.006,-0.189 0.04,-0.381 0.031,-0.57 a 0.485,0.485 0 0 1 0.276,-0.489 c 0.988,-0.6 1.966,-1.221 2.947,-1.836 0.11,-0.068 0.218,-0.142 0.36,-0.236 -0.105,-0.2 -0.2,-0.377 -0.324,-0.6 0.244,-0.153 0.481,-0.3 0.744,-0.468 a 44.91,44.91 0 0 1 2.583,4.361 l -0.756,0.421 -0.466,-0.784 -1.244,0.69 0.645,1.191 -0.869,0.491 c -0.227,-0.394 -0.437,-0.764 -0.668,-1.169"
         class="prefix__cls-2"
         data-name="Path 17016" />
      <path
         id="prefix__Path_17017"
         d="m 227.089,374.99 1.333,-0.742 c 0.437,-0.243 0.873,-0.488 1.336,-0.745 a 1.03,1.03 0 0 0 -0.182,-0.155 c -0.371,-0.162 -0.739,-0.334 -1.121,-0.469 a 1.281,1.281 0 0 0 -1.139,0.1 0.466,0.466 0 0 1 -0.641,-0.068 6.948,6.948 0 0 0 -0.58,-0.444 2.232,2.232 0 0 1 1.807,-0.414 9.845,9.845 0 0 1 2.149,0.968 0.414,0.414 0 0 0 0.583,-0.011 l 0.444,0.782 -0.793,0.472 0.837,1.536 c -0.25,0.137 -0.477,0.264 -0.7,0.391 -0.155,0.087 -0.314,0.17 -0.467,0.263 a 0.665,0.665 0 0 0 -0.246,0.977 0.927,0.927 0 0 0 1.381,0.169 1,1 0 0 0 -0.071,-0.107 0.56,0.56 0 0 1 -0.108,-0.715 0.7,0.7 0 0 1 0.712,-0.378 0.459,0.459 0 0 1 0.253,0.115 c 0.268,0.309 0.536,0.626 0.385,1.087 a 0.532,0.532 0 0 0 0,0.129 2.148,2.148 0 0 1 0.87,0.575 c -0.194,0.111 -0.374,0.214 -0.533,0.307 -0.241,-0.14 -0.454,-0.265 -0.669,-0.386 a 0.326,0.326 0 0 0 -0.337,0.005 1.944,1.944 0 0 1 -2.571,-0.748 2.266,2.266 0 0 1 -0.273,-0.731 0.776,0.776 0 0 1 0.47,-0.91 c 0.208,-0.118 0.415,-0.235 0.622,-0.355 0.02,-0.011 0.033,-0.034 0.084,-0.092 l -0.391,-0.722 -2,1.1 c -0.149,-0.265 -0.285,-0.51 -0.436,-0.782"
         class="prefix__cls-2"
         data-name="Path 17017" />
      <path
         id="prefix__Path_17018"
         d="m 210.494,413.134 a 2.2,2.2 0 0 1 -1.434,-0.549 2.878,2.878 0 0 1 -1.04,-1.941 2.345,2.345 0 0 1 0.9,-2.186 4.28,4.28 0 0 1 2.278,-0.962 2.284,2.284 0 0 1 1.505,0.355 2.883,2.883 0 0 1 1.261,2.815 2.415,2.415 0 0 1 -0.627,1.265 4.368,4.368 0 0 1 -2.843,1.2 m 0.934,-4.707 a 3.4,3.4 0 0 0 -2.153,1 1.628,1.628 0 0 0 1.21,2.761 3.178,3.178 0 0 0 2.238,-0.987 1.534,1.534 0 0 0 0.322,-1.787 1.614,1.614 0 0 0 -1.617,-0.984"
         class="prefix__cls-2"
         data-name="Path 17018" />
      <path
         id="prefix__Path_17019"
         d="m 219.436,384.855 -0.385,0.565 c -0.247,-0.152 -0.477,-0.292 -0.736,-0.449 a 27.023,27.023 0 0 1 2.7,-4.089 l 0.7,0.5 -0.446,0.664 3.934,2.87 a 4.658,4.658 0 0 1 -1.011,0.36 c -0.1,0.023 -0.243,-0.072 -0.343,-0.145 -0.931,-0.668 -1.856,-1.344 -2.784,-2.017 -0.114,-0.082 -0.232,-0.162 -0.371,-0.259 a 6.139,6.139 0 0 0 -0.754,1.144 l 4.158,2.5 a 3.971,3.971 0 0 1 -0.974,0.474 c -0.081,0.032 -0.222,-0.056 -0.32,-0.115 -0.973,-0.58 -1.945,-1.167 -2.916,-1.749 -0.141,-0.086 -0.286,-0.164 -0.448,-0.258"
         class="prefix__cls-2"
         data-name="Path 17019" />
      <path
         id="prefix__Path_17020"
         d="m 253.44,424.913 0.874,-0.468 3.586,3.276 a 0.6,0.6 0 0 0 0.02,-0.143 q -0.273,-1.788 -0.548,-3.574 c -0.045,-0.295 -0.074,-0.593 -0.125,-0.886 a 0.258,0.258 0 0 1 0.154,-0.319 c 0.2,-0.1 0.4,-0.2 0.634,-0.323 0.08,0.576 0.155,1.1 0.224,1.634 0.21,1.586 0.425,3.171 0.623,4.76 a 9.669,9.669 0 0 1 0.09,1.391 1.412,1.412 0 0 1 -1.077,1.4 c -0.262,0.072 -0.288,0.065 -0.446,-0.157 -0.1,-0.146 -0.2,-0.294 -0.316,-0.468 l 0.369,-0.157 a 0.964,0.964 0 0 0 0.662,-1.066 v -0.036 a 1.485,1.485 0 0 0 -0.581,-1.227 c -1.317,-1.1 -2.6,-2.257 -3.887,-3.394 -0.078,-0.068 -0.152,-0.142 -0.254,-0.241"
         class="prefix__cls-2"
         data-name="Path 17020" />
      <path
         id="prefix__Path_17021"
         d="m 225.842,423.007 c 0.326,0.173 0.6,0.315 0.882,0.468 l -0.711,4.812 3.611,-3.269 0.779,0.41 a 1.271,1.271 0 0 1 -0.158,0.207 c -1.7,1.5 -3.4,3.008 -5.107,4.5 a 3.86,3.86 0 0 1 -0.9,0.583 1.367,1.367 0 0 1 -1.53,-0.266 0.289,0.289 0 0 1 -0.106,-0.375 c 0.077,-0.184 0.15,-0.371 0.237,-0.586 0.141,0.1 0.255,0.177 0.374,0.248 a 0.972,0.972 0 0 0 1.252,-0.09 1.576,1.576 0 0 0 0.682,-1.178 c 0.162,-1.6 0.391,-3.2 0.594,-4.8 0.026,-0.2 0.057,-0.4 0.1,-0.667"
         class="prefix__cls-2"
         data-name="Path 17021" />
      <path
         id="prefix__Path_17022"
         d="m 255.7,375.719 0.543,-0.463 c 0.065,0.051 0.19,0.142 0.31,0.236 0.462,0.361 0.92,0.722 1.383,1.081 0.109,0.085 0.211,0.165 0.116,0.329 l 0.21,-0.119 2.193,2.043 -0.591,0.654 a 29.409,29.409 0 0 0 -2.946,-2.526 l -3.005,3.843 c -0.126,-0.384 -0.241,-0.7 -0.322,-1.012 a 0.413,0.413 0 0 1 0.1,-0.283 c 0.177,-0.249 0.37,-0.49 0.584,-0.768 l -0.249,-0.059 a 1.44,1.44 0 0 1 -0.8,-2.206 1.107,1.107 0 0 1 1.231,-0.442 c 0.642,0.15 0.711,0.246 0.661,0.892 a 2.327,2.327 0 0 1 -0.042,0.23 2.726,2.726 0 0 0 -0.38,-0.143 4.631,4.631 0 0 0 -0.77,-0.127 0.67,0.67 0 0 0 -0.387,0.148 0.3,0.3 0 0 0 0,0.512 1.151,1.151 0 0 0 0.732,0.247 h 0.753 l 1.132,-1.452 c -0.145,-0.12 -0.265,-0.215 -0.382,-0.312 -0.1,-0.079 -0.186,-0.16 -0.079,-0.3 z"
         class="prefix__cls-2"
         data-name="Path 17022" />
      <path
         id="prefix__Path_17023"
         d="m 233.033,372.13 0.235,0.459 0.045,-0.016 -0.107,-0.5 a 12.176,12.176 0 0 1 2.365,-0.667 l 0.218,0.789 c -0.262,0.086 -0.484,0.162 -0.75,0.252 l 1.325,4.651 a 4.246,4.246 0 0 1 -1.031,-0.3 c -0.064,-0.023 -0.1,-0.149 -0.134,-0.235 -0.086,-0.259 -0.159,-0.521 -0.247,-0.818 -0.121,0.089 -0.21,0.16 -0.3,0.226 a 1.443,1.443 0 0 1 -2.167,-0.852 1.323,1.323 0 0 1 0.955,-1.484 0.274,0.274 0 0 1 0.2,0.044 c 0.178,0.137 0.346,0.285 0.534,0.444 -0.2,0.131 -0.37,0.234 -0.527,0.357 a 1.194,1.194 0 0 0 -0.477,0.61 0.424,0.424 0 0 0 0.1,0.463 c 0.135,0.123 0.289,0.075 0.436,0.009 a 1.546,1.546 0 0 0 0.668,-0.628 c 0.073,-0.118 0.152,-0.231 0.257,-0.391 l -0.534,-1.849 c -0.909,0.327 -1.748,0.719 -2.661,1.057 -0.111,-0.265 -0.216,-0.522 -0.342,-0.826 l 1.954,-0.788"
         class="prefix__cls-2"
         data-name="Path 17023" />
      <path
         id="prefix__Path_17024"
         d="m 256.184,382.46 c -0.245,-0.029 -0.377,-0.127 -0.388,-0.363 a 7,7 0 0 1 0.127,-2.032 1.687,1.687 0 0 1 0.791,-1.063 0.939,0.939 0 0 1 1.513,0.779 l 0.017,0.243 c 0.774,-0.025 0.972,0.17 0.918,0.926 l 0.339,-0.12 c 0.1,0.111 0.2,0.213 0.281,0.325 0.25,0.335 0.867,0.135 1.007,-0.232 a 0.385,0.385 0 0 0 -0.093,-0.4 c -0.174,-0.211 -0.342,-0.427 -0.533,-0.666 l 0.675,-0.559 c 0.55,0.611 1.028,1.259 1.577,1.916 l -0.683,0.56 -0.441,-0.485 c -0.068,0.082 -0.129,0.149 -0.183,0.22 a 1.708,1.708 0 0 1 -1.006,0.638 1.219,1.219 0 0 1 -0.816,-0.146 0.423,0.423 0 0 0 0.013,0.589 1.609,1.609 0 0 0 0.784,0.542 c 0.145,0.05 0.3,0.076 0.507,0.128 a 8.133,8.133 0 0 1 -0.838,0.674 c -0.048,0.035 -0.164,0.008 -0.233,-0.024 a 1.438,1.438 0 0 1 -0.936,-1.9 9.06,9.06 0 0 1 0.37,-0.854 c -0.254,-0.417 -0.539,-0.457 -0.878,-0.109 -0.2,0.205 -0.392,0.416 -0.622,0.66 l -0.326,-0.731 c 0.162,-0.175 0.32,-0.351 0.481,-0.524 0.123,-0.133 0.264,-0.256 0.147,-0.465 a 0.577,0.577 0 0 0 -0.61,-0.277 0.885,0.885 0 0 0 -0.575,0.5 4.043,4.043 0 0 0 -0.311,1.354 c -0.03,0.294 -0.05,0.588 -0.075,0.89"
         class="prefix__cls-2"
         data-name="Path 17024" />
      <path
         id="prefix__Path_17025"
         d="m 262.15,419.225 0.651,-0.709 4.423,1.913 a 4.886,4.886 0 0 0 -0.415,-0.866 c -0.137,-0.291 -0.289,-0.576 -0.436,-0.862 -0.147,-0.286 -0.292,-0.575 -0.438,-0.862 l -0.44,-0.86 c -0.146,-0.287 -0.288,-0.573 -0.441,-0.875 l 0.64,-0.689 c 0.117,0.223 0.212,0.4 0.3,0.579 l 2.262,4.593 c 0.158,0.322 0.16,0.324 -0.083,0.581 -0.424,0.446 -0.288,0.414 -0.832,0.191 q -2.437,-0.988 -4.87,-1.987 c -0.095,-0.039 -0.189,-0.085 -0.322,-0.147"
         class="prefix__cls-2"
         data-name="Path 17025" />
      <path
         id="prefix__Path_17026"
         d="m 210.655,384.544 c 0.138,0.315 0.242,0.594 0.382,0.854 a 0.585,0.585 0 0 0 0.277,0.2 c 0.3,0.136 0.614,0.257 0.965,0.4 l -0.308,0.775 -4.028,-1.63 c 0.108,-0.266 0.2,-0.494 0.314,-0.768 0.586,0.231 1.153,0.455 1.719,0.68 l 0.06,-0.061 c -0.051,-0.115 -0.1,-0.229 -0.152,-0.343 -0.277,-0.583 -0.55,-1.166 -0.835,-1.745 a 0.505,0.505 0 0 1 -0.016,-0.476 c 0.109,-0.235 0.2,-0.479 0.325,-0.775 0.086,0.178 0.149,0.3 0.206,0.428 0.205,0.457 0.407,0.916 0.612,1.373 0.14,0.309 0.15,0.313 0.491,0.246 0.773,-0.151 1.546,-0.306 2.318,-0.457 0.125,-0.023 0.251,-0.036 0.434,-0.062 -0.132,0.331 -0.231,0.611 -0.36,0.876 a 0.386,0.386 0 0 1 -0.263,0.139 c -0.624,0.1 -1.25,0.191 -1.875,0.284 -0.07,0.01 -0.137,0.031 -0.266,0.061"
         class="prefix__cls-2"
         data-name="Path 17026" />
      <path
         id="prefix__Path_17027"
         d="m 228.675,368.516 c 0.25,-0.067 0.5,-0.137 0.749,-0.195 a 0.228,0.228 0 0 1 0.161,0.047 0.5,0.5 0 0 0 0.511,0.048 c 0.511,-0.17 0.632,-0.42 0.448,-0.93 -0.043,-0.122 -0.1,-0.239 -0.164,-0.406 -0.068,0.1 -0.115,0.161 -0.151,0.226 a 1.139,1.139 0 0 1 -1.743,0.372 1.94,1.94 0 0 1 -0.746,-1.872 1.183,1.183 0 0 1 1.6,-0.959 c 0.065,0.022 0.131,0.041 0.231,0.075 l -0.066,-0.384 c 0.2,-0.074 0.4,-0.154 0.627,-0.238 a 1.462,1.462 0 0 1 0.108,0.191 c 0.319,0.822 0.645,1.644 0.946,2.474 a 4.185,4.185 0 0 1 0.193,0.867 0.769,0.769 0 0 1 -0.3,0.7 2.486,2.486 0 0 1 -1.642,0.609 0.759,0.759 0 0 1 -0.768,-0.621 m -0.168,-2.521 a 1.646,1.646 0 0 0 0.336,0.916 0.661,0.661 0 0 0 0.75,0.271 0.707,0.707 0 0 0 0.494,-0.708 1.465,1.465 0 0 0 -0.392,-0.971 0.656,0.656 0 0 0 -0.781,-0.168 0.663,0.663 0 0 0 -0.407,0.66"
         class="prefix__cls-2"
         data-name="Path 17027" />
      <path
         id="prefix__Path_17028"
         d="m 215.247,374.544 0.559,-0.533 1.792,0.94 0.055,-0.052 c -0.307,-0.6 -0.7,-1.145 -1.032,-1.757 l 0.526,-0.55 1.822,1.028 a 4.049,4.049 0 0 0 -0.481,-0.961 c -0.161,-0.3 -0.336,-0.6 -0.515,-0.916 0.169,-0.178 0.322,-0.34 0.477,-0.5 a 19.114,19.114 0 0 1 1.591,2.867 l -0.553,0.506 c -0.549,-0.3 -1.125,-0.619 -1.7,-0.936 l -0.061,0.064 c 0.31,0.57 0.675,1.11 1.009,1.7 -0.171,0.184 -0.34,0.363 -0.532,0.566 -0.97,-0.483 -1.928,-0.958 -2.953,-1.466"
         class="prefix__cls-2"
         data-name="Path 17028" />
      <path
         id="prefix__Path_17029"
         d="m 225.728,364.833 2.1,3.79 -0.6,0.354 c -0.086,-0.109 -0.158,-0.2 -0.247,-0.309 a 1.542,1.542 0 0 0 -0.09,0.167 1.2,1.2 0 0 1 -1.995,0.528 2.258,2.258 0 0 1 -0.779,-1.415 1.223,1.223 0 0 1 1.422,-1.394 c 0.057,0.007 0.114,0 0.231,0 l -0.727,-1.34 0.688,-0.382 M 225.67,367 a 0.7,0.7 0 0 0 -0.767,0.731 1.6,1.6 0 0 0 0.517,1.029 0.676,0.676 0 0 0 0.819,0.131 0.693,0.693 0 0 0 0.325,-0.765 1.652,1.652 0 0 0 -0.494,-0.892 1.806,1.806 0 0 0 -0.4,-0.234"
         class="prefix__cls-2"
         data-name="Path 17029" />
      <path
         id="prefix__Path_17030"
         d="m 260.677,371.654 -0.309,0.279 -0.549,-0.429 c 0.879,-1.149 1.764,-2.266 2.661,-3.415 0.118,0.084 0.224,0.154 0.324,0.232 0.1,0.078 0.179,0.151 0.293,0.247 -0.3,0.4 -0.591,0.782 -0.914,1.207 0.14,0.016 0.217,0.028 0.295,0.033 a 1.219,1.219 0 0 1 1.133,1.527 2.146,2.146 0 0 1 -1.13,1.411 1.184,1.184 0 0 1 -1.762,-0.889 c -0.005,-0.046 -0.019,-0.091 -0.042,-0.2 m 0.439,-0.184 a 0.64,0.64 0 0 0 1,0.576 1.636,1.636 0 0 0 0.736,-0.974 0.6,0.6 0 0 0 -0.19,-0.648 0.637,0.637 0 0 0 -0.66,-0.155 1.5,1.5 0 0 0 -0.882,1.2"
         class="prefix__cls-2"
         data-name="Path 17030" />
      <path
         id="prefix__Path_17031"
         d="m 277.144,403.119 c -0.051,0.3 -0.1,0.578 -0.149,0.9 l -5.648,-1 c 0.053,-0.283 0.1,-0.523 0.147,-0.795 l 0.777,0.09 c -0.217,-0.264 -0.415,-0.467 -0.568,-0.7 a 0.965,0.965 0 0 1 -0.09,-0.828 1.7,1.7 0 0 1 0.448,-0.77 l 0.761,0.441 -0.153,0.279 a 1.006,1.006 0 0 0 0.481,1.494 4.936,4.936 0 0 0 1.085,0.346 c 0.853,0.171 1.714,0.306 2.57,0.456 0.093,0.018 0.185,0.046 0.339,0.083"
         class="prefix__cls-2"
         data-name="Path 17031" />
      <path
         id="prefix__Path_17032"
         d="m 222.98,388.17 v 0.559 c -0.192,0.067 -0.4,0.151 -0.613,0.212 a 0.625,0.625 0 0 0 -0.476,0.426 1.276,1.276 0 0 1 -0.275,0.413 0.451,0.451 0 0 1 -0.523,0.129 0.549,0.549 0 0 1 -0.383,-0.433 0.837,0.837 0 0 1 0.5,-0.907 0.43,0.43 0 0 0 0.244,-0.5 c -0.029,-0.257 -0.208,-0.37 -0.429,-0.24 a 7.513,7.513 0 0 0 -0.689,0.51 c -0.2,0.152 -0.383,0.326 -0.593,0.46 a 1.333,1.333 0 0 1 -0.494,0.192 0.548,0.548 0 0 1 -0.66,-0.633 0.38,0.38 0 0 1 0.018,-0.106 c 0.3,-0.791 0.6,-1.582 0.9,-2.387 a 3.306,3.306 0 0 1 0.831,0.268 l -0.71,1.907 0.065,0.034 a 2.843,2.843 0 0 1 0.239,-0.251 6,6 0 0 1 0.792,-0.6 0.769,0.769 0 0 1 1.131,0.324 5.287,5.287 0 0 1 0.3,0.771 c 0.1,-0.016 0.233,-0.035 0.367,-0.058 0.134,-0.023 0.278,-0.053 0.463,-0.088"
         class="prefix__cls-2"
         data-name="Path 17032" />
      <path
         id="prefix__Path_17033"
         d="m 260.49,390.054 c 0.091,-0.4 0.163,-0.717 0.227,-1.029 0.033,-0.164 0.173,-0.184 0.291,-0.231 q 1.326,-0.541 2.653,-1.075 c 0.321,-0.13 0.638,-0.263 0.985,-0.406 -0.07,-0.217 -0.132,-0.417 -0.2,-0.653 l 0.807,-0.327 0.928,2.282 c -0.273,0.116 -0.53,0.223 -0.819,0.344 l -0.326,-0.735 -2.237,0.9 c -0.738,0.3 -1.479,0.6 -2.3,0.929"
         class="prefix__cls-2"
         data-name="Path 17033" />
      <path
         id="prefix__Path_17034"
         d="m 267.657,379.917 c 0.057,-0.116 0.1,-0.21 0.156,-0.316 -0.1,-0.047 -0.188,-0.088 -0.274,-0.125 a 1.313,1.313 0 0 1 -0.709,-0.765 0.861,0.861 0 0 1 0.268,-1.029 0.841,0.841 0 0 1 1.087,-0.014 6.631,6.631 0 0 1 0.527,0.481 c 0.139,0.13 0.278,0.261 0.421,0.389 a 0.539,0.539 0 0 0 0.116,0.061 c 0.3,-0.18 0.351,-0.278 0.3,-0.5 a 0.774,0.774 0 0 0 -0.783,-0.584 c -0.043,-0.093 -0.1,-0.2 -0.141,-0.306 -0.041,-0.106 -0.069,-0.2 -0.109,-0.313 a 1,1 0 0 1 1.024,0.175 2.461,2.461 0 0 1 0.7,1.064 0.759,0.759 0 0 1 -0.283,0.949 c -0.3,0.215 -0.612,0.413 -0.922,0.615 a 3.236,3.236 0 0 0 -0.978,0.83 c -0.138,-0.213 -0.258,-0.4 -0.395,-0.609 m 1.124,-1.048 a 7.658,7.658 0 0 0 -0.686,-0.607 0.371,0.371 0 0 0 -0.6,0.3 0.669,0.669 0 0 0 0.142,0.421 c 0.283,0.352 0.71,0.31 1.139,-0.115"
         class="prefix__cls-2"
         data-name="Path 17034" />
      <path
         id="prefix__Path_17035"
         d="m 215.134,375.751 a 1.652,1.652 0 0 1 0.056,3.3 1.768,1.768 0 0 1 -1.7,-1.657 1.682,1.682 0 0 1 1.644,-1.646 m -0.157,0.753 a 0.745,0.745 0 0 0 -0.73,1 1.309,1.309 0 0 0 1.1,0.783 0.749,0.749 0 0 0 0.708,-1.019 1.325,1.325 0 0 0 -1.08,-0.764"
         class="prefix__cls-2"
         data-name="Path 17035" />
      <path
         id="prefix__Path_17036"
         d="m 223.479,370.093 0.671,-0.3 a 1.163,1.163 0 0 1 -0.178,1.116 1.721,1.721 0 0 1 -0.96,0.649 1.274,1.274 0 0 1 -1.177,-0.264 2.121,2.121 0 0 1 -0.776,-1.252 1.3,1.3 0 0 1 0.52,-1.357 1.345,1.345 0 0 1 1.478,-0.191 2.07,2.07 0 0 1 0.842,0.816 c -0.546,0.431 -1.136,0.784 -1.671,1.2 a 0.7,0.7 0 0 0 0.856,0.371 c 0.306,-0.1 0.414,-0.307 0.4,-0.787 m -0.5,-0.7 c -0.33,-0.432 -0.705,-0.509 -1.009,-0.252 a 0.629,0.629 0 0 0 0.011,0.952 l 1,-0.7"
         class="prefix__cls-2"
         data-name="Path 17036" />
      <path
         id="prefix__Path_17037"
         d="m 232.367,365.485 c 0.14,0.444 0.37,0.649 0.683,0.652 0.313,0.003 0.492,-0.146 0.65,-0.607 0.221,-0.02 0.461,-0.039 0.743,-0.063 a 1.211,1.211 0 0 1 -0.533,0.972 1.808,1.808 0 0 1 -1.047,0.307 1.167,1.167 0 0 1 -0.921,-0.407 2.01,2.01 0 0 1 -0.468,-1.831 1.288,1.288 0 0 1 1.092,-1 1.31,1.31 0 0 1 1.44,0.557 1.782,1.782 0 0 1 0.336,0.879 l -1.975,0.545 m 1.1,-0.794 c -0.179,-0.538 -0.52,-0.733 -0.9,-0.564 a 0.609,0.609 0 0 0 -0.271,0.882 c 0.38,-0.1 0.767,-0.208 1.173,-0.318"
         class="prefix__cls-2"
         data-name="Path 17037" />
      <path
         id="prefix__Path_17038"
         d="m 271.761,384.813 c -0.3,-0.632 -0.581,-1.234 -0.863,-1.83 a 0.636,0.636 0 0 0 -0.54,0.666 c 0.012,0.36 0.176,0.514 0.71,0.64 l 0.189,0.675 a 1.057,1.057 0 0 1 -1.01,-0.295 1.661,1.661 0 0 1 -0.53,-1.141 1.516,1.516 0 0 1 0.148,-0.686 2.061,2.061 0 0 1 2.056,-0.914 1.446,1.446 0 0 1 0.678,2.353 2.013,2.013 0 0 1 -0.838,0.532 m 0.078,-0.938 c 0.451,-0.172 0.623,-0.524 0.46,-0.879 -0.163,-0.355 -0.536,-0.449 -0.977,-0.231 l 0.517,1.11"
         class="prefix__cls-2"
         data-name="Path 17038" />
      <path
         id="prefix__Path_17039"
         d="m 265.577,374.888 -1.421,-1.459 a 0.667,0.667 0 0 0 -0.293,0.817 c 0.123,0.318 0.33,0.407 0.889,0.371 0.08,0.114 0.17,0.238 0.254,0.366 0.047,0.068 0.083,0.143 0.131,0.229 a 1.085,1.085 0 0 1 -1.162,-0.038 2.523,2.523 0 0 1 -0.594,-0.559 1.223,1.223 0 0 1 -0.1,-1.411 2.14,2.14 0 0 1 1.056,-0.983 1.354,1.354 0 0 1 1.6,0.365 1.339,1.339 0 0 1 0.209,1.621 2.291,2.291 0 0 1 -0.562,0.681 m -0.228,-0.9 c 0.384,-0.374 0.409,-0.751 0.105,-1.026 a 0.63,0.63 0 0 0 -0.952,0.141 l 0.847,0.885"
         class="prefix__cls-2"
         data-name="Path 17039" />
      <path
         id="prefix__Path_17040"
         d="m 253.379,366.363 -1.924,-0.614 a 0.66,0.66 0 0 0 0.117,0.855 c 0.276,0.239 0.519,0.219 0.948,-0.1 l 0.641,0.336 a 1.094,1.094 0 0 1 -1.076,0.525 2.5,2.5 0 0 1 -0.814,-0.238 1.218,1.218 0 0 1 -0.7,-1.194 2.174,2.174 0 0 1 0.463,-1.329 1.358,1.358 0 0 1 1.541,-0.455 1.314,1.314 0 0 1 0.986,1.3 1.959,1.959 0 0 1 -0.178,0.915 m -0.614,-0.689 a 0.648,0.648 0 0 0 -0.112,-0.8 0.561,0.561 0 0 0 -0.658,-0.128 0.549,0.549 0 0 0 -0.382,0.554 l 1.152,0.372"
         class="prefix__cls-2"
         data-name="Path 17040" />
      <path
         id="prefix__Path_17041"
         d="m 214.663,380.915 c -0.385,-0.221 -0.744,-0.429 -1.106,-0.633 -0.217,-0.123 -0.432,-0.254 -0.658,-0.361 -0.333,-0.16 -0.56,-0.115 -0.734,0.12 a 0.645,0.645 0 0 0 0.053,0.852 2.219,2.219 0 0 0 0.429,0.32 c 0.358,0.218 0.721,0.421 1.082,0.632 0.09,0.054 0.177,0.113 0.286,0.184 l -0.382,0.675 c -0.9,-0.522 -1.787,-1.031 -2.7,-1.561 l 0.337,-0.614 c 0.133,0.051 0.239,0.091 0.379,0.142 -0.017,-0.15 -0.03,-0.264 -0.04,-0.379 a 1.237,1.237 0 0 1 0.138,-0.727 0.92,0.92 0 0 1 1.351,-0.445 c 0.655,0.341 1.288,0.723 1.966,1.107 l -0.4,0.688"
         class="prefix__cls-2"
         data-name="Path 17041" />
      <path
         id="prefix__Path_17042"
         d="m 273.786,387.7 -0.352,-0.606 a 0.794,0.794 0 0 0 0.008,-1.024 c -0.066,-0.113 -0.16,-0.223 -0.317,-0.169 -0.134,0.045 -0.164,0.163 -0.159,0.291 0.006,0.19 0.022,0.381 0.031,0.571 a 6.679,6.679 0 0 1 0.026,0.786 0.834,0.834 0 0 1 -1.153,0.749 1.085,1.085 0 0 1 -0.56,-0.427 2.171,2.171 0 0 1 -0.4,-1.418 1.086,1.086 0 0 1 0.51,-0.86 c 0.123,0.229 0.24,0.443 0.361,0.665 a 0.787,0.787 0 0 0 -0.137,1.057 0.68,0.68 0 0 0 0.157,0.193 0.266,0.266 0 0 0 0.466,-0.182 2.38,2.38 0 0 0 -0.017,-0.356 c -0.016,-0.31 -0.043,-0.619 -0.042,-0.929 a 0.792,0.792 0 0 1 0.543,-0.8 0.84,0.84 0 0 1 0.975,0.249 2.178,2.178 0 0 1 0.514,1.453 0.868,0.868 0 0 1 -0.451,0.759"
         class="prefix__cls-2"
         data-name="Path 17042" />
      <path
         id="prefix__Path_17043"
         d="m 222.034,427.326 -0.781,-0.508 3.119,-4.808 0.783,0.506 -3.121,4.81"
         class="prefix__cls-2"
         data-name="Path 17043" />
      <path
         id="prefix__Path_17044"
         d="m 271.169,417.537 -0.534,0.764 -4.692,-3.286 0.526,-0.77 4.7,3.292"
         class="prefix__cls-2"
         data-name="Path 17044" />
      <path
         id="prefix__Path_17045"
         d="m 248.626,432.219 -0.916,0.164 -1.092,-5.616 c 0.31,-0.058 0.594,-0.113 0.916,-0.175 l 1.092,5.627"
         class="prefix__cls-2"
         data-name="Path 17045" />
      <path
         id="prefix__Path_17046"
         d="m 257.333,364.88 0.732,0.4 -1.746,3.16 1.907,1.075 c -0.108,0.2 -0.2,0.384 -0.321,0.6 l -2.66,-1.473 c 0.7,-1.257 1.382,-2.493 2.088,-3.77"
         class="prefix__cls-2"
         data-name="Path 17046" />
      <path
         id="prefix__Path_17047"
         d="m 269.682,382.084 -0.469,0.354 a 4.358,4.358 0 0 1 -0.385,-0.475 0.7,0.7 0 0 1 0.247,-1.094 c 0.373,-0.238 0.76,-0.45 1.14,-0.675 0.123,-0.072 0.244,-0.147 0.383,-0.231 l -0.113,-0.363 0.467,-0.277 0.245,0.27 a 0.444,0.444 0 0 0 0.141,-0.05 0.586,0.586 0 0 1 0.833,0.015 c 0.091,0.07 0.193,0.125 0.34,0.22 -0.321,0.193 -0.6,0.362 -0.906,0.543 0.078,0.165 0.149,0.313 0.236,0.5 -0.158,0.1 -0.312,0.195 -0.486,0.3 l -0.343,-0.469 c -0.482,0.283 -0.955,0.556 -1.423,0.838 a 0.236,0.236 0 0 0 -0.064,0.371 c 0.046,0.067 0.1,0.132 0.157,0.221"
         class="prefix__cls-2"
         data-name="Path 17047" />
      <path
         id="prefix__Path_17048"
         d="m 218.4,369.757 0.612,-0.5 c 0.933,1.11 1.844,2.2 2.781,3.315 l -0.6,0.522 -2.8,-3.335"
         class="prefix__cls-2"
         data-name="Path 17048" />
      <path
         id="prefix__Path_17049"
         d="m 250.109,375.791 c 0.181,-0.354 0.333,-0.659 0.494,-0.963 0.068,-0.128 0.19,-0.131 0.313,-0.1 a 1.227,1.227 0 0 1 0.849,0.658 1.956,1.956 0 0 1 -0.674,2.5 0.569,0.569 0 0 1 -0.728,-0.041 0.4,0.4 0 0 1 0.1,-0.707 2.492,2.492 0 0 0 0.5,-0.265 1.1,1.1 0 0 0 0.316,-0.378 0.446,0.446 0 0 0 -0.28,-0.656 2.891,2.891 0 0 0 -0.6,-0.078 1.656,1.656 0 0 0 -0.3,0.034"
         class="prefix__cls-2"
         data-name="Path 17049" />
      <path
         id="prefix__Path_17050"
         d="m 265.571,376.977 -0.5,-0.61 2.431,-1.968 0.44,0.533 -0.236,0.3 c 0.293,0.042 0.581,0.018 0.772,0.256 a 0.709,0.709 0 0 1 0.194,0.514 l -0.6,0.227 c -0.047,-0.09 -0.081,-0.165 -0.12,-0.235 a 0.485,0.485 0 0 0 -0.719,-0.241 3.977,3.977 0 0 0 -0.629,0.408 c -0.343,0.256 -0.673,0.529 -1.035,0.817"
         class="prefix__cls-2"
         data-name="Path 17050" />
      <path
         id="prefix__Path_17051"
         d="m 216.806,388.638 1.169,-3.044 0.838,0.319 -1.167,3.044 -0.84,-0.319"
         class="prefix__cls-2"
         data-name="Path 17051" />
      <path
         id="prefix__Path_17052"
         d="m 260.127,367.906 0.671,0.418 -1.653,2.651 -0.675,-0.416 c 0.559,-0.9 1.1,-1.761 1.657,-2.653"
         class="prefix__cls-2"
         data-name="Path 17052" />
      <path
         id="prefix__Path_17053"
         d="m 259.456,388.466 a 1.35,1.35 0 0 1 0.733,0.761 0.7,0.7 0 0 1 0.013,0.623 3.143,3.143 0 0 1 -0.345,0.582 c -0.281,0.356 -0.585,0.694 -0.884,1.034 -0.149,0.168 -0.155,0.163 -0.455,0.058 0.047,-0.082 0.086,-0.163 0.137,-0.236 0.269,-0.38 0.546,-0.755 0.808,-1.14 0.179,-0.264 0.167,-0.334 -0.056,-0.557 -0.16,-0.159 -0.331,-0.308 -0.527,-0.489 0.1,-0.108 0.183,-0.214 0.277,-0.316 0.094,-0.102 0.195,-0.209 0.3,-0.32"
         class="prefix__cls-2"
         data-name="Path 17053" />
      <path
         id="prefix__Path_17054"
         d="m 253.586,374.756 c -0.645,-0.328 -1.257,-0.642 -1.891,-0.964 0.138,-0.271 0.259,-0.514 0.4,-0.8 l 1.893,0.96 c -0.139,0.278 -0.265,0.527 -0.4,0.8"
         class="prefix__cls-2"
         data-name="Path 17054" />
      <path
         id="prefix__Path_17055"
         d="m 255.7,375.719 -0.008,0.008 c -0.087,0.118 -0.183,0.077 -0.28,0.016 -0.535,-0.333 -1.071,-0.667 -1.639,-1.023 0.157,-0.255 0.3,-0.492 0.47,-0.763 0.6,0.374 1.183,0.736 1.782,1.111 l -0.325,0.651"
         class="prefix__cls-2"
         data-name="Path 17055" />
      <path
         id="prefix__Path_17056"
         d="m 265.016,414.364 -0.885,-0.619 0.537,-0.757 0.876,0.61 -0.528,0.766"
         class="prefix__cls-2"
         data-name="Path 17056" />
      <path
         id="prefix__Path_17057"
         d="m 225.574,420.16 0.752,0.488 a 5.079,5.079 0 0 1 -0.566,0.916 l -0.773,-0.5 c 0.2,-0.311 0.386,-0.594 0.587,-0.9"
         class="prefix__cls-2"
         data-name="Path 17057" />
      <path
         id="prefix__Path_17058"
         d="m 260.389,367.495 c 0.136,-0.218 0.246,-0.4 0.381,-0.612 l 0.668,0.409 -0.379,0.616 -0.67,-0.413"
         class="prefix__cls-2"
         data-name="Path 17058" />
    </g>
  </g>
</svg>
