<?xml version="1.0" standalone="no"?>
<!DOCTYPE svg PUBLIC "-//W3C//DTD SVG 20010904//EN"
 "http://www.w3.org/TR/2001/REC-SVG-20010904/DTD/svg10.dtd">
<svg version="1.0" xmlns="http://www.w3.org/2000/svg"
 width="381.000000pt" height="381.000000pt" viewBox="0 0 381.000000 381.000000"
 preserveAspectRatio="xMidYMid meet">

<g transform="translate(0.000000,381.000000) scale(0.100000,-0.100000)"
fill="#000000" stroke="none">
<path d="M1 2983 c1 -751 2 -821 15 -748 66 370 242 714 503 987 298 311 657
502 1079 573 66 11 -41 13 -760 14 l-838 1 1 -827z"/>
<path d="M2235 3790 c123 -22 200 -42 307 -80 86 -30 198 -79 198 -85 0 -6
-43 11 -105 39 -105 49 -406 116 -520 116 -23 0 -47 6 -54 13 -11 10 -14 10
-18 0 -3 -9 -34 -13 -106 -13 -56 0 -136 -7 -177 -15 -41 -9 -88 -17 -103 -20
-53 -8 -222 -57 -272 -79 -85 -36 -288 -141 -334 -172 -24 -16 -64 -42 -90
-58 -192 -121 -256 -166 -361 -256 -287 -245 -484 -585 -567 -979 -23 -109
-27 -150 -27 -301 0 -244 34 -445 109 -645 54 -141 176 -372 223 -420 11 -11
30 -36 44 -56 62 -92 334 -339 427 -388 14 -7 42 -24 61 -36 19 -13 58 -35 85
-50 28 -15 55 -30 60 -34 6 -4 56 -27 111 -50 90 -38 103 -47 112 -75 9 -27
10 -28 11 -7 1 25 16 25 78 -1 15 -6 32 -10 36 -9 5 1 38 -8 74 -19 74 -23
155 -37 298 -54 92 -10 100 -13 103 -34 2 -12 10 -22 18 -22 10 0 13 7 8 24
-5 23 -3 24 38 22 36 -1 43 -4 46 -24 4 -27 33 -30 29 -3 -1 11 3 20 8 20 6 0
9 -9 8 -20 -2 -10 3 -19 10 -19 7 0 13 10 14 21 1 12 4 23 6 26 3 2 49 11 103
19 147 21 221 39 350 85 49 17 106 40 127 50 21 11 42 17 47 14 6 -3 10 -1 10
5 0 6 12 15 26 20 55 21 234 134 242 153 2 4 7 7 12 7 10 0 53 35 90 74 l28
29 5 -24 c4 -24 4 -24 6 1 0 14 9 33 19 41 9 9 40 42 68 75 29 32 62 71 75 85
13 15 33 39 44 55 44 63 57 70 125 73 35 1 71 8 79 14 37 30 -123 -168 -204
-252 -107 -111 -205 -192 -339 -279 -113 -74 -255 -145 -274 -137 -7 2 -11 1
-7 -4 14 -24 -278 -110 -485 -144 -14 -2 350 -5 808 -6 l832 -1 0 838 c-1 731
-3 834 -15 812 -17 -29 -19 -54 -5 -45 7 4 9 -2 6 -17 -31 -139 -60 -249 -90
-330 -33 -91 -129 -295 -159 -338 -13 -19 -14 -18 -15 12 -1 24 -10 42 -37 66
l-36 33 30 50 c51 82 158 309 186 394 25 77 40 130 71 260 8 33 17 141 21 240
4 114 10 183 17 187 6 4 14 -2 18 -15 3 -12 6 357 7 821 l1 842 -837 -1 c-838
-1 -838 -1 -738 -19z m-315 -97 c0 -3 -8 -15 -17 -26 -17 -19 -17 -20 3 -9 11
6 26 18 34 26 9 11 30 16 71 16 54 0 59 -2 65 -24 4 -16 11 -23 20 -19 10 3
12 13 8 26 -6 19 -4 20 77 13 101 -8 220 -32 229 -46 3 -5 19 -8 35 -7 28 2
29 1 26 -45 -1 -25 5 -67 14 -93 8 -26 14 -50 11 -52 -3 -3 -47 11 -98 31
-122 47 -244 81 -343 96 -44 7 -85 19 -91 26 -9 11 -17 11 -41 2 -34 -13 -68
-5 -57 14 5 8 2 9 -12 3 -10 -5 -84 -12 -164 -17 -79 -4 -169 -12 -199 -18
-119 -22 -105 -1 27 39 154 47 402 87 402 64z m667 -89 c12 -8 28 -14 35 -14
19 0 98 -32 98 -40 0 -3 -31 -31 -70 -61 -38 -30 -70 -57 -70 -61 0 -17 22 -6
77 40 92 77 89 76 173 31 40 -22 84 -49 97 -59 l25 -19 -41 -28 c-22 -15 -40
-34 -41 -40 0 -19 8 -16 54 22 l43 35 39 -26 c70 -48 244 -201 244 -216 0 -3
17 -23 37 -44 88 -93 231 -314 204 -314 -5 0 -11 -7 -14 -14 -4 -10 -1 -13 9
-9 8 3 14 -1 14 -11 0 -8 6 -13 13 -10 25 9 102 -199 145 -391 25 -111 27
-137 27 -340 0 -189 -4 -234 -23 -321 -12 -56 -25 -111 -29 -122 -5 -11 -8 79
-9 201 -1 176 -5 243 -21 325 -15 78 -16 102 -7 102 7 0 15 -12 17 -27 3 -24
4 -22 6 8 1 41 -7 53 -26 38 -7 -6 -13 -10 -13 -8 0 6 -64 187 -86 242 -13 33
-15 50 -8 55 7 4 11 40 12 85 0 64 4 81 19 92 10 7 15 17 10 21 -4 4 -7 2 -7
-4 0 -7 -7 -12 -15 -12 -8 0 -15 6 -15 13 0 7 -13 26 -29 41 -26 25 -35 28
-68 23 -57 -9 -74 -1 -117 59 -158 219 -421 430 -699 560 -30 15 -40 27 -51
63 -8 25 -21 61 -28 79 -11 30 -11 35 5 43 9 6 17 17 17 25 0 17 29 12 67 -12z
m188 6 c3 -6 -1 -7 -9 -4 -18 7 -21 14 -7 14 6 0 13 -4 16 -10z m95 -56 c0 -2
-13 2 -30 11 -16 9 -30 18 -30 21 0 2 14 -2 30 -11 17 -9 30 -18 30 -21z
m-1315 -44 c-28 -12 -78 -12 -70 0 3 6 25 10 48 9 33 0 38 -2 22 -9z m1463
-48 c15 -13 1 -6 -30 14 -32 20 -58 39 -58 41 0 7 58 -29 88 -55z m-1563 28
c-3 -5 -14 -10 -23 -10 -68 0 -425 -160 -521 -234 -105 -81 -116 -78 -28 7
106 103 226 168 402 217 44 12 85 24 90 25 25 8 86 4 80 -5z m680 -45 c112
-16 248 -52 342 -92 60 -25 63 -27 81 -82 11 -31 23 -64 27 -73 5 -13 2 -18
-9 -18 -11 0 -16 -9 -16 -30 0 -23 4 -30 20 -30 28 0 35 41 20 105 -17 72 -12
79 36 48 38 -25 42 -31 42 -71 1 -24 4 -53 8 -64 8 -28 46 -19 62 15 7 15 16
27 20 27 25 0 223 -197 302 -299 14 -18 35 -44 47 -59 12 -14 19 -30 17 -34
-3 -5 -81 -6 -172 -3 -92 3 -179 2 -194 -2 -14 -4 -59 -37 -99 -73 -40 -36
-77 -65 -83 -65 -6 0 -16 -9 -22 -20 -7 -14 -19 -19 -40 -18 -26 2 -27 1 -12
-11 16 -12 15 -15 -10 -39 -16 -15 -31 -27 -35 -27 -5 0 -31 -25 -60 -55 l-52
-56 -55 51 c-62 59 -172 115 -250 130 -29 5 -87 10 -130 10 -67 0 -78 3 -86
20 -7 14 -13 17 -24 10 -12 -8 -13 -12 -2 -19 10 -6 3 -11 -24 -16 -30 -5 -41
-3 -50 10 -10 13 -17 14 -33 5 -12 -6 -21 -18 -21 -28 0 -10 -24 -30 -58 -50
-31 -18 -79 -53 -106 -78 l-50 -45 -30 31 c-27 27 -29 32 -15 40 15 9 230 175
274 211 11 10 103 83 205 163 102 81 197 157 211 169 14 12 34 27 45 33 20 12
33 49 15 43 -13 -5 -91 -65 -179 -138 -35 -30 -86 -71 -112 -90 -26 -20 -65
-50 -86 -68 -21 -18 -79 -64 -129 -104 -49 -39 -92 -75 -95 -79 -3 -3 -32 -28
-65 -55 -33 -26 -64 -54 -70 -60 -29 -35 -44 -27 -170 93 -22 21 -76 69 -119
107 l-79 70 -101 2 c-56 0 -106 2 -112 2 -6 1 -9 14 -6 31 3 23 0 30 -12 30
-12 0 -14 -7 -9 -30 5 -30 5 -30 -38 -31 -24 -1 -85 -3 -136 -5 -56 -2 -95 1
-99 7 -3 6 3 13 15 16 12 3 21 13 21 24 0 39 236 265 343 329 23 13 47 30 52
36 11 14 49 36 155 88 41 21 83 42 94 48 28 15 222 78 240 78 9 0 16 -4 16
-10 0 -5 -6 -10 -14 -10 -16 0 -31 -18 -23 -26 9 -9 47 16 47 30 0 20 21 33
66 40 l41 6 7 -41 c9 -54 33 -89 61 -89 27 0 40 14 49 54 5 20 10 26 15 17 6
-10 12 -9 25 4 19 20 11 42 -9 25 -10 -9 -16 -6 -25 10 -6 11 -8 25 -5 30 9
15 296 12 410 -5z m-427 -40 c4 -74 -28 -86 -62 -22 -25 46 -16 69 26 65 31
-3 33 -6 36 -43z m1367 15 c10 -11 16 -20 13 -20 -3 0 -13 9 -23 20 -10 11
-16 20 -13 20 3 0 13 -9 23 -20z m50 -40 c10 -11 16 -20 13 -20 -3 0 -13 9
-23 20 -10 11 -16 20 -13 20 3 0 13 -9 23 -20z m80 -70 c21 -22 37 -40 34 -40
-3 0 -23 18 -44 40 -21 22 -37 40 -34 40 3 0 23 -18 44 -40z m157 -162 c62
-74 40 -57 -32 25 -35 39 -51 61 -36 47 15 -14 46 -46 68 -72z m-616 47 c6
-16 -12 -45 -28 -45 -15 0 -21 30 -8 45 16 19 29 19 36 0z m-2133 -132 c-26
-34 -57 -78 -75 -107 -4 -6 -26 -45 -49 -86 -48 -84 -53 -90 -92 -90 -43 0
-69 -50 -64 -120 4 -47 0 -67 -33 -140 -128 -290 -178 -576 -151 -860 23 -236
56 -367 144 -564 25 -57 36 -91 29 -98 -14 -14 -124 215 -167 347 -65 204 -70
244 -70 515 1 217 3 256 23 340 49 211 125 397 229 560 26 41 50 77 53 80 3 3
24 31 47 62 52 69 192 213 200 205 3 -3 -8 -23 -24 -44z m2812 7 c10 -11 16
-20 13 -20 -3 0 -13 9 -23 20 -10 11 -16 20 -13 20 3 0 13 -9 23 -20z m55 -75
c17 -25 29 -45 26 -45 -3 0 -19 20 -36 45 -17 25 -29 45 -26 45 3 0 19 -20 36
-45z m68 -107 c62 -110 72 -129 63 -124 -5 3 -19 25 -31 48 -12 24 -33 62 -47
86 -14 23 -23 42 -20 42 3 0 19 -24 35 -52z m-2469 -160 c61 -48 371 -333 371
-341 0 -14 -26 7 -170 138 -72 66 -156 142 -187 168 l-55 48 -311 -1 c-171 -1
-319 -6 -328 -10 -9 -5 -19 -22 -22 -37 -10 -56 29 -93 99 -93 27 0 43 -8 62
-28 52 -56 54 -77 59 -756 4 -657 3 -680 -39 -764 -18 -36 -70 -62 -122 -62
-36 0 -52 -5 -71 -25 -30 -29 -31 -49 -5 -75 19 -19 33 -20 455 -20 l435 0 0
50 c0 33 -4 50 -12 51 -113 7 -171 30 -200 77 -43 71 -47 125 -48 684 0 289 3
533 6 542 3 9 17 16 30 16 23 0 46 -17 159 -120 28 -25 70 -62 94 -83 23 -21
40 -41 37 -44 -5 -6 -41 23 -126 101 -84 77 -148 126 -164 126 -15 0 -16 -50
-16 -537 1 -542 4 -606 38 -670 17 -30 55 -52 114 -64 108 -21 98 -12 98 -84
l0 -65 -435 0 c-301 0 -442 3 -459 11 -34 16 -52 62 -37 95 13 30 66 54 120
54 29 0 47 7 69 28 56 53 56 53 60 732 3 662 1 709 -42 773 -19 27 -30 33 -76
39 -42 5 -60 13 -77 33 -37 42 -27 117 18 133 11 4 162 6 337 4 295 -4 318 -6
341 -24z m2367 4 c22 -28 17 -87 -9 -118 -18 -21 -35 -28 -75 -32 -41 -3 -57
-10 -72 -30 -11 -13 -20 -32 -20 -41 0 -10 -6 -23 -12 -29 -10 -10 -14 -158
-16 -654 -3 -628 -2 -642 18 -709 24 -78 60 -109 124 -109 74 0 124 -49 110
-106 -13 -53 -26 -54 -499 -54 l-435 0 0 65 c0 59 2 65 23 69 12 3 46 10 76
16 63 12 104 39 119 77 28 73 32 151 32 659 0 457 -2 525 -15 530 -14 6 -71
-39 -232 -182 -29 -26 -53 -42 -53 -36 0 9 52 58 215 205 43 38 72 46 93 25 9
-9 12 -141 12 -532 0 -624 -5 -666 -80 -729 -17 -15 -50 -29 -78 -33 -26 -4
-51 -9 -57 -9 -5 -1 -18 -3 -27 -3 -15 -2 -18 -12 -18 -52 l0 -50 437 0 c392
0 438 2 455 17 18 16 23 49 10 69 -13 21 -51 34 -94 34 -25 0 -55 8 -71 19
-77 51 -79 65 -75 821 3 497 7 654 17 684 17 53 55 86 98 86 75 0 118 51 91
108 l-13 27 -322 3 -321 2 -49 -41 c-26 -23 -70 -62 -98 -88 -69 -63 -226
-203 -247 -220 -10 -7 -18 -9 -18 -4 0 8 308 293 371 342 24 19 43 21 195 23
93 2 243 2 333 0 141 -2 166 -5 177 -20z m279 -237 c48 -151 68 -247 52 -257
-21 -13 -24 -9 -30 45 -6 62 -53 260 -72 302 -7 17 -18 46 -23 65 -5 19 -13
44 -16 55 -3 11 7 -7 24 -40 16 -33 45 -109 65 -170z m-604 158 c13 -16 12
-17 -3 -4 -10 7 -18 15 -18 17 0 8 8 3 21 -13z m-2430 -26 c-10 -9 -11 -8 -5
6 3 10 9 15 12 12 3 -3 0 -11 -7 -18z m230 6 c13 -16 12 -17 -3 -4 -10 7 -18
15 -18 17 0 8 8 3 21 -13z m-74 -15 c24 -12 38 -56 28 -88 -11 -34 -94 -66
-109 -41 -3 5 10 11 30 14 37 6 64 22 64 38 0 5 -23 9 -51 9 -31 0 -48 4 -44
10 3 6 26 10 51 10 24 0 44 4 44 8 0 17 -26 32 -56 32 -34 0 -54 15 -32 23 15
6 44 0 75 -15z m2211 4 c2 -8 -8 -12 -30 -12 -32 0 -58 -14 -58 -32 0 -4 20
-8 45 -8 25 0 45 -4 45 -10 0 -5 -21 -10 -46 -10 -38 0 -45 -3 -42 -17 2 -12
18 -21 46 -27 48 -11 56 -26 13 -26 -46 0 -81 35 -81 80 0 41 13 57 57 70 33
10 45 8 51 -8z m-165 -35 c-3 -20 -10 -37 -15 -37 -6 0 -7 7 -4 16 3 9 9 27
12 40 9 37 14 24 7 -19z m-1173 3 c0 -5 -7 -10 -16 -10 -8 0 -12 5 -9 10 3 6
10 10 16 10 5 0 9 -4 9 -10z m1449 -37 c1 -7 -3 -13 -9 -13 -5 0 -10 15 -9 33
0 27 2 29 9 12 5 -11 9 -26 9 -32z m-1127 16 c132 -28 261 -121 330 -237 44
-73 92 -206 109 -302 19 -103 19 -549 0 -645 -74 -377 -258 -557 -571 -557
-324 -1 -516 196 -575 589 -31 208 -16 570 31 733 44 153 153 304 265 365 109
59 281 81 411 54z m1448 -21 c0 -5 -7 -8 -15 -8 -15 0 -20 21 -8 33 7 7 23
-11 23 -25z m-2823 0 c-3 -8 -6 -5 -6 6 -1 11 2 17 5 13 3 -3 4 -12 1 -19z
m280 -10 c-3 -8 -6 -5 -6 6 -1 11 2 17 5 13 3 -3 4 -12 1 -19z m-433 -20 c35
-54 51 -293 21 -318 -11 -9 -12 -17 -5 -30 16 -31 11 -67 -11 -81 -28 -19 -39
-133 -15 -164 12 -16 17 -17 24 -7 13 20 22 -8 22 -67 0 -45 -2 -49 -51 -86
-29 -22 -63 -48 -76 -59 -15 -11 -28 -15 -34 -9 -5 5 -12 49 -15 98 -3 50 -8
108 -11 130 -12 88 -5 285 12 340 10 30 15 61 12 70 -8 19 3 75 14 75 4 0 14
-18 20 -40 7 -22 18 -40 26 -40 17 0 17 15 0 32 -17 16 -36 110 -29 143 6 35
38 33 45 -2 11 -55 29 -128 34 -133 2 -2 8 2 13 10 5 9 3 25 -7 45 -30 58 -33
65 -33 83 0 37 23 42 44 10z m2373 0 c-3 -8 -6 -5 -6 6 -1 11 2 17 5 13 3 -3
4 -12 1 -19z m512 -4 c16 -36 4 -44 -19 -14 -23 30 -25 40 -7 40 8 0 19 -12
26 -26z m-2309 13 c0 -1 -13 -15 -30 -30 -16 -16 -30 -26 -30 -22 0 3 12 17
26 30 25 23 34 29 34 22z m2060 -34 c-11 -17 -11 -17 -6 0 3 10 6 24 7 30 0 9
2 9 5 0 3 -7 0 -20 -6 -30z m-379 10 c13 -16 12 -17 -3 -4 -17 13 -22 21 -14
21 2 0 10 -8 17 -17z m-2080 -20 c13 -16 12 -17 -3 -4 -10 7 -18 15 -18 17 0
8 8 3 21 -13z m224 -21 c-15 -16 -16 -15 -4 12 7 15 15 23 17 16 3 -7 -3 -19
-13 -28z m1995 18 c6 -11 8 -20 6 -20 -3 0 -10 9 -16 20 -6 11 -8 20 -6 20 3
0 10 -9 16 -20z m-1710 -5 c9 -11 10 -18 1 -28 -8 -11 -6 -18 9 -32 56 -51
-28 -110 -88 -62 -23 18 -10 60 25 82 38 24 37 41 -1 37 -18 -2 -25 1 -21 7 9
16 61 13 75 -4z m1500 4 c0 -6 -9 -9 -19 -6 -40 10 -45 -10 -7 -34 41 -27 52
-50 36 -79 -16 -29 -86 -31 -107 -2 -17 21 -16 24 7 50 11 11 17 28 14 36 -11
29 4 46 41 46 19 0 35 -5 35 -11z m98 -24 c-3 -3 -9 2 -12 12 -6 14 -5 15 5 6
7 -7 10 -15 7 -18z m309 -10 c-15 -14 -33 -25 -39 -25 -6 0 4 11 23 24 44 32
51 32 16 1z m323 -6 c20 -36 80 -231 91 -294 5 -33 12 -67 15 -76 3 -11 -3
-18 -16 -22 -23 -6 -27 -27 -5 -27 10 0 15 -10 15 -33 0 -18 5 -38 12 -45 27
-27 18 -291 -16 -472 -18 -98 -74 -270 -87 -270 -6 0 -17 -7 -25 -15 -8 -8
-25 -21 -36 -30 -12 -8 -19 -17 -16 -20 3 -3 20 6 37 21 39 32 44 29 23 -12
-10 -17 -26 -47 -36 -67 -23 -42 -33 -45 -64 -17 l-22 21 24 48 c14 26 41 58
60 72 34 23 46 39 28 39 -4 0 -13 -5 -20 -12 -24 -24 -21 1 12 99 19 55 44
156 56 224 36 206 47 509 19 545 -5 6 -16 50 -24 97 -8 47 -26 121 -40 164
-14 43 -25 84 -25 91 0 20 28 14 40 -9z m-2401 -36 c0 -33 -1 -35 -9 -15 -8
20 -4 52 6 52 2 0 4 -17 3 -37z m1778 -10 c-3 -10 -5 -2 -5 17 0 19 2 27 5 18
2 -10 2 -26 0 -35z m168 29 c-3 -3 -11 0 -18 7 -9 10 -8 11 6 5 10 -3 15 -9
12 -12z m-448 -24 c-3 -7 -5 -2 -5 12 0 14 2 19 5 13 2 -7 2 -19 0 -25z m794
-1 c26 -20 74 -239 85 -392 7 -81 6 -83 -20 -106 -33 -29 -34 -42 -1 -27 14 6
27 9 28 7 8 -10 -13 -235 -32 -331 -20 -108 -73 -290 -91 -318 -7 -10 -10 85
-9 297 1 172 4 311 8 308 4 -2 8 -21 9 -41 1 -21 7 -42 13 -48 8 -8 9 5 4 49
-4 33 -13 65 -21 71 -11 9 -14 62 -14 278 0 277 1 284 41 253z m-388 -41 c-10
-13 -20 -22 -22 -20 -4 4 29 44 36 44 2 0 -4 -11 -14 -24z m-133 6 c0 -5 -7
-17 -15 -28 -14 -18 -14 -17 -4 9 12 27 19 34 19 19z m-1520 -32 c-6 -11 -13
-20 -16 -20 -2 0 0 9 6 20 6 11 13 20 16 20 2 0 0 -9 -6 -20z m1320 -47 c0 -2
-11 4 -25 13 -14 9 -25 20 -25 25 0 5 11 -1 25 -13 14 -12 25 -23 25 -25z
m-1735 -3 c0 -12 -13 -15 -60 -15 -50 0 -60 3 -63 18 -3 16 3 18 60 15 48 -2
63 -7 63 -18z m2223 -3 c3 -16 -3 -18 -60 -15 -51 2 -63 6 -66 21 -3 16 3 18
60 15 51 -2 63 -6 66 -21z m-201 -24 c-3 -10 -5 -4 -5 12 0 17 2 24 5 18 2 -7
2 -21 0 -30z m-2022 -23 c0 -12 -13 -15 -60 -15 -50 0 -60 3 -63 18 -3 16 3
18 60 15 48 -2 63 -7 63 -18z m2220 0 c0 -11 -14 -16 -54 -18 -55 -3 -79 7
-66 28 11 18 120 9 120 -10z m-2800 -192 c0 -237 16 -345 77 -533 38 -117 112
-283 149 -337 26 -36 24 -68 -6 -101 -21 -22 -35 -27 -71 -27 -33 0 -46 4 -51
18 -3 9 -16 40 -28 67 -72 163 -136 438 -134 574 l0 46 18 -50 c10 -27 37
-108 60 -179 37 -117 39 -130 25 -141 -11 -8 -14 -19 -10 -33 17 -52 51 0 42
62 -8 50 -105 346 -118 363 -7 9 -6 15 5 19 20 7 27 27 17 44 -7 11 -11 11
-24 1 -14 -12 -16 -7 -16 48 0 95 43 361 58 361 4 0 7 -91 7 -202z m3510 152
c-6 -10 -35 -14 -35 -5 0 3 6 14 12 25 11 16 14 17 21 5 4 -8 5 -20 2 -25z
m-1017 -80 c0 -94 -2 -107 -14 -95 -8 8 -21 12 -28 9 -7 -3 -16 2 -20 11 -4
10 2 18 16 24 14 5 17 10 10 15 -12 7 -52 -27 -52 -43 0 -16 31 -41 51 -41 10
0 19 -7 19 -15 0 -8 -9 -15 -20 -15 -11 0 -20 -7 -20 -15 0 -22 25 -18 43 8
15 20 16 -10 16 -358 0 -408 -7 -489 -46 -529 -21 -21 -100 -46 -148 -46 -52
0 -55 -5 -55 -110 0 -119 -7 -114 153 -109 l110 4 12 -58 c6 -31 22 -72 35
-89 l23 -32 -39 -33 c-91 -77 -290 -156 -489 -195 -223 -43 -675 -25 -675 27
0 9 9 15 21 15 19 0 21 4 15 38 -18 104 -19 105 -54 72 -22 -20 -27 -47 -23
-104 2 -27 1 -28 -26 -22 -15 4 -29 12 -31 17 -2 5 -14 9 -27 9 -26 0 -100 22
-150 45 -17 7 -52 23 -78 34 -56 24 -190 102 -195 113 -2 4 -19 15 -38 24 -19
9 -34 22 -34 30 0 7 -6 11 -12 9 -14 -5 -128 81 -128 96 0 5 50 9 111 9 102 0
111 -1 103 -17 -14 -32 -16 -90 -4 -112 8 -16 19 -21 38 -19 26 3 27 6 27 58
-1 30 -4 64 -8 75 -7 17 -6 17 9 -3 9 -12 25 -22 35 -22 11 0 19 -7 19 -15 0
-8 -7 -15 -15 -15 -18 0 -20 -16 -4 -26 18 -11 48 37 42 67 -4 22 -1 26 19 25
22 -1 23 2 26 89 1 50 -2 96 -7 103 -4 8 -44 20 -87 27 -43 8 -89 20 -101 26
-42 23 -47 64 -50 399 -1 173 -3 320 -3 325 -4 61 1 355 6 368 3 10 1 17 -5
17 -6 0 -11 11 -11 25 0 32 13 32 30 1 7 -14 18 -22 25 -20 6 3 41 -23 76 -56
35 -34 79 -73 97 -87 29 -23 33 -31 28 -57 -3 -17 -6 -114 -7 -216 -1 -102 -5
-190 -11 -197 -6 -7 -5 -14 2 -18 5 -3 10 -21 10 -38 0 -29 26 -168 48 -257
11 -44 58 -155 80 -189 49 -75 157 -180 217 -210 71 -35 192 -62 262 -57 48 3
63 0 67 -11 5 -12 9 -12 23 3 16 16 18 15 30 -14 16 -38 31 -48 40 -26 4 10 2
19 -5 22 -17 5 -15 32 2 32 7 0 17 -10 21 -22 8 -22 8 -22 12 5 4 22 10 27 32
27 15 0 36 9 46 20 10 11 23 20 29 20 15 1 82 52 143 111 65 63 130 193 168
339 27 102 28 113 30 404 l2 299 104 97 c57 54 111 105 119 114 8 9 15 16 17
16 1 0 2 -49 1 -110z m352 56 c0 -2 -8 -10 -17 -17 -16 -13 -17 -12 -4 4 13
16 21 21 21 13z m-2390 -91 c-7 -8 -17 -15 -23 -15 -6 0 -2 7 9 15 25 19 30
19 14 0z m2344 6 c4 -5 -3 -7 -14 -4 -23 6 -26 13 -6 13 8 0 17 -4 20 -9z
m-2546 -63 c-2 -35 -7 -63 -13 -62 -14 1 -18 29 -10 80 10 67 26 53 23 -18z
m2412 49 c0 -2 -12 -14 -27 -28 l-28 -24 24 28 c23 25 31 32 31 24z m170 -7
c0 -5 -2 -10 -4 -10 -3 0 -8 5 -11 10 -3 6 -1 10 4 10 6 0 11 -4 11 -10z
m-2311 -66 c34 -15 61 -33 61 -40 0 -8 -27 -27 -60 -44 -68 -34 -70 -35 -70
-16 0 8 20 22 45 33 25 10 45 20 45 24 0 3 -20 15 -45 27 -25 12 -45 26 -45
32 0 14 1 14 69 -16z m2281 16 c0 -6 -20 -20 -45 -32 -25 -12 -45 -24 -45 -27
0 -4 18 -15 41 -25 40 -20 55 -33 46 -42 -6 -7 -137 58 -137 68 0 9 109 67
128 68 6 0 12 -5 12 -10z m77 -72 c-2 -13 -4 -5 -4 17 -1 22 1 32 4 23 2 -10
2 -28 0 -40z m-2230 5 c-3 -10 -5 -4 -5 12 0 17 2 24 5 18 2 -7 2 -21 0 -30z
m1950 0 c-3 -10 -5 -4 -5 12 0 17 2 24 5 18 2 -7 2 -21 0 -30z m-2181 -85 l29
-33 -32 29 c-31 28 -38 36 -30 36 2 0 16 -15 33 -32z m2215 10 c11 -21 11 -22
-4 -9 -10 7 -17 17 -17 22 0 15 9 10 21 -13z m-2001 9 c0 -2 -12 -14 -27 -28
l-28 -24 24 28 c23 25 31 32 31 24z m2050 -47 c8 -5 11 -10 5 -10 -5 0 -17 5
-25 10 -8 5 -10 10 -5 10 6 0 17 -5 25 -10z m130 0 c-8 -5 -22 -9 -30 -9 -10
0 -8 3 5 9 27 12 43 12 25 0z m-2250 -10 c-8 -5 -24 -9 -35 -9 -16 1 -16 2 5
9 35 11 48 11 30 0z m2193 -7 c-7 -2 -19 -2 -25 0 -7 3 -2 5 12 5 14 0 19 -2
13 -5z m-2493 -298 c0 -140 -2 -255 -5 -255 -9 0 -45 79 -45 100 0 11 -5 20
-10 20 -7 0 -9 20 -4 60 6 52 4 60 -10 60 -19 0 -22 -16 -4 -22 10 -4 10 -10
1 -29 l-12 -24 0 25 c-1 15 -5 30 -10 35 -15 16 -52 155 -47 173 3 10 31 35
61 57 30 22 55 43 55 48 0 4 7 7 15 7 13 0 15 -35 15 -255z m2571 238 c13 -16
12 -17 -3 -4 -17 13 -22 21 -14 21 2 0 10 -8 17 -17z m-2199 -48 c11 -21 8
-18 -32 30 -24 29 -24 29 -2 10 13 -11 28 -29 34 -40z m-76 -14 c-10 -11 -31
-25 -47 -31 -36 -15 -37 -25 -1 -38 36 -13 67 -38 56 -44 -11 -7 -134 52 -134
63 0 10 109 68 129 69 11 0 10 -4 -3 -19z m2204 -11 c33 -17 60 -34 60 -38 0
-10 -131 -75 -137 -68 -9 9 9 26 49 47 l41 21 -46 26 c-44 24 -60 42 -37 42 6
0 37 -14 70 -30z m-153 -47 c-3 -10 -5 -2 -5 17 0 19 2 27 5 18 2 -10 2 -26 0
-35z m-1957 2 c0 -8 -4 -15 -10 -15 -5 0 -7 7 -4 15 4 8 8 15 10 15 2 0 4 -7
4 -15z m-32 -75 c-7 -10 -14 -17 -17 -15 -4 4 18 35 25 35 2 0 -1 -9 -8 -20z
m2242 0 c-6 -11 -13 -20 -16 -20 -2 0 0 9 6 20 6 11 13 20 16 20 2 0 0 -9 -6
-20z m-212 -10 c7 -11 11 -20 9 -20 -2 0 -12 9 -22 20 -10 11 -14 20 -9 20 5
0 15 -9 22 -20z m-2058 -20 c0 -5 -5 -10 -11 -10 -5 0 -7 5 -4 10 3 6 8 10 11
10 2 0 4 -4 4 -10z m2105 -18 c-3 -3 -11 0 -18 7 -9 10 -8 11 6 5 10 -3 15 -9
12 -12z m-25 -56 c0 -2 -7 -7 -16 -10 -8 -3 -12 -2 -9 4 6 10 25 14 25 6z
m-2250 -16 c0 -5 -5 -10 -11 -10 -5 0 -7 5 -4 10 3 6 8 10 11 10 2 0 4 -4 4
-10z m191 -7 c13 -16 12 -17 -3 -4 -10 7 -18 15 -18 17 0 8 8 3 21 -13z m-116
-53 c3 -6 15 -5 30 2 31 14 43 3 27 -23 -10 -16 -11 -24 -1 -35 18 -22 -4 -42
-26 -24 -12 10 -18 10 -30 0 -8 -6 -19 -9 -25 -5 -14 9 -13 32 3 38 10 4 10 7
0 18 -7 7 -13 19 -13 26 0 15 26 18 35 3z m2230 0 c4 -6 13 -5 25 2 27 17 50
-3 30 -27 -10 -12 -10 -18 0 -30 19 -22 -3 -44 -25 -25 -12 10 -18 10 -30 0
-24 -20 -44 3 -27 30 7 12 8 21 2 25 -15 9 -12 35 4 35 8 0 18 -4 21 -10z
m-118 -47 c-3 -10 -5 -2 -5 17 0 19 2 27 5 18 2 -10 2 -26 0 -35z m38 -83 c10
-11 16 -20 13 -20 -3 0 -13 9 -23 20 -10 11 -16 20 -13 20 3 0 13 -9 23 -20z
m190 -10 c-10 -11 -22 -20 -28 -20 -5 0 1 9 14 20 31 25 37 25 14 0z m-2380
-72 c-11 -6 -28 -18 -38 -26 -16 -14 -17 -14 -12 0 3 8 16 20 28 26 29 14 47
14 22 0z m137 -10 c13 -13 17 -18 8 -12 -8 6 -24 16 -35 22 -11 6 -15 12 -8
12 7 0 22 -10 35 -22z m2082 7 c-10 -8 -23 -15 -28 -15 -6 0 -1 7 10 15 10 8
23 15 28 15 6 0 1 -7 -10 -15z m157 -12 c13 -16 12 -17 -3 -4 -10 7 -18 15
-18 17 0 8 8 3 21 -13z m-191 -17 c0 -2 -7 -9 -15 -16 -13 -11 -14 -10 -9 4 5
14 24 23 24 12z m240 -89 c0 -34 -23 -97 -36 -97 -2 0 3 14 12 31 16 31 16 91
0 134 -5 13 -2 11 8 -5 8 -14 15 -42 16 -63z m-2352 51 c-3 -7 -11 -13 -18
-13 -7 0 -15 6 -17 13 -3 7 4 12 17 12 13 0 20 -5 18 -12z m2225 -3 c1 -5 -6
-11 -15 -13 -11 -2 -18 3 -18 13 0 17 30 18 33 0z m-2183 -45 c0 -18 -7 -20
-60 -20 -53 0 -60 2 -60 20 0 18 7 20 60 20 53 0 60 -2 60 -20z m70 -61 c-7
-15 -19 -34 -27 -41 -9 -8 -7 1 6 22 11 19 22 51 22 70 2 32 2 32 6 6 3 -15
-1 -41 -7 -57z m1957 44 c-3 -10 -5 -4 -5 12 0 17 2 24 5 18 2 -7 2 -21 0 -30z
m203 17 c0 -15 -7 -20 -25 -20 -20 0 -25 -5 -25 -25 0 -28 -17 -34 -27 -9 -3
9 0 20 8 25 10 6 4 9 -18 9 -33 0 -49 13 -38 30 3 6 33 10 66 10 52 0 59 -2
59 -20z m-2274 -41 c10 -17 -13 -36 -27 -22 -12 12 -4 33 11 33 5 0 12 -5 16
-11z m2123 -64 c26 -29 26 -30 1 -10 -34 28 -49 47 -49 65 0 10 3 9 11 -5 6
-11 22 -33 37 -50z m-2085 -202 c85 -80 111 -101 191 -154 110 -72 145 -93
218 -127 37 -18 67 -36 67 -40 0 -4 10 -8 22 -9 12 -1 50 -12 84 -24 44 -16
61 -26 57 -36 -5 -11 1 -13 28 -8 19 3 64 -1 104 -10 71 -17 167 -34 218 -39
16 -2 33 -9 38 -17 5 -8 9 -9 9 -3 0 7 57 13 168 18 92 3 202 12 245 19 42 8
77 12 77 11 0 -10 -112 -50 -205 -74 -246 -64 -487 -73 -744 -29 -55 10 -66
15 -80 41 -26 48 -49 74 -57 65 -5 -4 -3 -11 3 -15 14 -9 36 -62 25 -62 -24 0
-82 23 -82 32 0 6 -9 8 -20 5 -27 -7 -235 98 -317 160 -53 39 -63 51 -63 77
-1 29 -2 30 -14 13 -14 -17 -17 -16 -57 20 -47 42 -152 151 -193 199 -45 55
-40 58 95 51 l121 -6 62 -58z m2014 21 c4 -46 17 -63 34 -46 9 9 8 15 -6 25
-11 8 -17 23 -14 38 4 32 32 31 36 -1 6 -41 23 -50 20 -10 l-3 35 48 3 c26 2
47 -1 47 -5 0 -15 -132 -153 -146 -153 -18 0 -41 35 -60 93 -13 39 -14 51 -4
57 27 17 45 4 48 -36z m272 32 c0 -3 -4 -8 -10 -11 -5 -3 -10 -1 -10 4 0 6 5
11 10 11 6 0 10 -2 10 -4z m-1987 -43 c13 -29 12 -73 -2 -73 -13 0 -28 22 -35
53 -12 51 15 65 37 20z m1931 -124 c-54 -58 -230 -198 -313 -249 -99 -61 -210
-116 -311 -154 -101 -37 -305 -86 -355 -85 -34 0 -24 5 60 29 198 55 401 143
535 232 36 24 119 77 185 118 66 41 142 91 170 112 57 43 72 42 29 -3z m-1420
-121 c10 -37 7 -56 -9 -62 -12 -4 -15 4 -15 39 0 48 14 60 24 23z"/>
<path d="M2390 3630 c0 -5 5 -10 11 -10 5 0 7 5 4 10 -3 6 -8 10 -11 10 -2 0
-4 -4 -4 -10z"/>
<path d="M2737 3427 c-3 -8 -3 -33 0 -56 8 -56 28 -48 24 10 -3 47 -15 70 -24
46z"/>
<path d="M3216 3095 c-3 -8 -1 -15 4 -15 6 0 10 -15 10 -32 0 -40 14 -68 23
-45 3 7 1 20 -4 28 -5 8 -9 29 -9 47 0 33 -14 43 -24 17z"/>
<path d="M3191 3084 c0 -11 3 -14 6 -6 3 7 2 16 -1 19 -3 4 -6 -2 -5 -13z"/>
<path d="M3181 3025 c0 -22 4 -47 9 -55 8 -13 12 -13 27 3 16 16 16 17 1 12
-13 -5 -19 -1 -22 17 -3 12 -7 32 -9 43 -3 11 -5 2 -6 -20z"/>
<path d="M3620 2150 c-8 -5 -12 -11 -9 -14 2 -3 11 -1 19 4 8 5 12 11 9 14 -2
3 -11 1 -19 -4z"/>
<path d="M1977 3375 c-65 -50 -150 -117 -157 -125 -3 -3 -21 -17 -40 -30 -19
-13 -43 -31 -52 -39 -9 -9 -23 -20 -30 -26 -7 -5 -44 -35 -81 -65 -68 -54 -69
-56 -64 -95 9 -66 25 -158 32 -190 l7 -30 -21 25 c-18 21 -22 23 -31 10 -15
-22 -12 -40 5 -34 9 4 15 0 15 -8 0 -21 36 -51 50 -43 7 4 9 18 5 34 -4 14
-15 78 -26 141 l-19 114 27 28 c15 15 31 28 35 28 5 0 19 9 31 21 12 12 47 39
77 62 50 37 88 67 145 115 11 10 53 44 93 76 78 63 90 76 70 76 -7 -1 -39 -21
-71 -45z"/>
<path d="M1382 3303 c-7 -3 -19 -18 -27 -33 -24 -46 10 -99 55 -88 6 2 17 -5
23 -14 9 -14 8 -21 -6 -35 -15 -16 -19 -16 -27 -3 -12 20 -23 6 -15 -19 15
-48 79 -3 79 56 0 41 -19 63 -56 63 -33 0 -47 23 -28 45 10 12 16 13 27 3 13
-10 15 -9 12 6 -4 21 -17 27 -37 19z"/>
<path d="M2070 3255 c0 -8 -4 -15 -10 -15 -5 0 -10 -10 -10 -21 0 -18 -2 -20
-16 -9 -25 21 -47 -10 -52 -74 -4 -46 -1 -57 12 -62 24 -9 32 4 18 26 -15 24
-16 94 -2 85 6 -3 10 -24 10 -45 0 -43 12 -57 30 -36 9 11 9 20 0 36 -6 12 -9
24 -7 27 3 2 8 -5 12 -16 8 -26 26 -27 48 -1 21 25 22 40 1 40 -9 0 -12 -5 -8
-11 4 -7 1 -10 -7 -7 -8 2 -15 17 -17 33 -3 21 0 26 11 22 15 -6 31 26 19 37
-11 12 -32 6 -32 -9z"/>
<path d="M1258 3210 c-26 -16 -33 -98 -13 -148 25 -63 80 -72 102 -17 27 70 1
168 -47 172 -14 2 -32 -2 -42 -7z m50 -42 c23 -43 32 -90 21 -109 -14 -27 -24
-24 -48 15 -28 44 -29 116 -3 116 10 0 24 -10 30 -22z"/>
<path d="M1909 3209 c-6 -43 -9 -159 -4 -159 3 0 15 4 25 10 14 8 19 5 24 -13
4 -15 8 -18 14 -10 10 15 3 83 -8 83 -4 0 -11 15 -14 34 -4 19 -13 39 -21 46
-8 7 -15 11 -16 9z m24 -99 c3 -11 1 -20 -4 -20 -5 0 -9 9 -9 20 0 11 2 20 4
20 2 0 6 -9 9 -20z"/>
<path d="M1146 3118 c-23 -33 -21 -125 4 -165 32 -52 65 -43 88 24 13 40 -3
55 -20 19 -15 -34 -34 -33 -53 4 -28 55 -14 118 20 90 12 -10 16 -9 21 4 17
44 -33 64 -60 24z"/>
<path d="M950 3119 c0 -5 5 -7 10 -4 6 3 10 8 10 11 0 2 -4 4 -10 4 -5 0 -10
-5 -10 -11z"/>
<path d="M2593 3073 c-18 -7 -15 -62 5 -105 14 -30 21 -35 35 -27 20 12 23 74
5 114 -11 25 -21 28 -45 18z m36 -88 c-1 -15 -4 -13 -14 10 -8 17 -14 39 -14
50 1 15 4 13 14 -10 8 -16 14 -39 14 -50z"/>
<path d="M1672 3058 c-17 -17 -15 -31 2 -25 19 7 25 -9 18 -50 -3 -21 0 -33 7
-33 6 0 11 5 11 11 0 6 7 9 15 5 19 -7 19 8 1 24 -8 6 -12 18 -10 25 6 15 -12
55 -24 55 -5 0 -13 -5 -20 -12z"/>
<path d="M1815 3013 c-24 -23 -26 -28 -12 -31 17 -3 75 35 76 51 2 17 -36 5
-64 -20z"/>
<path d="M970 2988 c0 -7 5 -29 10 -48 9 -30 7 -37 -11 -51 -12 -9 -20 -24
-18 -34 4 -17 5 -18 21 -2 24 25 36 21 43 -13 10 -46 25 -35 19 14 -5 38 -3
47 15 58 12 7 21 18 21 25 0 15 -26 17 -35 3 -11 -18 -22 -11 -31 22 -9 32
-34 51 -34 26z"/>
<path d="M1617 2973 c-3 -5 0 -46 7 -93 9 -61 16 -86 27 -88 26 -5 45 50 41
116 -2 16 -8 22 -27 22 -18 0 -25 5 -25 19 0 21 -15 36 -23 24z m50 -135 c-3
-22 -4 -21 -11 4 -5 16 -5 36 0 45 7 16 8 15 11 -4 3 -13 3 -33 0 -45z"/>
<path d="M2940 2935 c0 -4 8 -20 17 -38 10 -18 23 -48 30 -67 l12 -35 -5 40
c-5 42 -33 105 -46 105 -5 0 -8 -2 -8 -5z"/>
<path d="M2860 2901 c0 -11 5 -23 10 -26 6 -3 10 3 10 14 0 11 -4 23 -10 26
-5 3 -10 -3 -10 -14z"/>
<path d="M2894 2859 c-4 -7 1 -16 10 -21 9 -5 16 -16 16 -23 0 -8 5 -15 10
-15 13 0 13 26 0 51 -12 21 -25 24 -36 8z"/>
<path d="M2870 2832 c0 -18 5 -32 10 -32 6 0 8 11 4 28 -10 39 -14 40 -14 4z"/>
<path d="M1424 2789 c-3 -5 0 -17 7 -26 11 -13 10 -17 -4 -28 -10 -7 -15 -19
-11 -29 4 -11 10 -13 18 -7 8 7 15 4 23 -9 10 -14 9 -21 -2 -30 -14 -12 -21
-40 -10 -40 13 0 74 64 69 72 -3 5 -11 4 -19 -2 -20 -17 -30 36 -10 56 21 22
19 27 -10 20 -18 -5 -23 -3 -19 8 6 16 -22 30 -32 15z"/>
<path d="M1315 2730 c-3 -5 -1 -27 4 -47 5 -21 12 -58 15 -81 2 -24 7 -46 10
-50 7 -6 8 8 6 67 -1 29 2 41 9 37 6 -4 11 -23 11 -42 0 -34 19 -50 21 -16 0
9 2 24 3 32 2 8 -1 26 -5 39 -7 17 -15 22 -29 18 -16 -4 -20 0 -20 18 0 26
-15 41 -25 25z"/>
<path d="M2430 2560 c0 -5 5 -10 10 -10 6 0 10 5 10 10 0 6 -4 10 -10 10 -5 0
-10 -4 -10 -10z"/>
<path d="M1770 2549 c-131 -26 -258 -129 -328 -267 -81 -161 -105 -290 -105
-572 -1 -211 8 -293 45 -430 80 -294 249 -433 528 -434 161 0 267 40 366 139
78 77 146 210 174 340 53 248 48 611 -12 803 -74 241 -212 387 -397 422 -64
12 -208 11 -271 -1z m275 -158 c75 -35 157 -122 185 -197 46 -124 55 -203 54
-494 0 -242 -3 -286 -21 -365 -28 -121 -61 -190 -118 -248 -174 -176 -439
-122 -546 111 -44 97 -60 202 -66 437 -12 456 58 676 240 761 78 36 190 34
272 -5z"/>
<path d="M1823 2396 c-133 -43 -211 -151 -250 -342 -24 -123 -25 -600 -1 -714
34 -158 104 -260 213 -311 157 -75 336 0 419 175 43 91 57 184 63 422 8 303
-14 479 -72 593 -31 61 -107 137 -164 162 -59 26 -153 33 -208 15z m172 -46
c23 -9 25 -13 15 -25 -15 -18 1 -20 18 -3 8 8 13 2 18 -29 5 -34 9 -40 25 -36
18 5 19 7 3 24 -9 10 -13 23 -9 29 4 7 19 -1 41 -24 32 -33 45 -66 25 -66 -5
0 -16 -6 -23 -13 -56 -54 -193 -167 -203 -167 -6 0 -20 9 -30 20 -14 16 -16
23 -7 32 19 19 14 49 -8 55 -20 5 -28 23 -10 23 6 0 10 7 10 15 0 18 -12 19
-28 3 -20 -20 -14 -48 13 -60 30 -13 33 -28 5 -28 -26 0 -172 128 -163 143 28
45 71 77 138 104 38 14 135 16 170 3z m-214 -249 c104 -93 125 -108 141 -100
11 6 69 55 129 110 60 54 115 99 122 99 6 0 -4 -15 -23 -32 -19 -17 -75 -68
-123 -112 -102 -93 -112 -100 -131 -89 -8 4 -55 46 -105 92 -50 46 -103 92
-116 103 -22 17 -33 38 -21 38 3 0 60 -49 127 -109z m279 -171 c0 -5 1 -13 3
-17 1 -5 -18 -10 -43 -13 l-45 -5 -3 -94 c-4 -122 13 -147 63 -94 28 32 32 25
10 -17 -25 -48 -97 -53 -108 -8 -3 12 -3 66 0 120 l6 99 -39 -3 -39 -3 -8 -84
c-11 -110 -26 -156 -52 -156 -25 0 -24 19 3 95 11 30 23 76 27 103 7 43 5 47
-13 47 -10 0 -31 -9 -45 -20 -36 -29 -42 -25 -18 13 11 17 30 35 43 39 38 10
258 9 258 -2z m-419 -166 c8 -9 71 -69 142 -131 l128 -115 92 83 c50 46 122
112 158 147 37 35 72 63 78 61 15 -6 8 -13 -139 -143 -74 -66 -147 -130 -162
-144 l-27 -24 -27 21 c-15 12 -58 50 -94 84 -37 34 -101 93 -143 130 -42 38
-77 73 -77 78 0 12 50 -22 71 -47z m604 -151 c-9 -170 -40 -342 -73 -408 -91
-182 -317 -231 -451 -97 -34 34 -51 61 -61 97 -7 28 -19 57 -25 65 -18 22 -32
98 -47 250 -9 104 -9 135 0 138 7 2 10 13 6 28 -5 18 -2 24 9 24 14 0 177
-146 253 -227 43 -45 76 -44 124 5 40 39 89 82 96 82 2 0 38 36 80 80 42 44
81 80 86 80 6 0 7 -45 3 -117z"/>
<path d="M2001 2275 c-1 -41 12 -60 35 -51 17 7 17 9 4 19 -9 7 -21 23 -27 37
l-12 25 0 -30z"/>
<path d="M1857 2264 c-8 -8 1 -24 14 -24 5 0 9 7 9 15 0 15 -12 20 -23 9z"/>
<path d="M1916 2255 c-17 -13 -17 -15 -1 -59 10 -25 22 -46 27 -46 9 0 9 8 -8
68 -4 12 -2 22 4 22 6 0 13 -13 17 -30 4 -16 13 -30 21 -30 15 0 19 16 5 24
-4 3 -11 19 -14 36 -7 33 -22 37 -51 15z"/>
<path d="M1874 2197 c13 -54 27 -80 36 -71 12 12 -13 87 -30 92 -9 3 -11 -3
-6 -21z"/>
<path d="M2058 1467 c-33 -24 -53 -46 -48 -51 9 -9 40 15 40 31 0 5 16 17 35
27 19 11 35 23 35 28 0 12 1 12 -62 -35z"/>
<path d="M2185 1461 c-3 -5 -1 -12 5 -16 5 -3 10 1 10 9 0 18 -6 21 -15 7z"/>
<path d="M1870 1436 c0 -1 4 -16 9 -32 5 -16 17 -56 27 -89 9 -33 22 -66 27
-72 6 -9 5 -18 -3 -28 -15 -18 -7 -30 14 -22 12 5 14 15 10 39 -7 37 -29 107
-50 155 -8 17 -14 36 -14 42 0 6 -4 11 -10 11 -5 0 -10 -2 -10 -4z"/>
<path d="M1961 1389 c-35 -28 -22 -32 14 -3 17 13 26 24 20 24 -5 -1 -21 -10
-34 -21z"/>
<path d="M2027 1353 c-2 -5 -1 -19 4 -33 4 -15 7 -18 8 -8 1 9 4 23 7 32 6 16
-11 23 -19 9z"/>
<path d="M2126 1341 c-4 -7 -5 -15 -2 -18 9 -9 19 4 14 18 -4 11 -6 11 -12 0z"/>
<path d="M2017 1284 c-3 -3 -3 -12 -1 -19 3 -7 -4 -16 -15 -20 -20 -6 -20 -8
-5 -36 8 -16 19 -27 25 -23 6 4 6 11 -2 21 -9 10 -9 17 -2 21 15 10 25 49 15
56 -5 3 -12 3 -15 0z"/>
<path d="M1947 1143 c-12 -12 -7 -22 8 -17 10 4 15 0 15 -12 0 -9 3 -15 6 -11
8 7 -5 47 -15 47 -4 0 -11 -3 -14 -7z"/>
<path d="M389 2082 c-11 -11 -15 -28 -12 -49 7 -45 23 -42 24 5 l1 37 9 -33
c6 -18 14 -30 20 -26 6 3 7 13 3 23 -4 9 -6 26 -5 39 1 26 -17 28 -40 4z"/>
<path d="M1150 2405 c-19 -23 -8 -50 20 -50 16 0 26 6 28 18 4 18 -14 47 -28
47 -4 0 -13 -7 -20 -15z"/>
<path d="M2637 2414 c-13 -13 -7 -55 9 -61 24 -9 51 23 38 45 -12 19 -36 27
-47 16z"/>
<path d="M360 1266 c0 -2 7 -20 15 -39 17 -41 19 -67 6 -67 -4 0 -15 21 -24
48 l-16 47 0 -36 c-1 -46 33 -93 49 -69 13 20 13 63 -2 95 -9 21 -28 35 -28
21z"/>
<path d="M2750 2159 c0 -5 5 -7 10 -4 6 3 10 8 10 11 0 2 -4 4 -10 4 -5 0 -10
-5 -10 -11z"/>
<path d="M1230 1910 c0 -18 3 -19 20 -8 14 9 16 14 7 20 -20 13 -27 9 -27 -12z"/>
<path d="M1240 1855 c0 -8 4 -15 10 -15 5 0 7 7 4 15 -4 8 -8 15 -10 15 -2 0
-4 -7 -4 -15z"/>
<path d="M1167 1831 c-3 -12 1 -22 9 -25 8 -3 14 -1 14 3 0 5 3 16 6 25 4 10
1 16 -9 16 -8 0 -17 -9 -20 -19z"/>
<path d="M1231 1595 c0 -11 7 -54 15 -95 l14 -75 -5 84 c-3 47 -9 89 -15 95
-7 7 -10 4 -9 -9z"/>
<path d="M1180 1442 c0 -5 -11 -15 -24 -22 -23 -12 -41 -38 -33 -46 2 -2 20 8
40 23 35 25 49 53 27 53 -5 0 -10 -4 -10 -8z"/>
<path d="M2650 1259 c0 -5 -4 -8 -9 -4 -5 3 -12 -4 -16 -14 -3 -11 -15 -23
-26 -26 -10 -4 -19 -10 -19 -15 0 -5 -3 -15 -6 -24 -3 -9 -1 -16 4 -16 6 0 13
8 15 18 2 9 2 0 -1 -22 -6 -53 13 -39 23 16 6 39 8 41 16 20 5 -13 14 -20 20
-17 8 5 8 10 0 18 -14 14 -14 47 -1 47 6 0 10 -9 10 -19 0 -11 4 -22 9 -26 15
-8 25 15 12 28 -6 6 -11 19 -11 29 0 10 -4 18 -10 18 -5 0 -10 -5 -10 -11z"/>
<path d="M2550 1152 c0 -30 4 -52 11 -52 7 0 8 16 3 48 -9 64 -14 66 -14 4z"/>
<path d="M2622 1130 c0 -14 2 -19 5 -12 2 6 2 18 0 25 -3 6 -5 1 -5 -13z"/>
<path d="M1410 1016 c0 -9 -8 -16 -18 -16 -42 0 -54 -99 -17 -130 17 -14 55
-4 55 15 0 8 9 17 21 20 19 6 23 28 4 25 -12 -2 -23 27 -24 62 -1 28 -21 51
-21 24z m0 -60 c9 -25 3 -66 -11 -66 -12 0 -21 19 -26 56 -4 26 -1 34 11 34 9
0 21 -11 26 -24z"/>
<path d="M2366 831 c-4 -7 -5 -15 -2 -18 9 -9 19 4 14 18 -4 11 -6 11 -12 0z"/>
<path d="M2483 796 c7 -51 -10 -65 -19 -16 -7 33 -24 31 -24 -3 0 -41 14 -52
49 -37 30 12 42 30 21 30 -5 0 -10 13 -10 29 0 17 -5 33 -11 37 -8 5 -10 -7
-6 -40z"/>
<path d="M2376 771 c-4 -7 -5 -15 -2 -18 9 -9 19 4 14 18 -4 11 -6 11 -12 0z"/>
<path d="M1960 734 c0 -8 5 -12 10 -9 6 4 8 11 5 16 -9 14 -15 11 -15 -7z"/>
<path d="M1040 731 c0 -5 7 -12 16 -15 22 -9 24 -8 24 9 0 8 -9 15 -20 15 -11
0 -20 -4 -20 -9z"/>
<path d="M1978 713 c-19 -10 -28 -22 -28 -39 0 -31 4 -30 43 6 37 34 27 54
-15 33z"/>
<path d="M2325 721 c-6 -11 9 -23 19 -14 9 9 7 23 -3 23 -6 0 -12 -4 -16 -9z"/>
<path d="M1677 713 c-11 -10 -8 -45 3 -38 6 4 10 -12 10 -40 0 -49 13 -56 34
-21 8 14 8 20 -1 23 -8 3 -11 14 -7 29 8 33 -20 67 -39 47z"/>
<path d="M1843 665 c-20 -19 -34 -37 -31 -41 11 -10 75 34 81 56 7 29 -7 25
-50 -15z"/>
<path d="M2270 664 c-6 -16 -16 -24 -24 -21 -22 9 -40 -36 -29 -70 12 -34 46
-39 51 -6 2 14 8 20 18 16 15 -6 44 13 44 29 0 5 -9 7 -20 3 -15 -5 -21 0 -26
20 -3 14 -3 29 0 33 4 3 9 -3 12 -15 7 -25 53 -37 71 -20 7 7 10 22 7 35 -5
19 -13 22 -50 22 -39 0 -46 -3 -54 -26z m82 -16 c-9 -9 -15 -9 -24 0 -9 9 -7
12 12 12 19 0 21 -3 12 -12z m-82 -42 c0 -7 -6 -19 -14 -25 -12 -10 -17 -8
-25 7 -6 11 -7 22 -4 26 12 11 43 6 43 -8z"/>
<path d="M2140 556 c0 -8 -3 -21 -6 -30 -4 -11 -1 -16 10 -16 9 0 16 -4 16
-10 0 -5 5 -10 10 -10 6 0 10 10 10 23 0 13 6 29 13 36 10 11 8 12 -10 6 -14
-4 -23 -2 -23 4 0 6 -4 11 -10 11 -5 0 -10 -6 -10 -14z"/>
<path d="M1945 500 c-4 -7 -1 -16 6 -21 17 -10 26 8 11 23 -6 6 -12 6 -17 -2z"/>
<path d="M2053 493 c-25 -17 -31 -61 -11 -81 21 -21 27 -13 12 18 -15 29 -12
50 7 50 5 0 9 -11 9 -24 0 -28 17 -43 32 -28 6 6 6 12 -1 16 -6 4 -11 18 -11
31 0 31 -10 36 -37 18z"/>
<path d="M1955 430 c-3 -5 -1 -10 4 -10 6 0 11 5 11 10 0 6 -2 10 -4 10 -3 0
-8 -4 -11 -10z"/>
<path d="M490 1611 c0 -29 12 -81 19 -81 3 0 4 22 3 50 -2 27 -8 50 -13 50 -5
0 -9 -8 -9 -19z"/>
<path d="M924 616 c5 -23 2 -37 -9 -46 -8 -7 -12 -16 -9 -22 3 -5 11 -4 19 2
11 9 16 6 21 -14 8 -34 27 -22 21 13 -3 16 1 33 10 44 20 22 11 32 -16 17 -19
-9 -21 -8 -21 15 0 14 -5 25 -11 25 -7 0 -9 -12 -5 -34z"/>
<path d="M1359 344 c-12 -14 -11 -16 5 -13 11 2 21 10 24 17 5 17 -13 15 -29
-4z"/>
<path d="M1840 270 c0 -5 5 -10 10 -10 6 0 10 5 10 10 0 6 -4 10 -10 10 -5 0
-10 -4 -10 -10z"/>
<path d="M2015 260 c3 -5 8 -10 11 -10 2 0 4 5 4 10 0 6 -5 10 -11 10 -5 0 -7
-4 -4 -10z"/>
<path d="M1 833 l-1 -833 828 1 c455 1 818 3 807 6 -11 2 -67 13 -125 24 -317
63 -639 226 -884 448 -340 309 -542 688 -619 1161 -2 14 -5 -350 -6 -807z"/>
<path d="M3713 1456 c-21 -19 -33 -35 -28 -35 15 0 80 58 73 65 -4 3 -24 -10
-45 -30z"/>
</g>
</svg>
